SNPro (Autosaved).glyphspackage
{
color = 6;
glyphname = asterisk;
kernLeft = asterisk;
kernRight = asterisk;
layers = (
{
background = {
shapes = (
{
closed = 1;
nodes = (
(227,513,l),
(221,513,l),
(301,368,l),
(334,387,l),
(247,531,l),
(241,524,l),
(412,520,l),
(412,559,l),
(241,555,l),
(247,549,l),
(334,693,l),
(301,712,l),
(221,566,l),
(227,566,l),
(146,712,l),
(113,693,l),
(201,549,l),
(206,555,l),
(36,559,l),
(36,520,l),
(206,524,l),
(201,531,l),
(113,387,l),
(146,367,l)
);
}
);
};
layerId = "F1F93986-3ED8-4AAE-84C4-CA3EEECDDFA0";
shapes = (
{
closed = 1;
nodes = (
(140,369,o),
(151,376,o),
(159,391,cs),
(227,513,l),
(221,513,l),
(288,392,ls),
(296,377,o),
(308,370,o),
(319,377,cs),
(329,383,o),
(329,395,o),
(320,410,cs),
(247,531,l),
(241,524,l),
(385,521,ls),
(402,521,o),
(413,527,o),
(413,540,cs),
(413,552,o),
(402,558,o),
(385,558,cs),
(241,555,l),
(247,549,l),
(320,670,ls),
(329,685,o),
(329,697,o),
(319,704,cs),
(309,710,o),
(297,704,o),
(288,688,cs),
(221,566,l),
(227,566,l),
(159,688,ls),
(151,703,o),
(139,710,o),
(129,704,cs),
(119,698,o),
(118,685,o),
(127,670,cs),
(201,549,l),
(206,555,l),
(63,558,ls),
(46,558,o),
(35,552,o),
(35,540,cs),
(35,528,o),
(46,521,o),
(63,521,cs),
(206,524,l),
(201,531,l),
(127,410,ls),
(118,395,o),
(118,383,o),
(129,376,cs)
);
}
);
width = 448;
},
{
background = {
shapes = (
{
closed = 1;
nodes = (
(240,448,l),
(217,448,l),
(272,307,l),
(392,377,l),
(299,508,l),
(270,464,l),
(431,449,l),
(431,584,l),
(270,569,l),
(299,524,l),
(392,655,l),
(272,725,l),
(217,587,l),
(240,587,l),
(185,725,l),
(66,657,l),
(159,522,l),
(188,569,l),
(26,584,l),
(26,450,l),
(187,464,l),
(157,508,l),
(65,377,l),
(183,309,l)
);
}
);
};
layerId = "4121B50C-FD42-45C5-8FBE-41E76D98F91E";
shapes = (
{
closed = 1;
nodes = (
(159,318,o),
(192,333,o),
(210,376,cs),
(240,448,l),
(217,448,l),
(246,375,ls),
(263,332,o),
(296,318,o),
(334,340,cs),
(373,363,o),
(377,398,o),
(351,434,cs),
(299,508,l),
(270,464,l),
(361,456,ls),
(405,452,o),
(434,474,o),
(434,517,cs),
(434,560,o),
(405,581,o),
(361,577,cs),
(270,569,l),
(299,524,l),
(351,598,ls),
(377,634,o),
(373,670,o),
(334,693,cs),
(296,715,o),
(261,700,o),
(245,658,cs),
(217,587,l),
(240,587,l),
(212,658,ls),
(196,700,o),
(161,716,o),
(124,694,cs),
(86,672,o),
(80,637,o),
(106,599,cs),
(159,522,l),
(188,569,l),
(96,578,ls),
(52,582,o),
(23,559,o),
(23,517,cs),
(23,474,o),
(52,452,o),
(96,456,cs),
(187,464,l),
(157,508,l),
(105,434,ls),
(79,398,o),
(85,362,o),
(122,340,cs)
);
}
);
width = 457;
},
{
background = {
shapes = (
{
closed = 1;
nodes = (
(274,513,l),
(268,513,l),
(348,368,l),
(381,387,l),
(294,531,l),
(288,524,l),
(459,520,l),
(459,559,l),
(288,555,l),
(294,549,l),
(381,693,l),
(348,712,l),
(268,566,l),
(274,566,l),
(193,712,l),
(160,693,l),
(248,549,l),
(253,555,l),
(83,559,l),
(83,520,l),
(253,524,l),
(248,531,l),
(160,387,l),
(193,367,l)
);
}
);
};
layerId = "D8D4984A-F5A5-43C0-BF2B-5708C10C5E92";
shapes = (
{
closed = 1;
nodes = (
(187,369,o),
(198,376,o),
(206,391,cs),
(274,513,l),
(268,513,l),
(335,392,ls),
(343,377,o),
(355,370,o),
(366,377,cs),
(376,383,o),
(376,395,o),
(367,410,cs),
(294,531,l),
(288,524,l),
(432,521,ls),
(449,521,o),
(460,527,o),
(460,540,cs),
(460,552,o),
(449,558,o),
(432,558,cs),
(288,555,l),
(294,549,l),
(367,670,ls),
(376,685,o),
(376,697,o),
(366,704,cs),
(356,711,o),
(344,704,o),
(335,688,cs),
(268,566,l),
(274,566,l),
(206,688,ls),
(198,703,o),
(186,710,o),
(176,704,cs),
(166,698,o),
(165,685,o),
(174,670,cs),
(248,549,l),
(253,555,l),
(110,558,ls),
(93,558,o),
(82,552,o),
(82,540,cs),
(82,528,o),
(93,521,o),
(110,521,cs),
(253,524,l),
(248,531,l),
(174,410,ls),
(165,395,o),
(165,383,o),
(176,376,cs)
);
}
);
width = 448;
},
{
background = {
shapes = (
{
closed = 1;
nodes = (
(283,448,l),
(260,448,l),
(315,307,l),
(435,377,l),
(342,508,l),
(313,464,l),
(474,449,l),
(474,584,l),
(313,569,l),
(342,524,l),
(435,655,l),
(315,725,l),
(260,587,l),
(283,587,l),
(228,725,l),
(109,657,l),
(202,522,l),
(231,569,l),
(69,584,l),
(69,450,l),
(230,464,l),
(200,508,l),
(108,377,l),
(226,309,l)
);
}
);
};
layerId = "C92D7C27-2246-4784-91DF-7F4E0C5E615D";
shapes = (
{
closed = 1;
nodes = (
(202,318,o),
(235,333,o),
(253,376,cs),
(283,448,l),
(260,448,l),
(289,375,ls),
(306,332,o),
(339,318,o),
(377,340,cs),
(416,363,o),
(420,398,o),
(394,434,cs),
(342,508,l),
(313,464,l),
(404,456,ls),
(448,452,o),
(477,474,o),
(477,517,cs),
(477,560,o),
(448,581,o),
(404,577,cs),
(313,569,l),
(342,524,l),
(394,598,ls),
(420,634,o),
(416,670,o),
(377,693,cs),
(339,715,o),
(304,700,o),
(288,658,cs),
(260,587,l),
(283,587,l),
(255,658,ls),
(239,700,o),
(204,716,o),
(167,694,cs),
(129,672,o),
(123,637,o),
(149,599,cs),
(202,522,l),
(231,569,l),
(139,578,ls),
(95,582,o),
(66,559,o),
(66,517,cs),
(66,474,o),
(95,452,o),
(139,456,cs),
(230,464,l),
(200,508,l),
(148,434,ls),
(123,399,o),
(128,362,o),
(165,340,cs)
);
}
);
width = 457;
},
{
background = {
shapes = (
{
closed = 1;
nodes = (
(234,481,l),
(219,481,l),
(287,338,l),
(363,382,l),
(273,520,l),
(256,494,l),
(422,485,l),
(422,572,l),
(256,562,l),
(273,537,l),
(363,674,l),
(287,719,l),
(219,577,l),
(234,577,l),
(166,719,l),
(90,675,l),
(180,536,l),
(197,562,l),
(31,572,l),
(31,485,l),
(197,494,l),
(179,520,l),
(89,382,l),
(165,338,l)
);
}
);
};
layerId = "18203F29-5161-4D9B-8394-C173CC5E27D4";
shapes = (
{
closed = 1;
nodes = (
(150,344,o),
(174,356,o),
(187,384,cs),
(234,481,l),
(219,481,l),
(265,384,ls),
(278,356,o),
(302,344,o),
(327,359,cs),
(351,373,o),
(354,397,o),
(337,422,cs),
(273,520,l),
(256,494,l),
(373,488,ls),
(404,486,o),
(424,501,o),
(424,529,cs),
(424,556,o),
(404,571,o),
(373,569,cs),
(256,562,l),
(273,537,l),
(337,634,ls),
(354,660,o),
(351,684,o),
(327,699,cs),
(303,713,o),
(278,701,o),
(265,673,cs),
(219,577,l),
(234,577,l),
(188,673,ls),
(175,701,o),
(150,713,o),
(127,699,cs),
(103,685,o),
(99,661,o),
(116,635,cs),
(180,536,l),
(197,562,l),
(80,569,ls),
(49,571,o),
(29,556,o),
(29,529,cs),
(29,501,o),
(49,486,o),
(80,488,cs),
(197,494,l),
(179,520,l),
(115,422,ls),
(98,397,o),
(102,373,o),
(126,358,cs)
);
}
);
width = 453;
},
{
background = {
shapes = (
{
closed = 1;
nodes = (
(279,481,l),
(264,481,l),
(332,338,l),
(408,382,l),
(318,520,l),
(301,494,l),
(467,485,l),
(467,572,l),
(301,562,l),
(318,537,l),
(408,674,l),
(332,719,l),
(264,577,l),
(279,577,l),
(211,719,l),
(135,675,l),
(225,536,l),
(242,562,l),
(76,572,l),
(76,485,l),
(242,494,l),
(224,520,l),
(134,382,l),
(210,338,l)
);
}
);
};
layerId = "8FF16B21-C988-4EC9-A448-39B9B4A4BD78";
shapes = (
{
closed = 1;
nodes = (
(195,344,o),
(218,356,o),
(232,384,cs),
(279,481,l),
(264,481,l),
(310,384,ls),
(323,356,o),
(347,344,o),
(372,359,cs),
(396,373,o),
(398,397,o),
(382,422,cs),
(318,520,l),
(301,494,l),
(418,488,ls),
(449,486,o),
(469,501,o),
(469,529,cs),
(469,556,o),
(449,571,o),
(418,569,cs),
(301,562,l),
(318,537,l),
(382,634,ls),
(399,660,o),
(396,684,o),
(372,699,cs),
(348,713,o),
(323,701,o),
(310,673,cs),
(264,577,l),
(279,577,l),
(233,673,ls),
(220,701,o),
(195,713,o),
(172,699,cs),
(148,685,o),
(144,661,o),
(161,635,cs),
(225,536,l),
(242,562,l),
(125,569,ls),
(94,571,o),
(74,556,o),
(74,529,cs),
(74,501,o),
(94,486,o),
(125,488,cs),
(242,494,l),
(224,520,l),
(160,422,ls),
(144,397,o),
(147,373,o),
(171,358,cs)
);
}
);
width = 453;
}
);
unicode = 42;
}
{
color = 6;
glyphname = one;
layers = (
{
background = {
shapes = (
{
closed = 1;
nodes = (
(205,0,l),
(205,705,l),
(174,705,l),
(-12,579,l),
(10,546,l),
(190,667,l),
(163,667,l),
(163,0,l)
);
}
);
};
layerId = "F1F93986-3ED8-4AAE-84C4-CA3EEECDDFA0";
shapes = (
{
closed = 1;
nodes = (
(198,-6,o),
(205,2,o),
(205,16,cs),
(205,654,ls),
(205,668,o),
(196,676,o),
(185,676,cs),
(176,676,o),
(171,676,o),
(162,668,cs),
(39,555,ls),
(15,533,o),
(42,505,o),
(64,525,cs),
(190,638,l),
(163,638,l),
(163,16,ls),
(163,2,o),
(171,-6,o),
(184,-6,cs)
);
}
);
width = 275;
},
{
background = {
shapes = (
{
closed = 1;
nodes = (
(420,0,l),
(420,705,l),
(268,705,l),
(-15,548,l),
(67,399,l),
(300,528,l),
(205,528,l),
(205,0,l)
);
}
);
};
layerId = "4121B50C-FD42-45C5-8FBE-41E76D98F91E";
shapes = (
{
closed = 1;
nodes = (
(383,-10,o),
(420,29,o),
(420,99,cs),
(420,590,ls),
(420,646,o),
(385,680,o),
(321,680,cs),
(278,680,o),
(249,678,o),
(216,651,cs),
(64,525,ls),
(-21,454,o),
(70,350,o),
(146,411,cs),
(269,510,l),
(205,510,l),
(205,99,ls),
(205,29,o),
(244,-10,o),
(313,-10,cs)
);
}
);
width = 500;
},
{
background = {
shapes = (
{
closed = 1;
nodes = (
(168,0,l),
(280,705,l),
(250,705,l),
(43,578,l),
(60,543,l),
(261,665,l),
(232,668,l),
(126,0,l)
);
}
);
};
layerId = "D8D4984A-F5A5-43C0-BF2B-5708C10C5E92";
shapes = (
{
closed = 1;
nodes = (
(162,-6,o),
(169,1,o),
(171,15,cs),
(271,651,ls),
(274,667,o),
(263,676,o),
(253,676,cs),
(244,676,o),
(241,674,o),
(232,668,cs),
(103,584,ls),
(77,567,o),
(95,533,o),
(122,550,cs),
(256,636,l),
(227,639,l),
(129,20,ls),
(126,4,o),
(134,-6,o),
(150,-6,cs)
);
}
);
width = 297;
},
{
background = {
shapes = (
{
closed = 1;
nodes = (
(391,0,l),
(503,705,l),
(351,705,l),
(43,548,l),
(107,387,l),
(360,516,l),
(260,528,l),
(176,0,l)
);
}
);
};
layerId = "C92D7C27-2246-4784-91DF-7F4E0C5E615D";
shapes = (
{
closed = 1;
nodes = (
(354,-10,o),
(396,26,o),
(407,96,cs),
(481,567,ls),
(491,633,o),
(462,670,o),
(397,670,cs),
(356,670,o),
(329,664,o),
(289,641,cs),
(135,553,ls),
(2,477,o),
(67,314,o),
(209,397,cs),
(353,481,l),
(254,491,l),
(195,115,ls),
(183,37,o),
(215,-10,o),
(283,-10,cs)
);
}
);
width = 511;
},
{
background = {
shapes = (
{
closed = 1;
nodes = (
(311,0,l),
(311,705,l),
(220,705,l),
(-15,564,l),
(37,473,l),
(244,598,l),
(183,598,l),
(183,0,l)
);
}
);
};
layerId = "18203F29-5161-4D9B-8394-C173CC5E27D4";
shapes = (
{
closed = 1;
nodes = (
(289,-8,o),
(311,16,o),
(311,58,cs),
(311,622,ls),
(311,657,o),
(290,678,o),
(257,678,cs),
(234,678,o),
(215,673,o),
(194,654,cs),
(43,512,ls),
(-17,456,o),
(56,392,o),
(109,440,cs),
(244,563,l),
(183,563,l),
(183,58,ls),
(183,16,o),
(206,-8,o),
(247,-8,cs)
);
}
);
width = 391;
},
{
background = {
shapes = (
{
closed = 1;
nodes = (
(264,0,l),
(376,705,l),
(285,705,l),
(28,563,l),
(68,465,l),
(295,591,l),
(231,598,l),
(136,0,l)
);
}
);
};
layerId = "8FF16B21-C988-4EC9-A448-39B9B4A4BD78";
shapes = (
{
closed = 1;
nodes = (
(242,-8,o),
(266,14,o),
(273,56,cs),
(367,614,ls),
(371,639,o),
(373,678,o),
(319,678,cs),
(295,678,o),
(270,667,o),
(255,658,cs),
(100,570,ls),
(27,529,o),
(71,433,o),
(154,480,cs),
(287,556,l),
(231,563,l),
(147,69,ls),
(139,22,o),
(158,-8,o),
(203,-8,cs)
);
}
);
width = 393;
}
);
unicode = 49;
userData = {
com.typemytype.robofont.layerData = {
b = {
anchors = (
);
components = (
);
contours = (
);
lib = {
};
name = one;
unicodes = (
);
width = 1160;
};
};
};
}
{
color = 6;
glyphname = five;
layers = (
{
background = {
shapes = (
{
closed = 1;
nodes = (
(460,-8,o),
(545,84,o),
(545,212,cs),
(545,345,o),
(463,435,o),
(332,435,cs),
(249,435,o),
(181,398,o),
(145,336,c),
(159,336,l),
(159,666,l),
(504,666,l),
(504,705,l),
(117,705,l),
(117,294,l),
(154,294,l),
(196,363,o),
(253,394,o),
(330,394,cs),
(437,394,o),
(501,316,o),
(501,208,cs),
(501,104,o),
(433,33,o),
(323,33,cs),
(244,33,o),
(179,58,o),
(113,115,c),
(93,79,l),
(151,23,o),
(234,-8,o),
(323,-8,cs)
);
}
);
};
layerId = "F1F93986-3ED8-4AAE-84C4-CA3EEECDDFA0";
shapes = (
{
closed = 1;
nodes = (
(460,-8,o),
(545,84,o),
(545,212,cs),
(545,345,o),
(463,435,o),
(332,435,cs),
(249,435,o),
(181,398,o),
(145,336,c),
(159,336,l),
(159,631,l),
(488,631,ls),
(502,631,o),
(510,638,o),
(510,651,cs),
(510,663,o),
(502,670,o),
(488,670,cs),
(139,670,ls),
(125,670,o),
(117,662,o),
(117,648,cs),
(117,316,ls),
(117,302,o),
(126,293,o),
(139,293,cs),
(151,293,o),
(157,298,o),
(163,309,cs),
(204,367,o),
(259,394,o),
(330,394,cs),
(437,394,o),
(501,316,o),
(501,208,cs),
(501,104,o),
(433,33,o),
(323,33,cs),
(252,33,o),
(185,55,o),
(127,104,cs),
(102,125,o),
(82,89,o),
(100,73,cs),
(161,18,o),
(241,-8,o),
(323,-8,cs)
);
}
);
width = 600;
},
{
background = {
shapes = (
{
closed = 1;
nodes = (
(468,-12,o),
(579,84,o),
(579,233,cs),
(579,369,o),
(485,460,o),
(350,460,cs),
(293,460,o),
(242,443,o),
(211,413,c),
(258,413,l),
(258,531,l),
(533,531,l),
(533,705,l),
(58,705,l),
(58,257,l),
(189,257,l),
(221,279,o),
(254,291,o),
(292,291,cs),
(342,291,o),
(375,268,o),
(375,227,cs),
(375,186,o),
(342,163,o),
(284,163,cs),
(223,163,o),
(158,184,o),
(102,220,c),
(38,61,l),
(91,18,o),
(194,-12,o),
(289,-12,cs)
);
}
);
};
layerId = "4121B50C-FD42-45C5-8FBE-41E76D98F91E";
shapes = (
{
closed = 1;
nodes = (
(468,-12,o),
(579,84,o),
(579,233,cs),
(579,369,o),
(485,425,o),
(350,425,cs),
(293,425,o),
(242,408,o),
(211,378,c),
(258,378,l),
(258,496,l),
(453,496,ls),
(511,496,o),
(543,527,o),
(543,583,cs),
(543,639,o),
(511,670,o),
(453,670,cs),
(148,670,ls),
(90,670,o),
(58,638,o),
(58,580,cs),
(58,327,ls),
(58,279,o),
(83,253,o),
(139,253,cs),
(168,253,o),
(199,265,o),
(217,273,cs),
(247,287,o),
(275,291,o),
(292,291,cs),
(342,291,o),
(375,268,o),
(375,227,cs),
(375,186,o),
(342,163,o),
(284,163,cs),
(251,163,o),
(202,171,o),
(161,190,cs),
(54,239,o),
(-12,77,o),
(96,27,cs),
(154,0,o),
(228,-12,o),
(289,-12,cs)
);
}
);
width = 600;
},
{
background = {
shapes = (
{
closed = 1;
nodes = (
(424,-8,o),
(535,92,o),
(535,236,cs),
(535,375,o),
(443,435,o),
(346,435,cs),
(271,435,o),
(194,399,o),
(152,336,c),
(168,336,l),
(220,666,l),
(565,666,l),
(571,705,l),
(184,705,l),
(119,294,l),
(156,294,l),
(206,356,o),
(264,394,o),
(342,394,cs),
(435,394,o),
(491,327,o),
(491,234,cs),
(491,119,o),
(403,33,o),
(292,33,cs),
(217,33,o),
(161,48,o),
(93,114,c),
(71,80,l),
(133,13,o),
(214,-8,o),
(292,-8,cs)
);
}
);
};
layerId = "D8D4984A-F5A5-43C0-BF2B-5708C10C5E92";
shapes = (
{
closed = 1;
nodes = (
(424,-8,o),
(535,75,o),
(535,219,cs),
(535,358,o),
(443,418,o),
(346,418,cs),
(271,418,o),
(194,382,o),
(152,319,c),
(168,319,l),
(214,631,l),
(544,631,ls),
(559,631,o),
(568,639,o),
(568,654,cs),
(568,665,o),
(560,670,o),
(546,670,cs),
(199,670,ls),
(185,670,o),
(177,663,o),
(175,649,cs),
(122,298,ls),
(120,284,o),
(129,275,o),
(141,275,cs),
(153,275,o),
(159,281,o),
(167,290,cs),
(215,344,o),
(270,377,o),
(342,377,cs),
(435,377,o),
(491,310,o),
(491,217,cs),
(491,102,o),
(403,33,o),
(292,33,cs),
(224,33,o),
(169,46,o),
(108,100,cs),
(82,123,o),
(60,88,o),
(81,69,cs),
(143,11,o),
(220,-8,o),
(292,-8,cs)
);
}
);
width = 600;
},
{
background = {
shapes = (
{
closed = 1;
nodes = (
(436,-12,o),
(576,86,o),
(576,258,cs),
(576,364,o),
(510,460,o),
(380,460,cs),
(331,460,o),
(280,444,o),
(237,413,c),
(284,413,l),
(303,531,l),
(578,531,l),
(605,705,l),
(130,705,l),
(59,257,l),
(190,257,l),
(221,279,o),
(261,291,o),
(296,291,cs),
(338,291,o),
(372,274,o),
(372,235,cs),
(372,188,o),
(332,163,o),
(271,163,cs),
(215,163,o),
(156,179,o),
(102,218,c),
(23,68,l),
(83,13,o),
(187,-12,o),
(271,-12,cs)
);
}
);
};
layerId = "C92D7C27-2246-4784-91DF-7F4E0C5E615D";
shapes = (
{
closed = 1;
nodes = (
(436,-12,o),
(576,86,o),
(576,258,cs),
(576,364,o),
(510,429,o),
(380,429,cs),
(331,429,o),
(280,413,o),
(237,382,c),
(284,382,l),
(303,496,l),
(499,496,ls),
(564,496,o),
(603,535,o),
(603,595,cs),
(603,644,o),
(570,670,o),
(511,670,cs),
(219,670,ls),
(160,670,o),
(127,641,o),
(116,582,cs),
(72,340,ls),
(61,277,o),
(89,252,o),
(138,252,cs),
(170,252,o),
(196,261,o),
(226,275,cs),
(250,286,o),
(276,291,o),
(296,291,cs),
(338,291,o),
(372,274,o),
(372,235,cs),
(372,188,o),
(332,163,o),
(271,163,cs),
(227,163,o),
(198,169,o),
(155,187,cs),
(60,227,o),
(-10,74,o),
(92,24,cs),
(145,-2,o),
(217,-12,o),
(271,-12,cs)
);
}
);
width = 600;
},
{
background = {
shapes = (
{
closed = 1;
nodes = (
(464,-10,o),
(562,84,o),
(562,223,cs),
(562,357,o),
(474,448,o),
(341,448,cs),
(271,448,o),
(212,421,o),
(178,375,c),
(211,375,l),
(211,599,l),
(519,599,l),
(519,705,l),
(86,705,l),
(86,276,l),
(172,276,l),
(209,321,o),
(254,343,o),
(311,343,cs),
(390,343,o),
(438,292,o),
(438,218,cs),
(438,145,o),
(388,98,o),
(304,98,cs),
(234,98,o),
(169,121,o),
(108,168,c),
(66,70,l),
(121,21,o),
(214,-10,o),
(306,-10,cs)
);
}
);
};
layerId = "18203F29-5161-4D9B-8394-C173CC5E27D4";
shapes = (
{
closed = 1;
nodes = (
(464,-10,o),
(562,84,o),
(562,223,cs),
(562,340,o),
(474,431,o),
(341,431,cs),
(273,431,o),
(212,405,o),
(178,358,c),
(211,358,l),
(211,564,l),
(468,564,ls),
(504,564,o),
(527,583,o),
(527,617,cs),
(527,651,o),
(504,670,o),
(468,670,cs),
(142,670,ls),
(106,670,o),
(86,650,o),
(86,614,cs),
(86,305,ls),
(86,274,o),
(103,256,o),
(137,256,cs),
(158,256,o),
(178,268,o),
(190,279,cs),
(228,314,o),
(268,326,o),
(311,326,cs),
(390,326,o),
(438,275,o),
(438,218,cs),
(438,145,o),
(388,98,o),
(304,98,cs),
(246,98,o),
(197,113,o),
(148,141,cs),
(82,179,o),
(33,88,o),
(97,47,cs),
(158,8,o),
(235,-10,o),
(306,-10,cs)
);
}
);
width = 600;
},
{
background = {
shapes = (
{
closed = 1;
nodes = (
(430,-10,o),
(556,89,o),
(556,247,cs),
(556,370,o),
(477,448,o),
(363,448,cs),
(301,448,o),
(237,422,o),
(195,375,c),
(228,375,l),
(264,599,l),
(572,599,l),
(588,705,l),
(156,705,l),
(87,276,l),
(173,276,l),
(214,318,o),
(263,343,o),
(319,343,cs),
(387,343,o),
(432,301,o),
(432,235,cs),
(432,154,o),
(368,98,o),
(282,98,cs),
(216,98,o),
(159,114,o),
(98,166,c),
(47,74,l),
(108,13,o),
(201,-10,o),
(282,-10,cs)
);
}
);
};
layerId = "8FF16B21-C988-4EC9-A448-39B9B4A4BD78";
shapes = (
{
closed = 1;
nodes = (
(430,-10,o),
(556,72,o),
(556,230,cs),
(556,353,o),
(477,431,o),
(363,431,cs),
(301,431,o),
(237,405,o),
(195,358,c),
(228,358,l),
(258,564,l),
(519,564,ls),
(559,564,o),
(583,587,o),
(583,625,cs),
(583,655,o),
(562,670,o),
(526,670,cs),
(206,670,ls),
(170,670,o),
(147,652,o),
(141,616,cs),
(95,311,ls),
(89,272,o),
(109,255,o),
(140,255,cs),
(162,255,o),
(181,264,o),
(198,279,cs),
(237,313,o),
(275,326,o),
(319,326,cs),
(387,326,o),
(432,284,o),
(432,218,cs),
(432,137,o),
(368,98,o),
(282,98,cs),
(226,98,o),
(182,108,o),
(130,141,cs),
(73,177,o),
(19,88,o),
(81,46,cs),
(143,4,o),
(219,-10,o),
(282,-10,cs)
);
}
);
width = 600;
}
);
unicode = 53;
userData = {
com.typemytype.robofont.layerData = {
b = {
anchors = (
);
components = (
);
contours = (
);
lib = {
};
name = five;
unicodes = (
);
width = 1160;
};
};
};
}
{
color = 6;
glyphname = question;
kernLeft = quesion;
kernRight = question;
layers = (
{
background = {
shapes = (
{
closed = 1;
nodes = (
(211,162,l),
(213,184,ls),
(218,245,o),
(243,296,o),
(306,371,cs),
(373,451,o),
(397,498,o),
(397,563,cs),
(397,653,o),
(327,713,o),
(221,713,cs),
(133,713,o),
(50,675,o),
(2,620,c),
(22,584,l),
(78,642,o),
(142,672,o),
(222,672,cs),
(303,672,o),
(353,630,o),
(353,563,cs),
(353,508,o),
(333,465,o),
(275,396,cs),
(205,312,o),
(181,254,o),
(181,182,cs),
(181,162,l)
);
},
{
closed = 1;
nodes = (
(230,0,l),
(230,70,l),
(162,70,l),
(162,0,l)
);
}
);
};
layerId = "F1F93986-3ED8-4AAE-84C4-CA3EEECDDFA0";
shapes = (
{
closed = 1;
nodes = (
(198,162,o),
(206,171,o),
(202,185,cs),
(163,306,o),
(269,322,o),
(318,359,cs),
(372,399,o),
(397,446,o),
(397,512,cs),
(397,602,o),
(327,678,o),
(221,678,cs),
(142,678,o),
(69,651,o),
(23,601,cs),
(-3,574,o),
(24,541,o),
(53,571,cs),
(100,619,o),
(152,636,o),
(222,636,cs),
(303,636,o),
(352,579,o),
(352,512,cs),
(352,457,o),
(326,424,o),
(280,389,cs),
(235,354,o),
(105,344,o),
(159,179,cs),
(163,166,o),
(174,159,o),
(184,160,cs)
);
},
{
closed = 1;
nodes = (
(217,-3,o),
(233,14,o),
(233,35,cs),
(233,56,o),
(217,73,o),
(196,73,cs),
(175,73,o),
(158,56,o),
(158,35,cs),
(158,14,o),
(175,-3,o),
(196,-3,cs)
);
}
);
width = 429;
},
{
background = {
shapes = (
{
closed = 1;
nodes = (
(306,255,l),
(313,290,ls),
(318,313,o),
(333,341,o),
(395,381,cs),
(466,427,o),
(490,475,o),
(490,535,cs),
(490,643,o),
(391,717,o),
(245,717,cs),
(160,717,o),
(65,689,o),
(1,642,c),
(66,486,l),
(120,524,o),
(174,542,o),
(228,542,cs),
(263,542,o),
(280,530,o),
(280,508,cs),
(280,490,o),
(270,475,o),
(244,449,cs),
(202,408,o),
(185,368,o),
(185,316,cs),
(185,255,l)
);
},
{
closed = 1;
nodes = (
(351,0,l),
(351,207,l),
(140,207,l),
(140,0,l)
);
}
);
};
layerId = "4121B50C-FD42-45C5-8FBE-41E76D98F91E";
shapes = (
{
closed = 1;
nodes = (
(288,249,o),
(305,266,o),
(313,290,cs),
(323,319,o),
(333,341,o),
(395,381,cs),
(466,427,o),
(490,475,o),
(490,535,cs),
(490,643,o),
(391,717,o),
(245,717,cs),
(198,717,o),
(139,709,o),
(84,687,cs),
(-41,637,o),
(13,464,o),
(127,520,cs),
(158,535,o),
(192,542,o),
(228,542,cs),
(263,542,o),
(280,530,o),
(280,508,cs),
(280,490,o),
(270,475,o),
(244,449,cs),
(202,408,o),
(185,368,o),
(185,321,cs),
(185,277,o),
(209,249,o),
(249,249,cs)
);
},
{
closed = 1;
nodes = (
(316,-6,o),
(357,39,o),
(357,104,cs),
(357,169,o),
(316,213,o),
(246,213,cs),
(176,213,o),
(134,169,o),
(134,104,cs),
(134,39,o),
(176,-6,o),
(246,-6,cs)
);
}
);
width = 489;
},
{
background = {
shapes = (
{
closed = 1;
nodes = (
(196,162,l),
(201,184,ls),
(213,237,o),
(235,291,o),
(316,361,cs),
(371,409,o),
(447,482,o),
(447,569,cs),
(447,647,o),
(392,713,o),
(284,713,cs),
(206,713,o),
(121,681,o),
(63,621,c),
(83,585,l),
(140,640,o),
(209,672,o),
(284,672,cs),
(367,672,o),
(403,627,o),
(403,567,cs),
(403,485,o),
(334,432,o),
(291,392,cs),
(200,307,o),
(179,257,o),
(169,183,cs),
(166,162,l)
);
},
{
closed = 1;
nodes = (
(189,0,l),
(200,70,l),
(132,70,l),
(121,0,l)
);
}
);
};
layerId = "D8D4984A-F5A5-43C0-BF2B-5708C10C5E92";
shapes = (
{
closed = 1;
nodes = (
(194,159,o),
(198,167,o),
(201,183,cs),
(213,237,o),
(234,291,o),
(315,361,cs),
(398,432,o),
(447,497,o),
(447,570,cs),
(447,647,o),
(392,713,o),
(284,713,cs),
(213,713,o),
(135,686,o),
(80,635,cs),
(54,611,o),
(78,580,o),
(105,603,cs),
(156,647,o),
(217,672,o),
(284,672,cs),
(367,672,o),
(403,627,o),
(403,568,cs),
(403,507,o),
(374,465,o),
(291,392,cs),
(200,312,o),
(179,257,o),
(169,182,cs),
(167,169,o),
(171,159,o),
(183,159,cs)
);
},
{
closed = 1;
nodes = (
(183,-3,o),
(198,13,o),
(198,35,cs),
(198,57,o),
(183,73,o),
(161,73,cs),
(139,73,o),
(123,57,o),
(123,35,cs),
(123,13,o),
(139,-3,o),
(161,-3,cs)
);
}
);
width = 429;
},
{
background = {
shapes = (
{
closed = 1;
nodes = (
(310,255,l),
(322,288,ls),
(336,325,o),
(352,343,o),
(421,380,cs),
(494,419,o),
(535,467,o),
(535,550,cs),
(535,643,o),
(452,717,o),
(329,717,cs),
(236,717,o),
(142,694,o),
(63,639,c),
(122,486,l),
(178,524,o),
(234,542,o),
(280,542,cs),
(311,542,o),
(325,530,o),
(325,513,cs),
(325,482,o),
(299,465,o),
(279,449,cs),
(222,404,o),
(206,373,o),
(198,316,cs),
(189,255,l)
);
},
{
closed = 1;
nodes = (
(315,0,l),
(348,207,l),
(137,207,l),
(104,0,l)
);
}
);
};
layerId = "C92D7C27-2246-4784-91DF-7F4E0C5E615D";
shapes = (
{
closed = 1;
nodes = (
(297,249,o),
(314,265,o),
(322,288,cs),
(336,325,o),
(352,343,o),
(421,380,cs),
(494,419,o),
(535,467,o),
(535,550,cs),
(535,643,o),
(452,717,o),
(329,717,cs),
(263,717,o),
(197,706,o),
(136,680,cs),
(29,632,o),
(71,477,o),
(190,523,cs),
(224,536,o),
(247,542,o),
(280,542,cs),
(311,542,o),
(325,530,o),
(325,510,cs),
(325,486,o),
(308,472,o),
(279,449,cs),
(222,404,o),
(206,373,o),
(199,326,cs),
(192,277,o),
(215,249,o),
(260,249,cs)
);
},
{
closed = 1;
nodes = (
(296,-6,o),
(337,39,o),
(337,104,cs),
(337,169,o),
(296,213,o),
(226,213,cs),
(156,213,o),
(114,169,o),
(114,104,cs),
(114,39,o),
(156,-6,o),
(226,-6,cs)
);
}
);
width = 489;
},
{
background = {
shapes = (
{
closed = 1;
nodes = (
(259,209,l),
(263,237,ls),
(269,279,o),
(288,319,o),
(351,376,cs),
(420,439,o),
(444,487,o),
(444,549,cs),
(444,648,o),
(359,715,o),
(233,715,cs),
(147,715,o),
(58,682,o),
(2,631,c),
(44,535,l),
(99,583,o),
(158,607,o),
(225,607,cs),
(283,607,o),
(317,580,o),
(317,536,cs),
(317,499,o),
(302,470,o),
(260,423,cs),
(204,360,o),
(183,311,o),
(183,249,cs),
(183,209,l)
);
},
{
closed = 1;
nodes = (
(291,0,l),
(291,139,l),
(151,139,l),
(151,0,l)
);
}
);
};
layerId = "18203F29-5161-4D9B-8394-C173CC5E27D4";
shapes = (
{
closed = 1;
nodes = (
(243,212,o),
(252,227,o),
(250,247,cs),
(244,307,o),
(288,319,o),
(351,376,cs),
(420,439,o),
(444,487,o),
(444,549,cs),
(444,648,o),
(359,715,o),
(233,715,cs),
(170,715,o),
(87,694,o),
(40,649,cs),
(-20,592,o),
(39,513,o),
(103,567,cs),
(142,599,o),
(179,607,o),
(225,607,cs),
(283,607,o),
(328,580,o),
(328,536,cs),
(328,499,o),
(319,470,o),
(277,423,cs),
(221,360,o),
(156,361,o),
(170,239,cs),
(173,212,o),
(196,199,o),
(220,205,cs)
);
},
{
closed = 1;
nodes = (
(263,-5,o),
(295,30,o),
(295,70,cs),
(295,109,o),
(263,143,o),
(221,143,cs),
(179,143,o),
(146,109,o),
(146,70,cs),
(146,30,o),
(179,-5,o),
(221,-5,cs)
);
}
);
width = 459;
},
{
background = {
shapes = (
{
closed = 1;
nodes = (
(253,209,l),
(262,236,ls),
(275,281,o),
(294,317,o),
(369,371,cs),
(433,414,o),
(491,475,o),
(491,560,cs),
(491,645,o),
(422,715,o),
(307,715,cs),
(221,715,o),
(132,688,o),
(63,630,c),
(103,536,l),
(159,582,o),
(222,607,o),
(282,607,cs),
(339,607,o),
(364,579,o),
(364,540,cs),
(364,484,o),
(317,449,o),
(285,421,cs),
(211,356,o),
(193,315,o),
(184,250,cs),
(178,209,l)
);
},
{
closed = 1;
nodes = (
(252,0,l),
(274,139,l),
(135,139,l),
(113,0,l)
);
}
);
};
layerId = "8FF16B21-C988-4EC9-A448-39B9B4A4BD78";
shapes = (
{
closed = 1;
nodes = (
(246,204,o),
(256,216,o),
(262,236,cs),
(275,281,o),
(299,323,o),
(369,371,cs),
(435,416,o),
(491,475,o),
(491,560,cs),
(491,645,o),
(422,715,o),
(307,715,cs),
(238,715,o),
(157,695,o),
(99,656,cs),
(37,614,o),
(76,527,o),
(147,567,cs),
(191,592,o),
(233,607,o),
(282,607,cs),
(339,607,o),
(364,579,o),
(364,540,cs),
(364,493,o),
(337,466,o),
(285,421,cs),
(211,357,o),
(194,316,o),
(184,254,cs),
(179,223,o),
(193,204,o),
(222,204,cs)
);
},
{
closed = 1;
nodes = (
(240,-5,o),
(268,26,o),
(268,70,cs),
(268,113,o),
(240,143,o),
(194,143,cs),
(148,143,o),
(119,113,o),
(119,70,cs),
(119,26,o),
(148,-5,o),
(194,-5,cs)
);
}
);
width = 459;
}
);
unicode = 63;
}
{
color = 6;
glyphname = K;
kernLeft = H;
kernRight = K;
layers = (
{
anchors = (
{
name = bottom;
pos = (302,0);
},
{
name = top;
pos = (301,670);
},
{
name = topleft;
pos = (27,670);
}
);
background = {
anchors = (
{
name = bottom;
pos = (302,0);
},
{
name = top;
pos = (301,705);
},
{
name = topleft;
pos = (27,705);
}
);
shapes = (
{
closed = 1;
nodes = (
(138,0,l),
(138,338,l),
(140,338,l),
(532,0,l),
(594,0,l),
(160,374,l),
(158,342,l),
(568,705,l),
(509,705,l),
(140,377,l),
(138,377,l),
(138,705,l),
(96,705,l),
(96,0,l)
);
}
);
};
layerId = "F1F93986-3ED8-4AAE-84C4-CA3EEECDDFA0";
shapes = (
{
closed = 1;
nodes = (
(131,-6,o),
(138,2,o),
(138,16,cs),
(138,288,l),
(170,317,l),
(509,4,ls),
(520,-6,o),
(535,-9,o),
(544,0,cs),
(551,7,o),
(556,17,o),
(536,35,cs),
(187,361,l),
(185,329,l),
(525,634,ls),
(544,651,o),
(546,659,o),
(537,670,cs),
(530,678,o),
(516,675,o),
(503,664,cs),
(140,344,l),
(138,344,l),
(138,654,ls),
(138,668,o),
(130,676,o),
(117,676,cs),
(104,676,o),
(96,668,o),
(96,654,cs),
(96,16,ls),
(96,2,o),
(104,-6,o),
(117,-6,cs)
);
}
);
width = 590;
},
{
anchors = (
{
name = bottom;
pos = (355,0);
},
{
name = top;
pos = (355,670);
},
{
name = topleft;
pos = (11,670);
}
);
background = {
anchors = (
{
name = bottom;
pos = (355,0);
},
{
name = top;
pos = (355,705);
},
{
name = topleft;
pos = (11,705);
}
);
shapes = (
{
closed = 1;
nodes = (
(265,0,l),
(265,314,l),
(267,314,l),
(527,0,l),
(781,0,l),
(439,416,l),
(439,331,l),
(773,705,l),
(520,705,l),
(267,408,l),
(265,408,l),
(265,705,l),
(50,705,l),
(50,0,l)
);
}
);
};
guides = (
{
angle = 42.8545;
pos = (359,494);
}
);
layerId = "4121B50C-FD42-45C5-8FBE-41E76D98F91E";
shapes = (
{
closed = 1;
nodes = (
(228,-10,o),
(265,34,o),
(265,104,cs),
(265,179,l),
(329,239,l),
(483,53,ls),
(518,11,o),
(544,-9,o),
(597,-10,cs),
(659,-11,o),
(720,73,o),
(664,142,cs),
(439,416,l),
(439,331,l),
(634,515,ls),
(709,586,o),
(664,679,o),
(587,679,cs),
(544,679,o),
(516,658,o),
(486,630,cs),
(265,426,l),
(265,426,l),
(265,566,ls),
(265,636,o),
(227,680,o),
(158,680,cs),
(89,680,o),
(50,636,o),
(50,566,cs),
(50,104,ls),
(50,34,o),
(89,-10,o),
(158,-10,cs)
);
}
);
width = 726;
},
{
anchors = (
{
name = bottom;
pos = (274,0);
},
{
name = top;
pos = (365,670);
},
{
name = topleft;
pos = (91,670);
}
);
background = {
anchors = (
{
name = bottom;
pos = (277,0);
},
{
name = top;
pos = (375,705);
},
{
name = topleft;
pos = (101,705);
}
);
shapes = (
{
closed = 1;
nodes = (
(100,0,l),
(154,338,l),
(156,338,l),
(499,0,l),
(556,0,l),
(183,369,l),
(178,339,l),
(645,705,l),
(583,705,l),
(162,377,l),
(160,377,l),
(212,705,l),
(170,705,l),
(58,0,l)
);
}
);
};
layerId = "D8D4984A-F5A5-43C0-BF2B-5708C10C5E92";
shapes = (
{
closed = 1;
nodes = (
(94,-6,o),
(101,1,o),
(103,15,cs),
(154,338,l),
(156,338,l),
(493,6,ls),
(501,-2,o),
(508,-6,o),
(517,-6,cs),
(536,-6,o),
(544,13,o),
(530,26,cs),
(183,369,l),
(178,339,l),
(568,645,ls),
(583,657,o),
(575,676,o),
(557,676,cs),
(548,676,o),
(544,674,o),
(533,666,cs),
(162,377,l),
(160,377,l),
(203,651,ls),
(206,667,o),
(198,676,o),
(185,676,cs),
(171,676,o),
(164,669,o),
(162,655,cs),
(62,19,ls),
(59,3,o),
(67,-6,o),
(80,-6,cs)
);
}
);
width = 590;
},
{
anchors = (
{
name = bottom;
pos = (325,0);
},
{
name = top;
pos = (427,670);
},
{
name = topleft;
pos = (82,670);
}
);
background = {
anchors = (
{
name = bottom;
pos = (325,0);
},
{
name = top;
pos = (433,705);
},
{
name = topleft;
pos = (88,705);
}
);
shapes = (
{
closed = 1;
nodes = (
(233,0,l),
(284,319,l),
(286,319,l),
(510,0,l),
(749,0,l),
(460,416,l),
(474,329,l),
(850,705,l),
(587,705,l),
(300,409,l),
(298,409,l),
(345,705,l),
(130,705,l),
(18,0,l)
);
}
);
};
layerId = "C92D7C27-2246-4784-91DF-7F4E0C5E615D";
shapes = (
{
closed = 1;
nodes = (
(198,-10,o),
(237,23,o),
(248,93,cs),
(284,319,l),
(286,319,l),
(466,62,ls),
(505,6,o),
(532,-10,o),
(584,-10,cs),
(664,-10,o),
(704,66,o),
(659,130,cs),
(460,416,l),
(474,329,l),
(707,533,ls),
(770,589,o),
(734,680,o),
(648,680,cs),
(600,680,o),
(576,661,o),
(542,630,cs),
(300,409,l),
(298,409,l),
(321,556,ls),
(333,635,o),
(299,680,o),
(231,680,cs),
(161,680,o),
(120,645,o),
(109,575,cs),
(36,114,ls),
(24,35,o),
(58,-10,o),
(127,-10,cs)
);
}
);
width = 739;
},
{
anchors = (
{
name = bottom;
pos = (315,0);
},
{
name = top;
pos = (315,670);
},
{
name = topleft;
pos = (6,670);
}
);
background = {
anchors = (
{
name = bottom;
pos = (315,0);
},
{
name = top;
pos = (315,705);
},
{
name = topleft;
pos = (6,705);
}
);
shapes = (
{
closed = 1;
nodes = (
(188,0,l),
(188,326,l),
(190,326,l),
(516,0,l),
(674,0,l),
(286,395,l),
(285,337,l),
(657,705,l),
(501,705,l),
(190,393,l),
(188,393,l),
(188,705,l),
(60,705,l),
(60,0,l)
);
}
);
};
guides = (
{
angle = 90;
pos = (594,328);
}
);
layerId = "18203F29-5161-4D9B-8394-C173CC5E27D4";
shapes = (
{
closed = 1;
nodes = (
(166,-8,o),
(188,16,o),
(188,58,cs),
(188,218,l),
(232,260,l),
(476,31,ls),
(520,-11,o),
(554,-14,o),
(572,0,cs),
(591,14,o),
(613,56,o),
(569,98,cs),
(286,371,l),
(285,313,l),
(542,576,ls),
(580,614,o),
(563,646,o),
(546,663,cs),
(527,681,o),
(486,683,o),
(463,660,cs),
(190,388,l),
(188,388,l),
(188,613,ls),
(188,655,o),
(165,678,o),
(124,678,cs),
(83,678,o),
(60,655,o),
(60,613,cs),
(60,58,ls),
(60,16,o),
(83,-8,o),
(124,-8,cs)
);
}
);
width = 618;
},
{
anchors = (
{
name = bottom;
pos = (300,0);
},
{
name = top;
pos = (399,670);
},
{
name = topleft;
pos = (90,670);
}
);
background = {
anchors = (
{
name = bottom;
pos = (301,0);
},
{
name = top;
pos = (404,705);
},
{
name = topleft;
pos = (95,705);
}
);
shapes = (
{
closed = 1;
nodes = (
(166,0,l),
(218,329,l),
(220,329,l),
(505,0,l),
(653,0,l),
(322,393,l),
(326,334,l),
(748,705,l),
(585,705,l),
(230,393,l),
(228,393,l),
(278,705,l),
(150,705,l),
(38,0,l)
);
}
);
};
layerId = "8FF16B21-C988-4EC9-A448-39B9B4A4BD78";
shapes = (
{
closed = 1;
nodes = (
(145,-8,o),
(168,12,o),
(175,54,cs),
(218,329,l),
(220,329,l),
(475,34,ls),
(501,4,o),
(514,-8,o),
(545,-8,cs),
(594,-8,o),
(619,42,o),
(588,78,cs),
(322,393,l),
(326,334,l),
(616,589,ls),
(657,625,o),
(633,678,o),
(583,678,cs),
(557,678,o),
(543,668,o),
(520,648,cs),
(230,393,l),
(228,393,l),
(261,604,ls),
(268,651,o),
(248,678,o),
(207,678,cs),
(165,678,o),
(142,657,o),
(135,615,cs),
(48,67,ls),
(40,19,o),
(62,-8,o),
(103,-8,cs)
);
}
);
width = 664;
}
);
unicode = 75;
userData = {
anchors = (
);
b = {
};
com.typemytype.robofont.layerData = {
b = {
anchors = (
);
components = (
);
contours = (
);
lib = {
};
name = K;
unicodes = (
);
width = 1210;
};
};
components = (
);
contours = (
);
lib = {
};
name = K;
unicodes = (
);
width = 1329;
};
}
{
color = 6;
glyphname = N;
kernLeft = H;
kernRight = H;
layers = (
{
anchors = (
{
name = bottom;
pos = (366,0);
},
{
name = top;
pos = (366,670);
}
);
background = {
anchors = (
{
name = bottom;
pos = (366,0);
},
{
name = top;
pos = (366,705);
}
);
shapes = (
{
closed = 1;
nodes = (
(135,0,l),
(135,663,l),
(114,663,l),
(602,0,l),
(636,0,l),
(636,705,l),
(597,705,l),
(597,42,l),
(619,42,l),
(131,705,l),
(96,705,l),
(96,0,l)
);
}
);
};
layerId = "F1F93986-3ED8-4AAE-84C4-CA3EEECDDFA0";
shapes = (
{
closed = 1;
nodes = (
(128,-6,o),
(135,2,o),
(135,16,cs),
(135,628,l),
(114,628,l),
(596,8,ls),
(603,-2,o),
(609,-6,o),
(619,-6,cs),
(630,-6,o),
(636,2,o),
(636,17,cs),
(636,654,ls),
(636,668,o),
(629,676,o),
(617,676,cs),
(605,676,o),
(597,668,o),
(597,654,cs),
(597,42,l),
(619,42,l),
(137,662,ls),
(130,672,o),
(124,676,o),
(114,676,cs),
(103,676,o),
(96,668,o),
(96,653,cs),
(96,16,ls),
(96,2,o),
(104,-6,o),
(116,-6,cs)
);
}
);
width = 732;
},
{
anchors = (
{
name = bottom;
pos = (352,0);
},
{
name = top;
pos = (351,670);
}
);
background = {
anchors = (
{
name = bottom;
pos = (352,0);
},
{
name = top;
pos = (351,705);
}
);
shapes = (
{
closed = 1;
nodes = (
(227,0,l),
(227,390,l),
(197,390,l),
(519,0,l),
(676,0,l),
(676,705,l),
(476,705,l),
(476,315,l),
(506,315,l),
(184,705,l),
(27,705,l),
(27,0,l)
);
}
);
};
layerId = "4121B50C-FD42-45C5-8FBE-41E76D98F91E";
shapes = (
{
closed = 1;
nodes = (
(222,-10,o),
(257,26,o),
(257,91,cs),
(257,378,l),
(227,378,l),
(477,51,ls),
(512,6,o),
(536,-10,o),
(589,-10,cs),
(642,-10,o),
(676,28,o),
(676,86,cs),
(676,579,ls),
(676,644,o),
(641,680,o),
(576,680,cs),
(511,680,o),
(476,644,o),
(476,579,cs),
(476,315,l),
(506,315,l),
(300,588,ls),
(247,658,o),
(222,683,o),
(151,680,cs),
(94,678,o),
(57,642,o),
(57,574,cs),
(57,91,ls),
(57,26,o),
(92,-10,o),
(157,-10,cs)
);
}
);
width = 733;
},
{
anchors = (
{
name = bottom;
pos = (338,0);
},
{
name = top;
pos = (440,670);
}
);
background = {
anchors = (
{
name = bottom;
pos = (338,0);
},
{
name = top;
pos = (440,705);
}
);
shapes = (
{
closed = 1;
nodes = (
(97,0,l),
(202,663,l),
(185,663,l),
(563,0,l),
(597,0,l),
(709,705,l),
(670,705,l),
(565,42,l),
(583,42,l),
(205,705,l),
(170,705,l),
(58,0,l)
);
}
);
};
layerId = "D8D4984A-F5A5-43C0-BF2B-5708C10C5E92";
shapes = (
{
closed = 1;
nodes = (
(90,-6,o),
(97,0,o),
(99,14,cs),
(203,660,l),
(186,660,l),
(558,9,ls),
(564,-1,o),
(569,-6,o),
(580,-6,cs),
(591,-6,o),
(597,0,o),
(599,14,cs),
(706,652,ls),
(709,667,o),
(703,676,o),
(691,676,cs),
(678,676,o),
(670,670,o),
(668,656,cs),
(565,42,l),
(583,42,l),
(239,647,ls),
(225,671,o),
(210,676,o),
(199,676,cs),
(188,676,o),
(171,669,o),
(167,648,cs),
(61,18,ls),
(58,3,o),
(65,-6,o),
(77,-6,cs)
);
}
);
width = 732;
},
{
anchors = (
{
name = bottom;
pos = (353,0);
},
{
name = top;
pos = (444,670);
}
);
background = {
anchors = (
{
name = bottom;
pos = (353,0);
},
{
name = top;
pos = (449,705);
}
);
shapes = (
{
closed = 1;
nodes = (
(218,0,l),
(284,415,l),
(251,415,l),
(510,0,l),
(667,0,l),
(779,705,l),
(579,705,l),
(513,290,l),
(546,290,l),
(287,705,l),
(130,705,l),
(18,0,l)
);
}
);
};
layerId = "C92D7C27-2246-4784-91DF-7F4E0C5E615D";
shapes = (
{
closed = 1;
nodes = (
(189,-10,o),
(221,22,o),
(232,88,cs),
(284,415,l),
(251,415,l),
(474,57,ls),
(503,10,o),
(532,-10,o),
(587,-10,cs),
(639,-10,o),
(670,21,o),
(680,81,cs),
(757,563,ls),
(769,637,o),
(736,680,o),
(673,680,cs),
(607,680,o),
(571,648,o),
(560,582,cs),
(513,290,l),
(546,290,l),
(317,614,ls),
(285,659,o),
(264,680,o),
(210,680,cs),
(158,680,o),
(122,649,o),
(112,589,cs),
(35,107,ls),
(23,33,o),
(59,-10,o),
(123,-10,cs)
);
}
);
width = 763;
},
{
anchors = (
{
name = bottom;
pos = (374,0);
},
{
name = top;
pos = (374,671);
}
);
background = {
anchors = (
{
name = bottom;
pos = (374,0);
},
{
name = top;
pos = (374,705);
}
);
shapes = (
{
closed = 1;
nodes = (
(196,0,l),
(196,527,l),
(171,527,l),
(576,0,l),
(671,0,l),
(671,705,l),
(552,705,l),
(552,179,l),
(578,179,l),
(173,705,l),
(77,705,l),
(77,0,l)
);
}
);
};
layerId = "18203F29-5161-4D9B-8394-C173CC5E27D4";
shapes = (
{
closed = 1;
nodes = (
(181,-8,o),
(196,14,o),
(196,54,cs),
(196,520,l),
(174,520,l),
(526,58,ls),
(540,39,o),
(569,-8,o),
(606,-8,cs),
(653,-8,o),
(671,15,o),
(671,52,cs),
(671,617,ls),
(671,656,o),
(650,678,o),
(612,678,cs),
(573,678,o),
(552,656,o),
(552,617,cs),
(552,179,l),
(572,179,l),
(231,637,ls),
(201,677,o),
(164,678,o),
(150,678,cs),
(116,678,o),
(77,655,o),
(77,614,cs),
(77,54,ls),
(77,14,o),
(98,-8,o),
(137,-8,cs)
);
}
);
width = 749;
},
{
anchors = (
{
name = bottom;
pos = (346,0);
},
{
name = top;
pos = (445,670);
}
);
background = {
anchors = (
{
name = bottom;
pos = (346,0);
},
{
name = top;
pos = (445,705);
}
);
shapes = (
{
closed = 1;
nodes = (
(157,0,l),
(242,539,l),
(217,539,l),
(536,0,l),
(631,0,l),
(743,705,l),
(624,705,l),
(539,166,l),
(564,166,l),
(246,705,l),
(150,705,l),
(38,0,l)
);
}
);
};
layerId = "8FF16B21-C988-4EC9-A448-39B9B4A4BD78";
shapes = (
{
closed = 1;
nodes = (
(140,-13,o),
(157,3,o),
(165,51,cs),
(242,539,l),
(217,539,l),
(516,34,ls),
(533,5,o),
(551,-8,o),
(584,-8,cs),
(615,-8,o),
(633,11,o),
(639,48,cs),
(731,595,ls),
(738,637,o),
(726,673,o),
(685,678,cs),
(645,683,o),
(623,659,o),
(616,619,cs),
(539,166,l),
(564,166,l),
(285,638,ls),
(268,666,o),
(247,678,o),
(214,678,cs),
(183,678,o),
(149,661,o),
(143,624,cs),
(48,63,ls),
(40,18,o),
(62,-3,o),
(100,-8,cs)
);
}
);
width = 747;
}
);
unicode = 78;
userData = {
anchors = (
);
b = {
};
com.typemytype.robofont.layerData = {
b = {
anchors = (
);
components = (
);
contours = (
);
lib = {
};
name = N;
unicodes = (
);
width = 1499;
};
};
components = (
);
contours = (
);
lib = {
};
name = N;
unicodes = (
);
width = 1557;
};
}
{
color = 6;
glyphname = i;
kernLeft = h;
kernRight = l;
layers = (
{
anchors = (
{
name = bottom;
pos = (104,0);
},
{
name = ogonek;
pos = (125,0);
}
);
background = {
anchors = (
{
name = bottom;
pos = (103,0);
},
{
name = ogonek;
pos = (125,0);
}
);
shapes = (
{
closed = 1;
nodes = (
(136,619,l),
(136,682,l),
(72,682,l),
(72,619,l)
);
},
{
closed = 1;
nodes = (
(125,0,l),
(125,484,l),
(83,484,l),
(83,0,l)
);
}
);
};
layerId = "F1F93986-3ED8-4AAE-84C4-CA3EEECDDFA0";
shapes = (
{
closed = 1;
nodes = (
(118,-3,o),
(125,5,o),
(125,19,cs),
(125,463,ls),
(125,477,o),
(117,487,o),
(104,487,cs),
(91,487,o),
(83,477,o),
(83,463,cs),
(83,19,ls),
(83,5,o),
(91,-3,o),
(104,-3,cs)
);
},
{
closed = 1;
nodes = (
(123,602,o),
(138,617,o),
(138,636,cs),
(138,655,o),
(123,670,o),
(104,670,cs),
(85,670,o),
(70,655,o),
(70,636,cs),
(70,617,o),
(85,602,o),
(104,602,cs)
);
}
);
width = 208;
},
{
anchors = (
{
name = bottom;
pos = (148,0);
},
{
name = ogonek;
pos = (200,0);
}
);
background = {
anchors = (
{
name = bottom;
pos = (149,0);
},
{
name = ogonek;
pos = (200,0);
}
);
shapes = (
{
closed = 1;
nodes = (
(255,568,l),
(255,750,l),
(41,750,l),
(41,568,l)
);
},
{
closed = 1;
nodes = (
(252,0,l),
(252,494,l),
(44,494,l),
(44,0,l)
);
}
);
};
layerId = "4121B50C-FD42-45C5-8FBE-41E76D98F91E";
shapes = (
{
closed = 1;
nodes = (
(216,-10,o),
(252,32,o),
(252,105,cs),
(252,386,ls),
(252,459,o),
(215,504,o),
(148,504,cs),
(81,504,o),
(44,459,o),
(44,386,cs),
(44,105,ls),
(44,32,o),
(81,-10,o),
(148,-10,cs)
);
},
{
closed = 1;
nodes = (
(211,542,o),
(261,592,o),
(261,654,cs),
(261,718,o),
(211,768,o),
(148,768,cs),
(85,768,o),
(35,718,o),
(35,654,cs),
(35,592,o),
(85,542,o),
(148,542,cs)
);
}
);
width = 295;
},
{
anchors = (
{
name = bottom;
pos = (68,0);
},
{
name = ogonek;
pos = (89,0);
}
);
background = {
anchors = (
{
name = bottom;
pos = (67,0);
},
{
name = ogonek;
pos = (88,0);
}
);
shapes = (
{
closed = 1;
nodes = (
(198,619,l),
(208,682,l),
(144,682,l),
(134,619,l)
);
},
{
closed = 1;
nodes = (
(88,0,l),
(165,484,l),
(123,484,l),
(46,0,l)
);
}
);
};
layerId = "D8D4984A-F5A5-43C0-BF2B-5708C10C5E92";
shapes = (
{
closed = 1;
nodes = (
(81,-6,o),
(89,1,o),
(91,15,cs),
(162,465,ls),
(165,481,o),
(158,490,o),
(145,490,cs),
(131,490,o),
(123,483,o),
(121,469,cs),
(50,19,ls),
(47,3,o),
(54,-6,o),
(67,-6,cs)
);
},
{
closed = 1;
nodes = (
(187,602,o),
(202,617,o),
(202,636,cs),
(202,655,o),
(187,670,o),
(168,670,cs),
(149,670,o),
(134,655,o),
(134,636,cs),
(134,617,o),
(149,602,o),
(168,602,cs)
);
}
);
width = 212;
},
{
anchors = (
{
name = bottom;
pos = (108,0);
},
{
name = ogonek;
pos = (160,0);
}
);
background = {
anchors = (
{
name = bottom;
pos = (108,0);
},
{
name = ogonek;
pos = (160,0);
}
);
shapes = (
{
closed = 1;
nodes = (
(305,568,l),
(334,750,l),
(120,750,l),
(91,568,l)
);
},
{
closed = 1;
nodes = (
(212,0,l),
(290,494,l),
(82,494,l),
(4,0,l)
);
}
);
};
layerId = "C92D7C27-2246-4784-91DF-7F4E0C5E615D";
shapes = (
{
closed = 1;
nodes = (
(175,-10,o),
(215,25,o),
(226,93,cs),
(272,383,ls),
(284,459,o),
(252,504,o),
(187,504,cs),
(118,504,o),
(78,469,o),
(67,401,cs),
(21,111,ls),
(9,35,o),
(41,-10,o),
(106,-10,cs)
);
},
{
closed = 1;
nodes = (
(275,542,o),
(325,592,o),
(325,654,cs),
(325,718,o),
(275,768,o),
(212,768,cs),
(149,768,o),
(99,718,o),
(99,654,cs),
(99,592,o),
(149,542,o),
(212,542,cs)
);
}
);
width = 295;
},
{
anchors = (
{
name = bottom;
pos = (117,0);
},
{
name = ogonek;
pos = (154,0);
}
);
background = {
anchors = (
{
name = bottom;
pos = (117,0);
},
{
name = ogonek;
pos = (154,0);
}
);
shapes = (
{
closed = 1;
nodes = (
(187,594,l),
(187,716,l),
(47,716,l),
(47,594,l)
);
},
{
closed = 1;
nodes = (
(180,0,l),
(180,489,l),
(55,489,l),
(55,0,l)
);
}
);
};
layerId = "18203F29-5161-4D9B-8394-C173CC5E27D4";
shapes = (
{
closed = 1;
nodes = (
(155,-7,o),
(177,18,o),
(177,61,cs),
(177,428,ls),
(177,472,o),
(154,496,o),
(117,496,cs),
(80,496,o),
(58,472,o),
(58,428,cs),
(58,61,ls),
(58,18,o),
(80,-7,o),
(117,-7,cs)
);
},
{
closed = 1;
nodes = (
(153,568,o),
(184,596,o),
(184,635,cs),
(184,674,o),
(153,702,o),
(117,702,cs),
(81,702,o),
(50,674,o),
(50,635,cs),
(50,596,o),
(81,568,o),
(117,568,cs)
);
}
);
width = 234;
},
{
anchors = (
{
name = bottom;
pos = (89,0);
},
{
name = ogonek;
pos = (125,0);
}
);
background = {
anchors = (
{
name = bottom;
pos = (89,0);
},
{
name = ogonek;
pos = (125,0);
}
);
shapes = (
{
closed = 1;
nodes = (
(253,594,l),
(273,716,l),
(134,716,l),
(114,594,l)
);
},
{
closed = 1;
nodes = (
(151,0,l),
(229,489,l),
(104,489,l),
(26,0,l)
);
}
);
};
layerId = "8FF16B21-C988-4EC9-A448-39B9B4A4BD78";
shapes = (
{
closed = 1;
nodes = (
(129,-8,o),
(152,13,o),
(159,54,cs),
(218,424,ls),
(225,470,o),
(206,497,o),
(167,497,cs),
(125,497,o),
(102,476,o),
(95,435,cs),
(36,65,ls),
(29,19,o),
(48,-8,o),
(87,-8,cs)
);
},
{
closed = 1;
nodes = (
(229,565,o),
(260,596,o),
(260,635,cs),
(260,674,o),
(229,705,o),
(190,705,cs),
(151,705,o),
(120,674,o),
(120,635,cs),
(120,596,o),
(151,565,o),
(190,565,cs)
);
}
);
width = 255;
}
);
unicode = 105;
}
{
color = 6;
glyphname = n;
kernLeft = n;
kernRight = n;
layers = (
{
anchors = (
{
name = bottom;
pos = (267,0);
},
{
name = top;
pos = (267,484);
}
);
background = {
anchors = (
{
name = bottom;
pos = (267,0);
},
{
name = top;
pos = (267,484);
}
);
shapes = (
{
closed = 1;
nodes = (
(117,0,l),
(117,278,ls),
(117,384,o),
(184,453,o),
(287,453,cs),
(379,453,o),
(418,406,o),
(418,304,cs),
(418,0,l),
(460,0,l),
(460,308,ls),
(460,432,o),
(403,492,o),
(287,492,cs),
(202,492,o),
(131,450,o),
(105,366,c),
(116,366,l),
(116,484,l),
(75,484,l),
(75,0,l)
);
}
);
};
layerId = "F1F93986-3ED8-4AAE-84C4-CA3EEECDDFA0";
shapes = (
{
closed = 1;
nodes = (
(110,-6,o),
(117,2,o),
(117,16,cs),
(117,278,ls),
(117,384,o),
(184,453,o),
(287,453,cs),
(379,453,o),
(418,406,o),
(418,304,cs),
(418,16,ls),
(418,2,o),
(426,-6,o),
(439,-6,cs),
(452,-6,o),
(460,2,o),
(460,16,cs),
(460,308,ls),
(460,432,o),
(403,492,o),
(287,492,cs),
(202,492,o),
(131,450,o),
(105,366,c),
(116,366,l),
(116,468,ls),
(116,482,o),
(109,490,o),
(96,490,cs),
(83,490,o),
(75,482,o),
(75,468,cs),
(75,16,ls),
(75,2,o),
(83,-6,o),
(96,-6,cs)
);
}
);
width = 543;
},
{
anchors = (
{
name = bottom;
pos = (311,0);
},
{
name = top;
pos = (311,484);
}
);
background = {
anchors = (
{
name = bottom;
pos = (311,0);
},
{
name = top;
pos = (311,484);
}
);
shapes = (
{
closed = 1;
nodes = (
(252,0,l),
(252,272,ls),
(252,318,o),
(280,348,o),
(322,348,cs),
(351,348,o),
(368,330,o),
(368,279,cs),
(368,0,l),
(576,0,l),
(576,287,ls),
(576,436,o),
(520,506,o),
(403,506,cs),
(330,506,o),
(269,472,o),
(236,415,c),
(247,415,l),
(247,494,l),
(44,494,l),
(44,0,l)
);
}
);
};
layerId = "4121B50C-FD42-45C5-8FBE-41E76D98F91E";
shapes = (
{
closed = 1;
nodes = (
(216,-10,o),
(252,34,o),
(252,98,cs),
(252,272,ls),
(252,318,o),
(280,348,o),
(322,348,cs),
(351,348,o),
(368,330,o),
(368,279,cs),
(368,98,ls),
(368,34,o),
(405,-10,o),
(472,-10,cs),
(539,-10,o),
(576,34,o),
(576,98,cs),
(576,287,ls),
(576,436,o),
(520,506,o),
(403,506,cs),
(330,506,o),
(269,472,o),
(236,415,c),
(247,365,l),
(247,399,ls),
(247,467,o),
(211,504,o),
(146,504,cs),
(80,504,o),
(44,467,o),
(44,399,cs),
(44,98,ls),
(44,34,o),
(81,-10,o),
(148,-10,cs)
);
}
);
width = 618;
},
{
anchors = (
{
name = bottom;
pos = (234,0);
},
{
name = top;
pos = (306,484);
}
);
background = {
anchors = (
{
name = bottom;
pos = (234,0);
},
{
name = top;
pos = (306,484);
}
);
shapes = (
{
closed = 1;
nodes = (
(79,0,l),
(121,264,ls),
(139,378,o),
(205,453,o),
(320,453,cs),
(407,453,o),
(443,402,o),
(426,296,cs),
(379,0,l),
(421,0,l),
(468,295,ls),
(489,428,o),
(429,492,o),
(321,492,cs),
(226,492,o),
(158,444,o),
(125,364,c),
(136,364,l),
(155,484,l),
(114,484,l),
(37,0,l)
);
}
);
};
layerId = "D8D4984A-F5A5-43C0-BF2B-5708C10C5E92";
shapes = (
{
closed = 1;
nodes = (
(72,-6,o),
(80,1,o),
(82,15,cs),
(121,264,ls),
(139,378,o),
(205,453,o),
(320,453,cs),
(407,453,o),
(443,402,o),
(426,296,cs),
(382,19,ls),
(379,3,o),
(386,-6,o),
(399,-6,cs),
(413,-6,o),
(421,1,o),
(423,13,cs),
(468,295,ls),
(489,428,o),
(429,492,o),
(321,492,cs),
(226,492,o),
(158,444,o),
(125,364,c),
(136,364,l),
(152,465,ls),
(155,481,o),
(148,490,o),
(136,490,cs),
(123,490,o),
(114,483,o),
(112,469,cs),
(41,21,ls),
(38,5,o),
(45,-6,o),
(58,-6,cs)
);
}
);
width = 543;
},
{
anchors = (
{
name = bottom;
pos = (272,0);
},
{
name = top;
pos = (340,484);
}
);
background = {
anchors = (
{
name = bottom;
pos = (272,0);
},
{
name = top;
pos = (340,484);
}
);
shapes = (
{
closed = 1;
nodes = (
(213,0,l),
(254,261,ls),
(263,317,o),
(293,348,o),
(335,348,cs),
(371,348,o),
(380,326,o),
(374,286,cs),
(329,0,l),
(537,0,l),
(583,290,ls),
(607,442,o),
(540,506,o),
(434,506,cs),
(361,506,o),
(302,475,o),
(268,416,c),
(274,416,l),
(286,494,l),
(83,494,l),
(5,0,l)
);
}
);
};
layerId = "C92D7C27-2246-4784-91DF-7F4E0C5E615D";
shapes = (
{
closed = 1;
nodes = (
(177,-8,o),
(217,27,o),
(228,95,cs),
(254,261,ls),
(263,317,o),
(293,348,o),
(335,348,cs),
(371,348,o),
(380,326,o),
(374,286,cs),
(347,113,ls),
(335,37,o),
(367,-8,o),
(432,-8,cs),
(501,-8,o),
(541,27,o),
(552,95,cs),
(583,290,ls),
(607,442,o),
(540,506,o),
(434,506,cs),
(361,506,o),
(302,475,o),
(268,416,c),
(266,366,l),
(271,393,ls),
(285,466,o),
(250,504,o),
(187,504,cs),
(120,504,o),
(80,469,o),
(69,401,cs),
(23,113,ls),
(11,37,o),
(43,-8,o),
(108,-8,cs)
);
}
);
width = 618;
},
{
anchors = (
{
name = bottom;
pos = (294,0);
},
{
name = top;
pos = (294,484);
}
);
background = {
anchors = (
{
name = bottom;
pos = (294,0);
},
{
name = top;
pos = (294,484);
}
);
shapes = (
{
closed = 1;
nodes = (
(190,0,l),
(190,275,ls),
(190,351,o),
(237,401,o),
(310,401,cs),
(370,401,o),
(398,368,o),
(398,292,cs),
(398,0,l),
(523,0,l),
(523,298,ls),
(523,434,o),
(467,499,o),
(350,499,cs),
(271,499,o),
(205,461,o),
(176,391,c),
(187,391,l),
(187,489,l),
(65,489,l),
(65,0,l)
);
}
);
};
layerId = "18203F29-5161-4D9B-8394-C173CC5E27D4";
shapes = (
{
closed = 1;
nodes = (
(171,-8,o),
(190,15,o),
(190,56,cs),
(190,275,ls),
(190,351,o),
(237,401,o),
(310,401,cs),
(370,401,o),
(398,368,o),
(398,292,cs),
(398,56,ls),
(398,15,o),
(421,-8,o),
(461,-8,cs),
(501,-8,o),
(523,15,o),
(523,56,cs),
(523,298,ls),
(523,434,o),
(467,499,o),
(350,499,cs),
(271,499,o),
(205,461,o),
(176,391,c),
(187,366,l),
(187,434,ls),
(187,475,o),
(168,497,o),
(129,497,cs),
(90,497,o),
(65,475,o),
(65,434,cs),
(65,56,ls),
(65,15,o),
(90,-8,o),
(130,-8,cs)
);
}
);
width = 585;
},
{
anchors = (
{
name = bottom;
pos = (255,0);
},
{
name = top;
pos = (325,484);
}
);
background = {
anchors = (
{
name = bottom;
pos = (255,0);
},
{
name = top;
pos = (325,484);
}
);
shapes = (
{
closed = 1;
nodes = (
(148,0,l),
(190,263,ls),
(203,348,o),
(251,401,o),
(330,401,cs),
(391,401,o),
(414,364,o),
(402,291,cs),
(356,0,l),
(481,0,l),
(527,293,ls),
(549,435,o),
(487,499,o),
(380,499,cs),
(296,499,o),
(232,460,o),
(199,390,c),
(207,390,l),
(223,489,l),
(101,489,l),
(23,0,l)
);
}
);
};
layerId = "8FF16B21-C988-4EC9-A448-39B9B4A4BD78";
shapes = (
{
closed = 1;
nodes = (
(127,-7,o),
(151,14,o),
(157,55,cs),
(190,263,ls),
(203,348,o),
(251,401,o),
(330,401,cs),
(391,401,o),
(414,364,o),
(402,291,cs),
(366,66,ls),
(359,20,o),
(379,-7,o),
(418,-7,cs),
(459,-7,o),
(484,14,o),
(490,55,cs),
(527,293,ls),
(549,435,o),
(487,499,o),
(380,499,cs),
(296,499,o),
(232,460,o),
(199,390,c),
(203,365,l),
(213,429,ls),
(220,474,o),
(201,497,o),
(164,497,cs),
(124,497,o),
(98,476,o),
(92,435,cs),
(34,66,ls),
(27,20,o),
(46,-7,o),
(85,-7,cs)
);
}
);
width = 582;
}
);
unicode = 110;
userData = {
anchors = (
);
b = {
};
com.typemytype.robofont.layerData = {
b = {
anchors = (
);
components = (
);
contours = (
);
lib = {
};
name = n;
unicodes = (
);
width = 1152;
};
};
components = (
);
contours = {
};
lib = {
};
name = n;
points = {
};
segmentType = curve;
unicodes = (
);
width = 1195;
x = 137;
y = 113;
};
}
{
color = 6;
glyphname = p;
kernLeft = n;
kernRight = o;
layers = (
{
anchors = (
{
name = bottom;
pos = (272,0);
},
{
name = top;
pos = (272,484);
}
);
background = {
anchors = (
{
name = bottom;
pos = (272,0);
},
{
name = top;
pos = (272,484);
}
);
shapes = (
{
closed = 1;
nodes = (
(117,-180,l),
(117,126,l),
(106,126,l),
(128,44,o),
(197,-8,o),
(290,-8,cs),
(422,-8,o),
(505,89,o),
(505,242,cs),
(505,395,o),
(421,492,o),
(290,492,cs),
(197,492,o),
(128,440,o),
(106,358,c),
(117,358,l),
(117,484,l),
(75,484,l),
(75,-180,l)
);
},
{
closed = 1;
nodes = (
(183,31,o),
(116,109,o),
(116,242,cs),
(116,375,o),
(183,453,o),
(289,453,cs),
(395,453,o),
(462,375,o),
(462,242,cs),
(462,109,o),
(395,31,o),
(289,31,cs)
);
}
);
};
layerId = "F1F93986-3ED8-4AAE-84C4-CA3EEECDDFA0";
shapes = (
{
closed = 1;
nodes = (
(109,-186,o),
(117,-178,o),
(117,-164,cs),
(117,126,l),
(106,126,l),
(128,44,o),
(197,-8,o),
(290,-8,cs),
(422,-8,o),
(505,89,o),
(505,242,cs),
(505,395,o),
(421,492,o),
(290,492,cs),
(197,492,o),
(128,440,o),
(106,358,c),
(117,358,l),
(117,468,ls),
(117,482,o),
(109,490,o),
(96,490,cs),
(83,490,o),
(75,482,o),
(75,468,cs),
(75,-164,ls),
(75,-178,o),
(83,-186,o),
(96,-186,cs)
);
},
{
closed = 1;
nodes = (
(183,31,o),
(116,109,o),
(116,242,cs),
(116,375,o),
(183,453,o),
(289,453,cs),
(395,453,o),
(462,375,o),
(462,242,cs),
(462,109,o),
(395,31,o),
(289,31,cs)
);
}
);
width = 560;
},
{
anchors = (
{
name = bottom;
pos = (315,0);
},
{
name = top;
pos = (315,484);
}
);
background = {
anchors = (
{
name = bottom;
pos = (315,0);
},
{
name = top;
pos = (315,484);
}
);
shapes = (
{
closed = 1;
nodes = (
(252,-180,l),
(252,73,l),
(240,73,l),
(260,24,o),
(324,-12,o),
(393,-12,cs),
(519,-12,o),
(608,86,o),
(608,247,cs),
(608,408,o),
(518,506,o),
(393,506,cs),
(321,506,o),
(256,468,o),
(238,413,c),
(247,413,l),
(247,494,l),
(44,494,l),
(44,-180,l)
);
},
{
closed = 1;
nodes = (
(281,140,o),
(249,168,o),
(249,247,cs),
(249,326,o),
(281,354,o),
(324,354,cs),
(367,354,o),
(399,326,o),
(399,247,cs),
(399,168,o),
(367,140,o),
(324,140,cs)
);
}
);
};
layerId = "4121B50C-FD42-45C5-8FBE-41E76D98F91E";
shapes = (
{
closed = 1;
nodes = (
(215,-190,o),
(252,-143,o),
(252,-75,cs),
(252,73,l),
(240,73,l),
(260,24,o),
(324,-12,o),
(393,-12,cs),
(519,-12,o),
(608,86,o),
(608,247,cs),
(608,408,o),
(518,506,o),
(393,506,cs),
(321,506,o),
(256,468,o),
(238,413,c),
(249,353,l),
(249,399,ls),
(249,467,o),
(213,504,o),
(146,504,cs),
(80,504,o),
(44,467,o),
(44,399,cs),
(44,-75,ls),
(44,-143,o),
(81,-190,o),
(148,-190,cs)
);
},
{
closed = 1;
nodes = (
(281,140,o),
(249,168,o),
(249,247,cs),
(249,326,o),
(281,354,o),
(324,354,cs),
(367,354,o),
(399,326,o),
(399,247,cs),
(399,168,o),
(367,140,o),
(324,140,cs)
);
}
);
width = 638;
},
{
anchors = (
{
name = bottom;
pos = (229,0);
},
{
name = top;
pos = (306,484);
}
);
background = {
anchors = (
{
name = bottom;
pos = (228,0);
},
{
name = top;
pos = (305,484);
}
);
shapes = (
{
closed = 1;
nodes = (
(45,-180,l),
(93,122,l),
(86,122,l),
(109,33,o),
(179,-8,o),
(260,-8,cs),
(417,-8,o),
(502,130,o),
(502,284,cs),
(502,414,o),
(427,492,o),
(312,492,cs),
(222,492,o),
(155,445,o),
(121,371,c),
(132,371,l),
(150,484,l),
(108,484,l),
(3,-180,l)
);
},
{
closed = 1;
nodes = (
(166,31,o),
(109,88,o),
(109,198,cs),
(109,337,o),
(178,453,o),
(306,453,cs),
(402,453,o),
(459,396,o),
(459,286,cs),
(459,147,o),
(390,31,o),
(262,31,cs)
);
}
);
};
layerId = "D8D4984A-F5A5-43C0-BF2B-5708C10C5E92";
shapes = (
{
closed = 1;
nodes = (
(37,-186,o),
(45,-179,o),
(47,-165,cs),
(93,122,l),
(86,122,l),
(109,33,o),
(179,-8,o),
(260,-8,cs),
(418,-8,o),
(502,130,o),
(502,286,cs),
(502,413,o),
(426,492,o),
(312,492,cs),
(222,492,o),
(155,445,o),
(121,371,c),
(132,371,l),
(147,465,ls),
(150,481,o),
(143,490,o),
(130,490,cs),
(116,490,o),
(108,483,o),
(106,469,cs),
(6,-161,ls),
(3,-177,o),
(10,-186,o),
(23,-186,cs)
);
},
{
closed = 1;
nodes = (
(166,31,o),
(109,88,o),
(109,198,cs),
(109,337,o),
(178,453,o),
(306,453,cs),
(402,453,o),
(459,396,o),
(459,286,cs),
(459,147,o),
(390,31,o),
(262,31,cs)
);
}
);
width = 553;
},
{
anchors = (
{
name = bottom;
pos = (276,0);
},
{
name = top;
pos = (352,484);
}
);
background = {
anchors = (
{
name = bottom;
pos = (276,0);
},
{
name = top;
pos = (352,484);
}
);
shapes = (
{
closed = 1;
nodes = (
(184,-180,l),
(224,71,l),
(214,72,l),
(237,19,o),
(291,-12,o),
(359,-12,cs),
(507,-12,o),
(610,113,o),
(610,290,cs),
(610,422,o),
(539,506,o),
(429,506,cs),
(366,506,o),
(308,476,o),
(271,424,c),
(275,424,l),
(286,494,l),
(83,494,l),
(-24,-180,l)
);
},
{
closed = 1;
nodes = (
(274,140,o),
(251,168,o),
(251,216,cs),
(251,298,o),
(286,354,o),
(340,354,cs),
(378,354,o),
(401,326,o),
(401,278,cs),
(401,195,o),
(366,140,o),
(312,140,cs)
);
}
);
};
layerId = "C92D7C27-2246-4784-91DF-7F4E0C5E615D";
shapes = (
{
closed = 1;
nodes = (
(148,-190,o),
(188,-155,o),
(199,-87,cs),
(224,71,l),
(214,72,l),
(237,19,o),
(291,-12,o),
(359,-12,cs),
(507,-12,o),
(610,113,o),
(610,290,cs),
(610,422,o),
(539,506,o),
(429,506,cs),
(366,506,o),
(306,476,o),
(269,424,c),
(266,364,l),
(269,382,ls),
(282,458,o),
(251,504,o),
(186,504,cs),
(118,504,o),
(79,469,o),
(68,401,cs),
(-6,-69,ls),
(-18,-145,o),
(14,-190,o),
(79,-190,cs)
);
},
{
closed = 1;
nodes = (
(274,140,o),
(251,168,o),
(251,216,cs),
(251,298,o),
(286,354,o),
(340,354,cs),
(378,354,o),
(401,326,o),
(401,278,cs),
(401,195,o),
(366,140,o),
(312,140,cs)
);
}
);
width = 632;
},
{
anchors = (
{
name = bottom;
pos = (293,0);
},
{
name = top;
pos = (293,484);
}
);
background = {
anchors = (
{
name = bottom;
pos = (293,0);
},
{
name = top;
pos = (293,484);
}
);
shapes = (
{
closed = 1;
nodes = (
(184,-180,l),
(184,100,l),
(172,100,l),
(193,34,o),
(260,-10,o),
(341,-10,cs),
(470,-10,o),
(556,88,o),
(556,245,cs),
(556,402,o),
(469,499,o),
(341,499,cs),
(258,499,o),
(191,454,o),
(171,386,c),
(181,386,l),
(181,489,l),
(59,489,l),
(59,-180,l)
);
},
{
closed = 1;
nodes = (
(231,85,o),
(182,139,o),
(182,245,cs),
(182,351,o),
(231,404,o),
(306,404,cs),
(380,404,o),
(430,351,o),
(430,245,cs),
(430,139,o),
(380,85,o),
(306,85,cs)
);
}
);
};
layerId = "18203F29-5161-4D9B-8394-C173CC5E27D4";
shapes = (
{
closed = 1;
nodes = (
(164,-188,o),
(184,-166,o),
(184,-125,cs),
(184,100,l),
(172,100,l),
(193,34,o),
(260,-10,o),
(341,-10,cs),
(470,-10,o),
(549,88,o),
(549,245,cs),
(549,402,o),
(469,499,o),
(341,499,cs),
(258,499,o),
(191,454,o),
(171,386,c),
(182,356,l),
(182,434,ls),
(182,475,o),
(163,497,o),
(123,497,cs),
(84,497,o),
(65,475,o),
(65,434,cs),
(65,-125,ls),
(65,-166,o),
(84,-188,o),
(124,-188,cs)
);
},
{
closed = 1;
nodes = (
(231,85,o),
(182,139,o),
(182,245,cs),
(182,351,o),
(231,404,o),
(306,404,cs),
(380,404,o),
(430,351,o),
(430,245,cs),
(430,139,o),
(380,85,o),
(306,85,cs)
);
}
);
width = 595;
},
{
anchors = (
{
name = bottom;
pos = (250,0);
},
{
name = top;
pos = (326,484);
}
);
background = {
anchors = (
{
name = bottom;
pos = (250,0);
},
{
name = top;
pos = (326,484);
}
);
shapes = (
{
closed = 1;
nodes = (
(113,-180,l),
(157,97,l),
(148,97,l),
(171,26,o),
(233,-10,o),
(308,-10,cs),
(461,-10,o),
(554,122,o),
(554,288,cs),
(554,418,o),
(481,499,o),
(369,499,cs),
(292,499,o),
(230,461,o),
(194,397,c),
(202,397,l),
(216,489,l),
(94,489,l),
(-12,-180,l)
);
},
{
closed = 1;
nodes = (
(218,85,o),
(178,128,o),
(178,207,cs),
(178,318,o),
(230,404,o),
(321,404,cs),
(388,404,o),
(428,361,o),
(428,282,cs),
(428,171,o),
(376,85,o),
(285,85,cs)
);
}
);
};
layerId = "8FF16B21-C988-4EC9-A448-39B9B4A4BD78";
shapes = (
{
closed = 1;
nodes = (
(92,-188,o),
(114,-170,o),
(121,-129,cs),
(157,97,l),
(148,97,l),
(171,26,o),
(233,-10,o),
(308,-10,cs),
(461,-10,o),
(554,122,o),
(554,288,cs),
(554,418,o),
(481,499,o),
(369,499,cs),
(293,499,o),
(232,463,o),
(195,398,c),
(197,368,l),
(206,424,ls),
(213,470,o),
(196,497,o),
(157,497,cs),
(116,497,o),
(92,475,o),
(85,433,cs),
(-2,-116,ls),
(-9,-162,o),
(11,-188,o),
(50,-188,cs)
);
},
{
closed = 1;
nodes = (
(218,85,o),
(178,128,o),
(178,207,cs),
(178,318,o),
(230,404,o),
(321,404,cs),
(388,404,o),
(428,361,o),
(428,282,cs),
(428,171,o),
(376,85,o),
(285,85,cs)
);
}
);
width = 590;
}
);
unicode = 112;
userData = {
anchors = (
);
b = {
};
com.typemytype.robofont.layerData = {
b = {
anchors = (
);
components = (
);
contours = (
);
lib = {
};
name = p;
unicodes = (
);
width = 1181;
};
};
components = (
);
contours = (
);
lib = {
};
name = p;
unicodes = (
);
width = 1207;
};
}
{
color = 6;
glyphname = q;
kernLeft = o;
kernRight = q;
layers = (
{
anchors = (
{
name = bottom;
pos = (282,0);
},
{
name = top;
pos = (282,484);
}
);
background = {
anchors = (
{
name = bottom;
pos = (282,0);
},
{
name = top;
pos = (282,484);
}
);
shapes = (
{
closed = 1;
nodes = (
(483,-180,l),
(483,484,l),
(441,484,l),
(441,358,l),
(452,358,l),
(430,440,o),
(361,492,o),
(268,492,cs),
(137,492,o),
(53,395,o),
(53,242,cs),
(53,89,o),
(136,-8,o),
(268,-8,cs),
(361,-8,o),
(430,44,o),
(452,126,c),
(441,126,l),
(441,-180,l)
);
},
{
closed = 1;
nodes = (
(163,31,o),
(96,109,o),
(96,242,cs),
(96,375,o),
(163,453,o),
(269,453,cs),
(375,453,o),
(442,375,o),
(442,242,cs),
(442,109,o),
(375,31,o),
(269,31,cs)
);
}
);
};
layerId = "F1F93986-3ED8-4AAE-84C4-CA3EEECDDFA0";
shapes = (
{
closed = 1;
nodes = (
(475,-186,o),
(483,-178,o),
(483,-164,cs),
(483,468,ls),
(483,482,o),
(475,490,o),
(462,490,cs),
(449,490,o),
(441,482,o),
(441,468,cs),
(441,358,l),
(452,358,l),
(430,440,o),
(361,492,o),
(268,492,cs),
(137,492,o),
(53,395,o),
(53,242,cs),
(53,89,o),
(136,-8,o),
(268,-8,cs),
(361,-8,o),
(430,44,o),
(452,126,c),
(441,126,l),
(441,-164,ls),
(441,-178,o),
(449,-186,o),
(462,-186,cs)
);
},
{
closed = 1;
nodes = (
(163,31,o),
(96,109,o),
(96,242,cs),
(96,375,o),
(163,453,o),
(269,453,cs),
(375,453,o),
(442,375,o),
(442,242,cs),
(442,109,o),
(375,31,o),
(269,31,cs)
);
}
);
width = 568;
},
{
anchors = (
{
name = bottom;
pos = (320,0);
},
{
name = top;
pos = (320,484);
}
);
background = {
anchors = (
{
name = bottom;
pos = (320,0);
},
{
name = top;
pos = (320,484);
}
);
shapes = (
{
closed = 1;
nodes = (
(588,-180,l),
(588,494,l),
(385,494,l),
(385,413,l),
(394,413,l),
(376,468,o),
(311,506,o),
(239,506,cs),
(114,506,o),
(24,408,o),
(24,247,cs),
(24,86,o),
(113,-12,o),
(239,-12,cs),
(308,-12,o),
(372,24,o),
(392,73,c),
(380,73,l),
(380,-180,l)
);
},
{
closed = 1;
nodes = (
(265,140,o),
(233,168,o),
(233,247,cs),
(233,326,o),
(265,354,o),
(308,354,cs),
(351,354,o),
(383,326,o),
(383,247,cs),
(383,168,o),
(351,140,o),
(308,140,cs)
);
}
);
};
layerId = "4121B50C-FD42-45C5-8FBE-41E76D98F91E";
shapes = (
{
closed = 1;
nodes = (
(551,-190,o),
(588,-153,o),
(588,-85,cs),
(588,399,ls),
(588,467,o),
(552,504,o),
(486,504,cs),
(419,504,o),
(383,467,o),
(383,399,cs),
(383,353,l),
(394,413,l),
(376,468,o),
(311,506,o),
(239,506,cs),
(114,506,o),
(24,408,o),
(24,247,cs),
(24,86,o),
(113,-12,o),
(239,-12,cs),
(308,-12,o),
(372,24,o),
(392,73,c),
(380,73,l),
(380,-85,ls),
(380,-153,o),
(417,-190,o),
(484,-190,cs)
);
},
{
closed = 1;
nodes = (
(265,140,o),
(233,168,o),
(233,247,cs),
(233,326,o),
(265,354,o),
(308,354,cs),
(351,354,o),
(383,326,o),
(383,247,cs),
(383,168,o),
(351,140,o),
(308,140,cs)
);
}
);
width = 632;
},
{
anchors = (
{
name = bottom;
pos = (243,0);
},
{
name = top;
pos = (320,484);
}
);
background = {
anchors = (
{
name = bottom;
pos = (243,0);
},
{
name = top;
pos = (320,484);
}
);
shapes = (
{
closed = 1;
nodes = (
(416,-180,l),
(521,484,l),
(479,484,l),
(460,362,l),
(467,362,l),
(444,451,o),
(374,492,o),
(293,492,cs),
(135,492,o),
(51,354,o),
(51,198,cs),
(51,71,o),
(127,-8,o),
(241,-8,cs),
(331,-8,o),
(398,39,o),
(432,113,c),
(420,113,l),
(374,-180,l)
);
},
{
closed = 1;
nodes = (
(151,31,o),
(94,88,o),
(94,198,cs),
(94,337,o),
(163,453,o),
(291,453,cs),
(387,453,o),
(444,396,o),
(444,286,cs),
(444,147,o),
(375,31,o),
(247,31,cs)
);
}
);
};
layerId = "D8D4984A-F5A5-43C0-BF2B-5708C10C5E92";
shapes = (
{
closed = 1;
nodes = (
(408,-186,o),
(416,-179,o),
(418,-165,cs),
(518,465,ls),
(521,481,o),
(514,490,o),
(501,490,cs),
(487,490,o),
(479,483,o),
(477,469,cs),
(460,362,l),
(467,362,l),
(444,451,o),
(374,492,o),
(293,492,cs),
(135,492,o),
(51,354,o),
(51,198,cs),
(51,71,o),
(127,-8,o),
(241,-8,cs),
(331,-8,o),
(398,39,o),
(432,113,c),
(420,113,l),
(377,-161,ls),
(375,-177,o),
(381,-186,o),
(394,-186,cs)
);
},
{
closed = 1;
nodes = (
(151,31,o),
(94,88,o),
(94,198,cs),
(94,337,o),
(163,453,o),
(291,453,cs),
(387,453,o),
(444,396,o),
(444,286,cs),
(444,147,o),
(375,31,o),
(247,31,cs)
);
}
);
width = 568;
},
{
anchors = (
{
name = bottom;
pos = (281,0);
},
{
name = top;
pos = (357,484);
}
);
background = {
anchors = (
{
name = bottom;
pos = (281,0);
},
{
name = top;
pos = (357,484);
}
);
shapes = (
{
closed = 1;
nodes = (
(520,-180,l),
(627,494,l),
(424,494,l),
(413,422,l),
(418,422,l),
(395,475,o),
(341,506,o),
(273,506,cs),
(125,506,o),
(22,381,o),
(22,204,cs),
(22,72,o),
(93,-12,o),
(203,-12,cs),
(266,-12,o),
(324,18,o),
(362,71,c),
(352,71,l),
(312,-180,l)
);
},
{
closed = 1;
nodes = (
(254,140,o),
(231,168,o),
(231,216,cs),
(231,299,o),
(266,354,o),
(320,354,cs),
(358,354,o),
(381,326,o),
(381,278,cs),
(381,196,o),
(346,140,o),
(292,140,cs)
);
}
);
};
layerId = "C92D7C27-2246-4784-91DF-7F4E0C5E615D";
shapes = (
{
closed = 1;
nodes = (
(484,-190,o),
(524,-155,o),
(535,-87,cs),
(609,383,ls),
(621,459,o),
(589,504,o),
(524,504,cs),
(456,504,o),
(420,468,o),
(410,400,cs),
(406,372,l),
(418,422,l),
(395,475,o),
(341,506,o),
(273,506,cs),
(125,506,o),
(22,381,o),
(22,204,cs),
(22,72,o),
(93,-12,o),
(203,-12,cs),
(266,-12,o),
(324,18,o),
(362,71,c),
(352,71,l),
(330,-69,ls),
(318,-145,o),
(350,-190,o),
(415,-190,cs)
);
},
{
closed = 1;
nodes = (
(254,140,o),
(231,168,o),
(231,216,cs),
(231,299,o),
(266,354,o),
(320,354,cs),
(358,354,o),
(381,326,o),
(381,278,cs),
(381,196,o),
(346,140,o),
(292,140,cs)
);
}
);
width = 632;
},
{
anchors = (
{
name = bottom;
pos = (295,0);
},
{
name = top;
pos = (295,484);
}
);
background = {
anchors = (
{
name = bottom;
pos = (294,0);
},
{
name = top;
pos = (294,484);
}
);
shapes = (
{
closed = 1;
nodes = (
(529,-180,l),
(529,489,l),
(407,489,l),
(407,386,l),
(416,386,l),
(396,454,o),
(329,499,o),
(247,499,cs),
(119,499,o),
(32,402,o),
(32,245,cs),
(32,88,o),
(118,-10,o),
(247,-10,cs),
(328,-10,o),
(394,34,o),
(415,100,c),
(404,100,l),
(404,-180,l)
);
},
{
closed = 1;
nodes = (
(207,85,o),
(158,139,o),
(158,245,cs),
(158,351,o),
(207,404,o),
(282,404,cs),
(356,404,o),
(406,351,o),
(406,245,cs),
(406,139,o),
(356,85,o),
(282,85,cs)
);
}
);
};
layerId = "18203F29-5161-4D9B-8394-C173CC5E27D4";
shapes = (
{
closed = 1;
nodes = (
(506,-188,o),
(523,-166,o),
(523,-125,cs),
(523,434,ls),
(523,475,o),
(507,497,o),
(467,497,cs),
(427,497,o),
(405,475,o),
(405,434,cs),
(405,356,l),
(416,386,l),
(396,454,o),
(329,499,o),
(247,499,cs),
(119,499,o),
(39,402,o),
(39,245,cs),
(39,88,o),
(118,-10,o),
(247,-10,cs),
(328,-10,o),
(394,34,o),
(415,100,c),
(404,100,l),
(404,-125,ls),
(404,-166,o),
(426,-188,o),
(466,-188,cs)
);
},
{
closed = 1;
nodes = (
(207,85,o),
(158,139,o),
(158,245,cs),
(158,351,o),
(207,404,o),
(282,404,cs),
(356,404,o),
(406,351,o),
(406,245,cs),
(406,139,o),
(356,85,o),
(282,85,cs)
);
}
);
width = 588;
},
{
anchors = (
{
name = bottom;
pos = (263,0);
},
{
name = top;
pos = (340,484);
}
);
background = {
anchors = (
{
name = bottom;
pos = (262,0);
},
{
name = top;
pos = (339,484);
}
);
shapes = (
{
closed = 1;
nodes = (
(468,-180,l),
(574,489,l),
(452,489,l),
(437,394,l),
(441,392,l),
(418,463,o),
(356,499,o),
(281,499,cs),
(129,499,o),
(36,368,o),
(36,201,cs),
(36,72,o),
(109,-10,o),
(220,-10,cs),
(297,-10,o),
(359,29,o),
(395,92,c),
(386,92,l),
(343,-180,l)
);
},
{
closed = 1;
nodes = (
(202,85,o),
(162,128,o),
(162,207,cs),
(162,318,o),
(214,404,o),
(305,404,cs),
(372,404,o),
(412,361,o),
(412,282,cs),
(412,171,o),
(360,85,o),
(269,85,cs)
);
}
);
};
layerId = "8FF16B21-C988-4EC9-A448-39B9B4A4BD78";
shapes = (
{
closed = 1;
nodes = (
(445,-188,o),
(470,-167,o),
(477,-124,cs),
(564,424,ls),
(571,470,o),
(551,497,o),
(512,497,cs),
(471,497,o),
(451,477,o),
(444,436,cs),
(433,367,l),
(441,392,l),
(418,463,o),
(357,499,o),
(284,499,cs),
(129,499,o),
(36,368,o),
(36,201,cs),
(36,72,o),
(109,-10,o),
(221,-10,cs),
(297,-10,o),
(359,29,o),
(395,92,c),
(386,92,l),
(353,-116,ls),
(346,-162,o),
(365,-188,o),
(404,-188,cs)
);
},
{
closed = 1;
nodes = (
(202,85,o),
(162,128,o),
(162,207,cs),
(162,318,o),
(214,404,o),
(305,404,cs),
(372,404,o),
(412,361,o),
(412,282,cs),
(412,172,o),
(360,85,o),
(269,85,cs)
);
}
);
width = 600;
}
);
unicode = 113;
userData = {
anchors = (
);
b = {
};
com.typemytype.robofont.layerData = {
b = {
anchors = (
);
components = (
);
contours = (
);
lib = {
};
name = p;
unicodes = (
);
width = 1181;
};
};
components = (
);
contours = (
);
lib = {
};
name = p;
unicodes = (
);
width = 1207;
};
}
{
color = 6;
glyphname = s;
kernLeft = s;
kernRight = s;
layers = (
{
anchors = (
{
name = bottom;
pos = (236,0);
},
{
name = top;
pos = (246,484);
}
);
background = {
anchors = (
{
name = bottom;
pos = (236,0);
},
{
name = top;
pos = (246,484);
}
);
shapes = (
{
closed = 1;
nodes = (
(346,-8,o),
(417,44,o),
(417,126,cs),
(417,191,o),
(375,228,o),
(288,249,cs),
(205,269,ls),
(143,284,o),
(117,310,o),
(117,356,cs),
(117,415,o),
(164,453,o),
(246,453,cs),
(300,453,o),
(349,433,o),
(388,393,c),
(408,427,l),
(373,468,o),
(313,492,o),
(247,492,cs),
(142,492,o),
(73,437,o),
(73,355,cs),
(73,290,o),
(111,249,o),
(195,229,cs),
(278,209,ls),
(344,193,o),
(373,169,o),
(373,124,cs),
(373,66,o),
(326,31,o),
(239,31,cs),
(181,31,o),
(125,48,o),
(77,90,c),
(57,56,l),
(98,15,o),
(167,-8,o),
(236,-8,cs)
);
}
);
};
layerId = "F1F93986-3ED8-4AAE-84C4-CA3EEECDDFA0";
shapes = (
{
closed = 1;
nodes = (
(346,-8,o),
(411,44,o),
(411,126,cs),
(411,184,o),
(369,230,o),
(288,249,cs),
(205,269,ls),
(143,284,o),
(117,310,o),
(117,356,cs),
(117,415,o),
(164,453,o),
(246,453,cs),
(292,453,o),
(334,439,o),
(367,394,cs),
(386,367,o),
(413,398,o),
(397,419,cs),
(362,466,o),
(305,492,o),
(247,492,cs),
(142,492,o),
(73,437,o),
(73,355,cs),
(73,290,o),
(111,249,o),
(195,229,cs),
(278,209,ls),
(344,193,o),
(367,162,o),
(367,124,cs),
(367,66,o),
(326,31,o),
(239,31,cs),
(193,31,o),
(138,48,o),
(96,100,cs),
(77,124,o),
(45,99,o),
(64,75,cs),
(109,18,o),
(180,-8,o),
(236,-8,cs)
);
}
);
width = 469;
},
{
anchors = (
{
name = bottom;
pos = (256,0);
},
{
name = top;
pos = (264,484);
}
);
background = {
anchors = (
{
name = bottom;
pos = (256,0);
},
{
name = top;
pos = (264,484);
}
);
shapes = (
{
closed = 1;
nodes = (
(397,-12,o),
(492,52,o),
(492,166,cs),
(492,244,o),
(443,290,o),
(358,303,cs),
(241,321,ls),
(224,324,o),
(215,332,o),
(215,342,cs),
(215,356,o),
(229,368,o),
(278,368,cs),
(322,368,o),
(390,348,o),
(429,325,c),
(478,455,l),
(422,492,o),
(346,506,o),
(274,506,cs),
(133,506,o),
(33,438,o),
(33,331,cs),
(33,253,o),
(82,205,o),
(165,192,cs),
(282,174,ls),
(298,172,o),
(310,166,o),
(310,152,cs),
(310,137,o),
(296,126,o),
(255,126,cs),
(190,126,o),
(117,147,o),
(67,172,c),
(22,39,l),
(77,7,o),
(159,-12,o),
(255,-12,cs)
);
}
);
};
layerId = "4121B50C-FD42-45C5-8FBE-41E76D98F91E";
shapes = (
{
closed = 1;
nodes = (
(401,-12,o),
(490,49,o),
(490,156,cs),
(490,234,o),
(443,278,o),
(358,296,cs),
(252,318,ls),
(235,322,o),
(226,334,o),
(226,348,cs),
(226,363,o),
(240,380,o),
(278,380,cs),
(313,380,o),
(334,359,o),
(373,334,cs),
(441,291,o),
(514,387,o),
(450,449,cs),
(400,498,o),
(340,506,o),
(268,506,cs),
(131,506,o),
(22,445,o),
(22,345,cs),
(22,267,o),
(82,221,o),
(165,199,cs),
(275,170,ls),
(291,166,o),
(303,157,o),
(303,143,cs),
(303,128,o),
(290,111,o),
(253,111,cs),
(214,111,o),
(186,128,o),
(139,163,cs),
(64,216,o),
(-18,110,o),
(61,41,cs),
(108,0,o),
(186,-12,o),
(260,-12,cs)
);
}
);
width = 512;
},
{
anchors = (
{
name = bottom;
pos = (200,0);
},
{
name = top;
pos = (261,484);
}
);
background = {
anchors = (
{
name = bottom;
pos = (200,0);
},
{
name = top;
pos = (261,484);
}
);
shapes = (
{
closed = 1;
nodes = (
(319,-8,o),
(391,45,o),
(391,131,cs),
(391,190,o),
(351,227,o),
(289,244,cs),
(192,270,ls),
(144,283,o),
(121,312,o),
(121,351,cs),
(121,414,o),
(175,453,o),
(257,453,cs),
(317,453,o),
(364,434,o),
(400,394,c),
(421,426,l),
(390,466,o),
(326,492,o),
(258,492,cs),
(151,492,o),
(77,434,o),
(77,350,cs),
(77,292,o),
(116,249,o),
(176,233,cs),
(273,207,ls),
(319,195,o),
(347,168,o),
(347,128,cs),
(347,65,o),
(296,31,o),
(216,31,cs),
(154,31,o),
(103,46,o),
(56,86,c),
(33,53,l),
(71,16,o),
(138,-8,o),
(213,-8,cs)
);
}
);
};
layerId = "D8D4984A-F5A5-43C0-BF2B-5708C10C5E92";
shapes = (
{
closed = 1;
nodes = (
(319,-8,o),
(391,45,o),
(391,131,cs),
(391,190,o),
(351,227,o),
(289,244,cs),
(192,270,ls),
(144,283,o),
(121,312,o),
(121,351,cs),
(121,414,o),
(175,453,o),
(257,453,cs),
(308,453,o),
(350,439,o),
(384,410,cs),
(410,388,o),
(431,419,o),
(407,441,cs),
(374,472,o),
(317,492,o),
(258,492,cs),
(151,492,o),
(77,434,o),
(77,350,cs),
(77,292,o),
(116,249,o),
(176,233,cs),
(273,207,ls),
(319,195,o),
(347,168,o),
(347,128,cs),
(347,65,o),
(296,31,o),
(216,31,cs),
(162,31,o),
(115,43,o),
(74,72,cs),
(45,93,o),
(26,58,o),
(49,40,cs),
(89,10,o),
(148,-8,o),
(213,-8,cs)
);
}
);
width = 468;
},
{
anchors = (
{
name = bottom;
pos = (228,0);
},
{
name = top;
pos = (284,484);
}
);
background = {
anchors = (
{
name = bottom;
pos = (228,0);
},
{
name = top;
pos = (284,484);
}
);
shapes = (
{
closed = 1;
nodes = (
(377,-12,o),
(473,51,o),
(473,171,cs),
(473,242,o),
(428,291,o),
(329,305,cs),
(242,317,ls),
(223,320,o),
(217,327,o),
(217,336,cs),
(217,354,o),
(235,368,o),
(284,368,cs),
(329,368,o),
(386,356,o),
(434,329,c),
(487,457,l),
(430,492,o),
(354,506,o),
(295,506,cs),
(119,506,o),
(35,417,o),
(35,323,cs),
(35,252,o),
(83,202,o),
(171,190,cs),
(258,178,ls),
(284,174,o),
(291,169,o),
(291,156,cs),
(291,141,o),
(275,126,o),
(229,126,cs),
(173,126,o),
(100,147,o),
(51,176,c),
(-4,44,l),
(55,6,o),
(141,-12,o),
(231,-12,cs)
);
}
);
};
layerId = "C92D7C27-2246-4784-91DF-7F4E0C5E615D";
shapes = (
{
closed = 1;
nodes = (
(377,-12,o),
(473,51,o),
(473,171,cs),
(473,242,o),
(428,291,o),
(329,305,cs),
(242,317,ls),
(223,320,o),
(217,327,o),
(217,336,cs),
(217,354,o),
(235,368,o),
(284,368,cs),
(313,368,o),
(350,361,o),
(380,352,cs),
(477,323,o),
(525,454,o),
(420,487,cs),
(378,500,o),
(332,506,o),
(295,506,cs),
(119,506,o),
(35,417,o),
(35,323,cs),
(35,252,o),
(83,202,o),
(171,190,cs),
(258,178,ls),
(284,174,o),
(291,169,o),
(291,156,cs),
(291,141,o),
(275,126,o),
(229,126,cs),
(191,126,o),
(148,135,o),
(107,150,cs),
(11,185,o),
(-38,48,o),
(66,12,cs),
(108,-2,o),
(170,-12,o),
(231,-12,cs)
);
}
);
width = 501;
},
{
anchors = (
{
name = bottom;
pos = (235,0);
},
{
name = top;
pos = (244,484);
}
);
background = {
anchors = (
{
name = bottom;
pos = (235,0);
},
{
name = top;
pos = (244,484);
}
);
shapes = (
{
closed = 1;
nodes = (
(361,-10,o),
(444,48,o),
(444,146,cs),
(444,218,o),
(398,260,o),
(312,276,cs),
(212,295,ls),
(173,302,o),
(155,321,o),
(155,349,cs),
(155,386,o),
(186,411,o),
(251,411,cs),
(300,411,o),
(359,391,o),
(398,359,c),
(432,441,l),
(387,480,o),
(319,499,o),
(250,499,cs),
(127,499,o),
(42,438,o),
(42,343,cs),
(42,272,o),
(86,227,o),
(169,211,cs),
(269,192,ls),
(310,184,o),
(331,168,o),
(331,138,cs),
(331,102,o),
(300,78,o),
(236,78,cs),
(175,78,o),
(110,97,o),
(61,130,c),
(29,48,l),
(77,11,o),
(152,-10,o),
(235,-10,cs)
);
}
);
};
layerId = "18203F29-5161-4D9B-8394-C173CC5E27D4";
shapes = (
{
closed = 1;
nodes = (
(361,-15,o),
(444,48,o),
(444,142,cs),
(444,204,o),
(398,263,o),
(312,279,cs),
(212,298,ls),
(173,305,o),
(161,328,o),
(161,349,cs),
(161,386,o),
(197,409,o),
(251,409,cs),
(277,409,o),
(309,401,o),
(341,369,cs),
(386,324,o),
(445,390,o),
(408,433,cs),
(366,482,o),
(309,499,o),
(250,499,cs),
(127,499,o),
(42,438,o),
(42,345,cs),
(42,274,o),
(86,224,o),
(169,208,cs),
(269,189,ls),
(310,181,o),
(325,168,o),
(325,138,cs),
(325,102,o),
(300,81,o),
(236,81,cs),
(204,81,o),
(167,86,o),
(120,128,cs),
(75,168,o),
(16,101,o),
(62,54,cs),
(108,7,o),
(184,-8,o),
(235,-10,cs)
);
}
);
width = 474;
},
{
anchors = (
{
name = bottom;
pos = (218,0);
},
{
name = top;
pos = (276,484);
}
);
background = {
anchors = (
{
name = bottom;
pos = (218,0);
},
{
name = top;
pos = (276,484);
}
);
shapes = (
{
closed = 1;
nodes = (
(352,-10,o),
(436,48,o),
(436,151,cs),
(436,216,o),
(393,259,o),
(313,276,cs),
(221,295,ls),
(187,302,o),
(173,320,o),
(173,344,cs),
(173,384,o),
(209,411,o),
(274,411,cs),
(327,411,o),
(379,395,o),
(421,362,c),
(458,442,l),
(414,479,o),
(344,499,o),
(280,499,cs),
(139,499,o),
(60,426,o),
(60,337,cs),
(60,272,o),
(103,226,o),
(177,212,cs),
(269,193,ls),
(305,185,o),
(323,169,o),
(323,142,cs),
(323,103,o),
(289,78,o),
(226,78,cs),
(167,78,o),
(105,96,o),
(57,130,c),
(18,49,l),
(67,11,o),
(143,-10,o),
(226,-10,cs)
);
}
);
};
layerId = "8FF16B21-C988-4EC9-A448-39B9B4A4BD78";
shapes = (
{
closed = 1;
nodes = (
(352,-10,o),
(436,48,o),
(436,151,cs),
(436,216,o),
(393,259,o),
(313,276,cs),
(221,295,ls),
(187,302,o),
(173,320,o),
(173,344,cs),
(173,384,o),
(209,411,o),
(274,411,cs),
(314,411,o),
(355,401,o),
(389,383,cs),
(450,351,o),
(487,427,o),
(429,462,cs),
(389,486,o),
(328,499,o),
(280,499,cs),
(139,499,o),
(60,426,o),
(60,337,cs),
(60,272,o),
(102,227,o),
(176,212,cs),
(268,193,ls),
(304,186,o),
(323,169,o),
(323,142,cs),
(323,103,o),
(289,78,o),
(226,78,cs),
(180,78,o),
(132,89,o),
(90,110,cs),
(29,141,o),
(-5,56,o),
(57,25,cs),
(101,3,o),
(163,-10,o),
(226,-10,cs)
);
}
);
width = 488;
}
);
unicode = 115;
userData = {
anchors = (
);
b = {
};
com.typemytype.robofont.layerData = {
b = {
anchors = (
);
components = (
);
contours = (
);
lib = {
};
name = s;
unicodes = (
);
width = 1007;
};
};
components = (
);
contours = (
);
lib = {
};
name = s;
unicodes = (
);
width = 1006.76001;
};
}
{
color = 6;
glyphname = plusminus;
layers = (
{
background = {
shapes = (
{
closed = 1;
nodes = (
(320,117,l),
(320,303,l),
(544,303,l),
(544,342,l),
(320,342,l),
(320,528,l),
(280,528,l),
(280,342,l),
(56,342,l),
(56,303,l),
(280,303,l),
(280,117,l)
);
},
{
closed = 1;
nodes = (
(544,0,l),
(544,39,l),
(56,39,l),
(56,0,l)
);
}
);
};
layerId = "F1F93986-3ED8-4AAE-84C4-CA3EEECDDFA0";
shapes = (
{
closed = 1;
nodes = (
(313,111,o),
(320,119,o),
(320,132,cs),
(320,303,l),
(529,303,ls),
(542,303,o),
(550,310,o),
(550,323,cs),
(550,335,o),
(542,342,o),
(529,342,cs),
(320,342,l),
(320,513,ls),
(320,526,o),
(313,534,o),
(300,534,cs),
(287,534,o),
(280,526,o),
(280,513,cs),
(280,342,l),
(71,342,ls),
(58,342,o),
(50,335,o),
(50,323,cs),
(50,311,o),
(58,303,o),
(71,303,cs),
(280,303,l),
(280,132,ls),
(280,119,o),
(287,111,o),
(300,111,cs)
);
},
{
closed = 1;
nodes = (
(529,0,ls),
(542,0,o),
(550,7,o),
(550,20,cs),
(550,32,o),
(542,39,o),
(529,39,cs),
(71,39,ls),
(58,39,o),
(50,32,o),
(50,20,cs),
(50,8,o),
(58,0,o),
(71,0,cs)
);
}
);
width = 600;
},
{
background = {
shapes = (
{
closed = 1;
nodes = (
(371,161,l),
(371,278,l),
(544,278,l),
(544,416,l),
(371,416,l),
(371,533,l),
(229,533,l),
(229,416,l),
(56,416,l),
(56,278,l),
(229,278,l),
(229,161,l)
);
},
{
closed = 1;
nodes = (
(544,0,l),
(544,136,l),
(56,136,l),
(56,0,l)
);
}
);
};
layerId = "4121B50C-FD42-45C5-8FBE-41E76D98F91E";
shapes = (
{
closed = 1;
nodes = (
(346,151,o),
(371,177,o),
(371,223,cs),
(371,278,l),
(484,278,ls),
(529,278,o),
(554,303,o),
(554,347,cs),
(554,391,o),
(529,416,o),
(484,416,cs),
(371,416,l),
(371,471,ls),
(371,517,o),
(346,543,o),
(300,543,cs),
(254,543,o),
(229,517,o),
(229,471,cs),
(229,416,l),
(116,416,ls),
(71,416,o),
(46,391,o),
(46,347,cs),
(46,303,o),
(71,278,o),
(116,278,cs),
(229,278,l),
(229,223,ls),
(229,177,o),
(254,151,o),
(300,151,cs)
);
},
{
closed = 1;
nodes = (
(485,0,ls),
(529,0,o),
(554,24,o),
(554,68,cs),
(554,112,o),
(529,136,o),
(485,136,cs),
(115,136,ls),
(71,136,o),
(46,112,o),
(46,68,cs),
(46,24,o),
(71,0,o),
(115,0,cs)
);
}
);
width = 600;
},
{
background = {
shapes = (
{
closed = 1;
nodes = (
(301,117,l),
(330,303,l),
(554,303,l),
(560,342,l),
(337,342,l),
(366,528,l),
(326,528,l),
(297,342,l),
(72,342,l),
(66,303,l),
(290,303,l),
(261,117,l)
);
},
{
closed = 1;
nodes = (
(506,0,l),
(512,39,l),
(24,39,l),
(18,0,l)
);
}
);
};
layerId = "D8D4984A-F5A5-43C0-BF2B-5708C10C5E92";
shapes = (
{
closed = 1;
nodes = (
(296,111,o),
(302,120,o),
(304,133,cs),
(330,303,l),
(539,303,ls),
(554,303,o),
(563,311,o),
(563,326,cs),
(563,337,o),
(555,342,o),
(541,342,cs),
(337,342,l),
(363,508,ls),
(366,524,o),
(360,534,o),
(346,534,cs),
(331,534,o),
(325,525,o),
(323,512,cs),
(297,342,l),
(87,342,ls),
(72,342,o),
(63,334,o),
(63,319,cs),
(63,308,o),
(71,303,o),
(85,303,cs),
(290,303,l),
(264,137,ls),
(261,121,o),
(267,111,o),
(281,111,cs)
);
},
{
closed = 1;
nodes = (
(491,0,ls),
(506,0,o),
(515,8,o),
(515,23,cs),
(515,34,o),
(507,39,o),
(493,39,cs),
(39,39,ls),
(24,39,o),
(15,31,o),
(15,16,cs),
(15,5,o),
(23,0,o),
(37,0,cs)
);
}
);
width = 600;
},
{
background = {
shapes = (
{
closed = 1;
nodes = (
(357,161,l),
(376,278,l),
(549,278,l),
(571,416,l),
(398,416,l),
(416,533,l),
(274,533,l),
(256,416,l),
(83,416,l),
(61,278,l),
(234,278,l),
(215,161,l)
);
},
{
closed = 1;
nodes = (
(505,0,l),
(526,136,l),
(38,136,l),
(17,0,l)
);
}
);
};
layerId = "C92D7C27-2246-4784-91DF-7F4E0C5E615D";
shapes = (
{
closed = 1;
nodes = (
(333,151,o),
(358,172,o),
(366,218,cs),
(376,278,l),
(490,278,ls),
(541,278,o),
(570,311,o),
(570,359,cs),
(570,394,o),
(546,416,o),
(499,416,cs),
(398,416,l),
(405,464,ls),
(412,512,o),
(389,543,o),
(342,543,cs),
(298,543,o),
(272,521,o),
(265,476,cs),
(256,416,l),
(142,416,ls),
(91,416,o),
(62,383,o),
(62,335,cs),
(62,300,o),
(86,278,o),
(133,278,cs),
(234,278,l),
(226,230,ls),
(217,178,o),
(242,151,o),
(289,151,cs)
);
},
{
closed = 1;
nodes = (
(446,0,ls),
(497,0,o),
(526,32,o),
(526,80,cs),
(526,115,o),
(502,136,o),
(455,136,cs),
(97,136,ls),
(46,136,o),
(17,104,o),
(17,56,cs),
(17,21,o),
(41,0,o),
(88,0,cs)
);
}
);
width = 600;
},
{
background = {
shapes = (
{
closed = 1;
nodes = (
(346,139,l),
(346,291,l),
(544,291,l),
(544,379,l),
(346,379,l),
(346,531,l),
(254,531,l),
(254,379,l),
(56,379,l),
(56,291,l),
(254,291,l),
(254,139,l)
);
},
{
closed = 1;
nodes = (
(544,0,l),
(544,88,l),
(56,88,l),
(56,0,l)
);
}
);
};
layerId = "18203F29-5161-4D9B-8394-C173CC5E27D4";
shapes = (
{
closed = 1;
nodes = (
(330,131,o),
(346,148,o),
(346,178,cs),
(346,291,l),
(507,291,ls),
(536,291,o),
(552,307,o),
(552,335,cs),
(552,363,o),
(536,379,o),
(507,379,cs),
(346,379,l),
(346,492,ls),
(346,522,o),
(330,539,o),
(300,539,cs),
(270,539,o),
(254,522,o),
(254,492,cs),
(254,379,l),
(94,379,ls),
(65,379,o),
(48,363,o),
(48,335,cs),
(48,307,o),
(65,291,o),
(94,291,cs),
(254,291,l),
(254,178,ls),
(254,148,o),
(270,131,o),
(300,131,cs)
);
},
{
closed = 1;
nodes = (
(507,0,ls),
(536,0,o),
(552,16,o),
(552,44,cs),
(552,72,o),
(536,88,o),
(507,88,cs),
(93,88,ls),
(65,88,o),
(48,72,o),
(48,44,cs),
(48,16,o),
(65,0,o),
(93,0,cs)
);
}
);
width = 600;
},
{
background = {
shapes = (
{
closed = 1;
nodes = (
(329,139,l),
(353,291,l),
(552,291,l),
(566,379,l),
(368,379,l),
(391,531,l),
(300,531,l),
(277,379,l),
(78,379,l),
(64,291,l),
(262,291,l),
(238,139,l)
);
},
{
closed = 1;
nodes = (
(506,0,l),
(519,88,l),
(31,88,l),
(18,0,l)
);
}
);
};
layerId = "8FF16B21-C988-4EC9-A448-39B9B4A4BD78";
shapes = (
{
closed = 1;
nodes = (
(315,131,o),
(330,146,o),
(335,176,cs),
(353,291,l),
(515,291,ls),
(548,291,o),
(567,311,o),
(567,343,cs),
(567,366,o),
(551,379,o),
(520,379,cs),
(368,379,l),
(384,486,ls),
(389,518,o),
(375,539,o),
(344,539,cs),
(315,539,o),
(298,523,o),
(294,494,cs),
(277,379,l),
(115,379,ls),
(82,379,o),
(63,359,o),
(63,327,cs),
(63,304,o),
(79,291,o),
(109,291,cs),
(262,291,l),
(245,184,ls),
(240,150,o),
(255,131,o),
(285,131,cs)
);
},
{
closed = 1;
nodes = (
(469,0,ls),
(502,0,o),
(521,20,o),
(521,52,cs),
(521,75,o),
(505,88,o),
(474,88,cs),
(68,88,ls),
(35,88,o),
(16,68,o),
(16,36,cs),
(16,13,o),
(32,0,o),
(63,0,cs)
);
}
);
width = 600;
}
);
unicode = 177;
}
{
color = 9;
glyphname = onehalf;
kernLeft = one.numr;
kernRight = one.dnom;
layers = (
{
background = {
shapes = (
{
ref = one.numr;
},
{
pos = (380,0);
ref = fraction;
},
{
pos = (537,0);
ref = two.dnom;
}
);
};
layerId = "F1F93986-3ED8-4AAE-84C4-CA3EEECDDFA0";
shapes = (
{
closed = 1;
nodes = (
(676,693,ls),
(690,718,o),
(659,735,o),
(645,711,cs),
(241,12,ls),
(227,-13,o),
(258,-30,o),
(272,-6,cs)
);
},
{
closed = 1;
nodes = (
(296,282,ls),
(309,282,o),
(316,289,o),
(316,301,cs),
(316,313,o),
(309,319,o),
(296,319,cs),
(233,319,l),
(233,685,ls),
(233,698,o),
(226,707,o),
(214,707,cs),
(205,707,o),
(197,703,o),
(189,697,cs),
(110,644,ls),
(87,628,o),
(105,596,o),
(131,613,cs),
(215,670,l),
(195,670,l),
(195,319,l),
(122,319,ls),
(109,319,o),
(102,312,o),
(102,301,cs),
(102,289,o),
(109,282,o),
(122,282,cs)
);
},
{
closed = 1;
nodes = (
(848,0,ls),
(861,0,o),
(868,7,o),
(868,19,cs),
(868,31,o),
(861,37,o),
(848,37,cs),
(641,37,l),
(641,27,l),
(778,175,ls),
(823,224,o),
(844,268,o),
(844,313,cs),
(844,383,o),
(798,427,o),
(723,427,cs),
(676,427,o),
(627,410,o),
(592,380,cs),
(570,362,o),
(593,331,o),
(617,351,cs),
(647,376,o),
(687,390,o),
(721,390,cs),
(773,390,o),
(802,362,o),
(802,312,cs),
(802,272,o),
(785,238,o),
(742,190,cs),
(606,40,ls),
(599,33,o),
(595,25,o),
(595,15,cs),
(595,6,o),
(603,0,o),
(616,0,cs)
);
}
);
width = 917;
},
{
background = {
shapes = (
{
ref = one.numr;
},
{
pos = (400,0);
ref = fraction;
},
{
pos = (622,0);
ref = two.dnom;
}
);
};
layerId = "4121B50C-FD42-45C5-8FBE-41E76D98F91E";
shapes = (
{
closed = 1;
nodes = (
(744,606,ls),
(796,695,o),
(667,771,o),
(615,681,cs),
(278,99,ls),
(226,9,o),
(356,-64,o),
(407,24,cs)
);
},
{
closed = 1;
nodes = (
(312,282,ls),
(355,282,o),
(379,305,o),
(379,347,cs),
(379,389,o),
(355,412,o),
(312,412,cs),
(299,412,l),
(299,643,ls),
(299,686,o),
(275,710,o),
(232,710,cs),
(200,710,o),
(177,701,o),
(146,685,cs),
(60,642,ls),
(-30,597,o),
(31,482,o),
(120,524,cs),
(200,562,l),
(137,562,l),
(137,412,l),
(90,412,ls),
(47,412,o),
(23,389,o),
(23,347,cs),
(23,305,o),
(47,282,o),
(90,282,cs)
);
},
{
closed = 1;
nodes = (
(924,0,ls),
(967,0,o),
(991,23,o),
(991,65,cs),
(991,107,o),
(967,130,o),
(924,130,cs),
(844,130,l),
(844,122,l),
(901,174,ls),
(949,218,o),
(967,256,o),
(967,298,cs),
(967,377,o),
(903,427,o),
(802,427,cs),
(765,427,o),
(726,422,o),
(694,409,cs),
(613,376,o),
(650,263,o),
(726,292,cs),
(734,295,o),
(746,298,o),
(758,298,cs),
(783,298,o),
(793,288,o),
(793,271,cs),
(793,255,o),
(783,238,o),
(761,216,cs),
(694,151,ls),
(669,127,o),
(654,106,o),
(654,74,cs),
(654,29,o),
(685,0,o),
(726,0,cs)
);
}
);
width = 1002;
},
{
background = {
shapes = (
{
ref = one.numr;
},
{
pos = (380,0);
ref = fraction;
},
{
pos = (537,0);
ref = two.dnom;
}
);
};
layerId = "D8D4984A-F5A5-43C0-BF2B-5708C10C5E92";
shapes = (
{
closed = 1;
nodes = (
(746,693,ls),
(763,717,o),
(736,736,o),
(719,712,cs),
(205,12,ls),
(188,-12,o),
(215,-31,o),
(232,-7,cs)
);
},
{
closed = 1;
nodes = (
(303,282,ls),
(316,282,o),
(325,291,o),
(325,304,cs),
(325,313,o),
(318,319,o),
(305,319,cs),
(245,319,l),
(302,682,ls),
(304,697,o),
(299,707,o),
(287,707,cs),
(277,707,o),
(270,704,o),
(261,698,cs),
(173,644,ls),
(146,627,o),
(165,593,o),
(192,610,cs),
(293,672,l),
(262,669,l),
(207,319,l),
(133,319,ls),
(119,319,o),
(111,311,o),
(111,298,cs),
(111,288,o),
(118,282,o),
(131,282,cs)
);
},
{
closed = 1;
nodes = (
(811,0,ls),
(824,0,o),
(833,7,o),
(833,20,cs),
(833,31,o),
(826,37,o),
(813,37,cs),
(604,37,l),
(604,22,l),
(756,160,ls),
(814,213,o),
(860,262,o),
(862,329,cs),
(864,387,o),
(819,427,o),
(747,427,cs),
(699,427,o),
(652,411,o),
(615,385,cs),
(591,368,o),
(608,336,o),
(634,354,cs),
(668,377,o),
(704,390,o),
(741,390,cs),
(792,390,o),
(821,366,o),
(820,325,cs),
(819,275,o),
(781,232,o),
(732,186,cs),
(569,36,ls),
(562,29,o),
(557,23,o),
(557,16,cs),
(557,6,o),
(563,0,o),
(577,0,cs)
);
}
);
width = 917;
},
{
background = {
shapes = (
{
ref = one.numr;
},
{
pos = (400,0);
ref = fraction;
},
{
pos = (622,0);
ref = two.dnom;
}
);
};
layerId = "C92D7C27-2246-4784-91DF-7F4E0C5E615D";
shapes = (
{
closed = 1;
nodes = (
(804,611,ls),
(864,693,o),
(747,768,o),
(690,690,cs),
(251,94,ls),
(191,12,o),
(308,-63,o),
(365,15,cs)
);
},
{
closed = 1;
nodes = (
(318,282,ls),
(367,282,o),
(396,312,o),
(396,359,cs),
(396,393,o),
(371,412,o),
(327,412,cs),
(326,412,l),
(361,634,ls),
(369,686,o),
(348,709,o),
(300,709,cs),
(272,709,o),
(248,700,o),
(218,686,cs),
(122,642,ls),
(29,599,o),
(80,477,o),
(175,520,cs),
(274,565,l),
(189,570,l),
(164,412,l),
(116,412,ls),
(67,412,o),
(38,382,o),
(38,335,cs),
(38,301,o),
(63,282,o),
(107,282,cs)
);
},
{
closed = 1;
nodes = (
(885,0,ls),
(934,0,o),
(963,30,o),
(963,78,cs),
(963,111,o),
(938,130,o),
(894,130,cs),
(791,130,l),
(792,90,l),
(877,155,ls),
(953,211,o),
(976,248,o),
(976,301,cs),
(976,365,o),
(924,427,o),
(822,427,cs),
(786,427,o),
(752,424,o),
(714,410,cs),
(636,381,o),
(672,270,o),
(736,291,cs),
(749,295,o),
(762,298,o),
(777,298,cs),
(792,298,o),
(803,290,o),
(803,279,cs),
(803,266,o),
(795,250,o),
(774,232,cs),
(665,140,ls),
(636,116,o),
(625,98,o),
(625,63,cs),
(625,26,o),
(649,0,o),
(698,0,cs)
);
}
);
width = 1002;
},
{
background = {
shapes = (
{
ref = one.numr;
},
{
pos = (390,0);
ref = fraction;
},
{
pos = (579,0);
ref = two.dnom;
}
);
};
layerId = "18203F29-5161-4D9B-8394-C173CC5E27D4";
shapes = (
{
closed = 1;
nodes = (
(710,649,ls),
(743,706,o),
(663,754,o),
(630,697,cs),
(259,56,ls),
(226,-2,o),
(307,-48,o),
(339,8,cs)
);
},
{
closed = 1;
nodes = (
(306,282,ls),
(334,282,o),
(350,297,o),
(350,324,cs),
(350,351,o),
(334,366,o),
(306,366,cs),
(266,366,l),
(266,664,ls),
(266,692,o),
(251,709,o),
(223,709,cs),
(203,709,o),
(187,702,o),
(168,691,cs),
(85,644,ls),
(30,613,o),
(69,538,o),
(126,570,cs),
(208,616,l),
(166,616,l),
(166,366,l),
(104,366,ls),
(76,366,o),
(61,351,o),
(61,324,cs),
(61,297,o),
(76,282,o),
(104,282,cs)
);
},
{
closed = 1;
nodes = (
(889,0,ls),
(917,0,o),
(932,15,o),
(932,42,cs),
(932,69,o),
(917,84,o),
(889,84,cs),
(743,84,l),
(743,75,l),
(839,174,ls),
(887,223,o),
(906,262,o),
(906,306,cs),
(906,380,o),
(851,427,o),
(763,427,cs),
(719,427,o),
(670,415,o),
(636,394,cs),
(587,364,o),
(622,296,o),
(671,324,cs),
(692,336,o),
(717,344,o),
(740,344,cs),
(779,344,o),
(798,325,o),
(798,292,cs),
(798,264,o),
(785,238,o),
(752,203,cs),
(651,97,ls),
(635,81,o),
(625,66,o),
(625,45,cs),
(625,18,o),
(645,0,o),
(672,0,cs)
);
}
);
width = 960;
},
{
background = {
shapes = (
{
ref = one.numr;
},
{
pos = (390,0);
ref = fraction;
},
{
pos = (579,0);
ref = two.dnom;
}
);
};
layerId = "8FF16B21-C988-4EC9-A448-39B9B4A4BD78";
shapes = (
{
closed = 1;
nodes = (
(776,652,ls),
(815,705,o),
(742,753,o),
(705,702,cs),
(227,53,ls),
(188,0,o),
(262,-47,o),
(299,4,cs)
);
},
{
closed = 1;
nodes = (
(311,282,ls),
(342,282,o),
(361,303,o),
(361,330,cs),
(361,354,o),
(345,366,o),
(316,366,cs),
(286,366,l),
(333,660,ls),
(335,673,o),
(341,708,o),
(296,708,cs),
(273,708,o),
(255,699,o),
(241,692,cs),
(145,643,ls),
(86,613,o),
(122,535,o),
(182,566,cs),
(284,619,l),
(226,620,l),
(186,366,l),
(125,366,ls),
(93,366,o),
(75,346,o),
(75,319,cs),
(75,294,o),
(91,282,o),
(119,282,cs)
);
},
{
closed = 1;
nodes = (
(849,0,ls),
(880,0,o),
(899,19,o),
(899,49,cs),
(899,71,o),
(883,84,o),
(854,84,cs),
(698,84,l),
(699,56,l),
(817,158,ls),
(887,218,o),
(919,255,o),
(920,315,cs),
(921,376,o),
(872,427,o),
(785,427,cs),
(743,427,o),
(699,418,o),
(661,398,cs),
(612,372,o),
(643,306,o),
(687,326,cs),
(712,337,o),
(734,344,o),
(760,344,cs),
(793,344,o),
(813,328,o),
(812,302,cs),
(811,271,o),
(790,241,o),
(754,209,cs),
(618,89,ls),
(600,73,o),
(592,61,o),
(592,40,cs),
(592,16,o),
(607,0,o),
(638,0,cs)
);
}
);
width = 960;
}
);
unicode = 189;
}
{
color = 6;
glyphname = AE;
kernLeft = A;
kernRight = E;
layers = (
{
anchors = (
{
name = bottom;
pos = (487,0);
},
{
name = top;
pos = (486,705);
}
);
background = {
anchors = (
{
name = bottom;
pos = (487,0);
},
{
name = top;
pos = (486,705);
}
);
shapes = (
{
closed = 1;
nodes = (
(49,0,l),
(172,207,l),
(153,195,l),
(548,195,l),
(528,207,l),
(571,0,l),
(921,0,l),
(921,39,l),
(586,39,l),
(607,20,l),
(538,348,l),
(525,338,l),
(901,338,l),
(901,377,l),
(517,377,l),
(534,366,l),
(466,690,l),
(459,666,l),
(921,666,l),
(921,705,l),
(422,705,l),
(2,0,l)
);
},
{
closed = 1;
nodes = (
(435,648,l),
(524,225,l),
(530,234,l),
(173,234,l),
(182,224,l),
(433,648,l)
);
}
);
};
layerId = "F1F93986-3ED8-4AAE-84C4-CA3EEECDDFA0";
shapes = (
{
closed = 1;
nodes = (
(57,-6,o),
(65,-1,o),
(71,10,cs),
(188,207,l),
(169,195,l),
(548,195,l),
(528,207,l),
(567,20,ls),
(570,7,o),
(578,0,o),
(592,0,cs),
(904,0,ls),
(919,0,o),
(927,7,o),
(927,20,cs),
(927,32,o),
(919,39,o),
(904,39,cs),
(586,39,l),
(607,20,l),
(538,348,l),
(525,338,l),
(884,338,ls),
(899,338,o),
(907,345,o),
(907,358,cs),
(907,370,o),
(899,377,o),
(884,377,cs),
(517,377,l),
(534,366,l),
(466,655,l),
(459,631,l),
(904,631,ls),
(919,631,o),
(927,638,o),
(927,651,cs),
(927,663,o),
(919,670,o),
(904,670,cs),
(452,670,ls),
(422,670,o),
(407,662,o),
(394,640,cs),
(31,22,ls),
(22,7,o),
(28,-6,o),
(47,-6,cs)
);
},
{
closed = 1;
nodes = (
(431,628,l),
(524,225,l),
(530,234,l),
(189,234,l),
(198,224,l),
(431,628,l)
);
}
);
width = 971;
},
{
anchors = (
{
name = bottom;
pos = (489,0);
},
{
name = top;
pos = (490,705);
}
);
background = {
anchors = (
{
name = bottom;
pos = (489,0);
},
{
name = top;
pos = (490,705);
}
);
shapes = (
{
closed = 1;
nodes = (
(150,0,l),
(261,186,l),
(184,131,l),
(562,131,l),
(498,194,l),
(541,0,l),
(961,0,l),
(961,164,l),
(636,164,l),
(706,109,l),
(655,335,l),
(613,276,l),
(938,276,l),
(938,440,l),
(576,440,l),
(645,381,l),
(600,584,l),
(546,541,l),
(961,541,l),
(961,705,l),
(382,705,l),
(-74,0,l)
);
},
{
closed = 1;
nodes = (
(435,476,l),
(489,235,l),
(531,295,l),
(285,295,l),
(294,243,l),
(433,476,l)
);
}
);
};
layerId = "4121B50C-FD42-45C5-8FBE-41E76D98F91E";
shapes = (
{
closed = 1;
nodes = (
(131,-10,o),
(157,13,o),
(182,54,cs),
(261,186,l),
(184,131,l),
(562,131,l),
(498,194,l),
(525,73,ls),
(536,24,o),
(566,0,o),
(616,0,cs),
(888,0,ls),
(942,0,o),
(971,29,o),
(971,82,cs),
(971,135,o),
(942,164,o),
(888,164,cs),
(636,164,l),
(706,109,l),
(655,335,l),
(613,276,l),
(865,276,ls),
(919,276,o),
(948,305,o),
(948,358,cs),
(948,411,o),
(919,440,o),
(865,440,cs),
(576,440,l),
(645,381,l),
(600,584,l),
(546,541,l),
(888,541,ls),
(942,541,o),
(971,570,o),
(971,623,cs),
(971,676,o),
(942,705,o),
(888,705,cs),
(447,705,ls),
(402,705,o),
(371,689,o),
(347,651,cs),
(4,120,ls),
(-37,56,o),
(-17,-10,o),
(76,-10,cs)
);
},
{
closed = 1;
nodes = (
(435,476,l),
(489,235,l),
(531,295,l),
(285,295,l),
(294,243,l),
(433,476,l)
);
}
);
width = 1014;
},
{
anchors = (
{
name = bottom;
pos = (448,0);
},
{
name = top;
pos = (544,705);
}
);
background = {
anchors = (
{
name = bottom;
pos = (448,0);
},
{
name = top;
pos = (544,705);
}
);
shapes = (
{
closed = 1;
nodes = (
(12,0,l),
(168,207,l),
(147,195,l),
(542,195,l),
(524,207,l),
(534,0,l),
(883,0,l),
(890,39,l),
(554,39,l),
(572,20,l),
(556,348,l),
(540,338,l),
(917,338,l),
(923,377,l),
(538,377,l),
(555,366,l),
(538,690,l),
(526,666,l),
(989,666,l),
(995,705,l),
(495,705,l),
(-37,0,l)
);
},
{
closed = 1;
nodes = (
(501,648,l),
(523,225,l),
(530,234,l),
(173,234,l),
(181,224,l),
(499,648,l)
);
}
);
};
layerId = "D8D4984A-F5A5-43C0-BF2B-5708C10C5E92";
shapes = (
{
closed = 1;
nodes = (
(4,-6,o),
(11,-2,o),
(21,11,cs),
(168,207,l),
(147,195,l),
(542,195,l),
(524,207,l),
(533,21,ls),
(534,7,o),
(541,0,o),
(555,0,cs),
(869,0,ls),
(884,0,o),
(893,9,o),
(893,24,cs),
(893,34,o),
(885,39,o),
(872,39,cs),
(554,39,l),
(572,20,l),
(556,348,l),
(540,338,l),
(903,338,ls),
(915,338,o),
(926,344,o),
(926,362,cs),
(926,372,o),
(918,377,o),
(905,377,cs),
(538,377,l),
(555,366,l),
(538,690,l),
(526,666,l),
(975,666,ls),
(987,666,o),
(998,672,o),
(998,690,cs),
(998,700,o),
(990,705,o),
(977,705,cs),
(512,705,ls),
(501,705,o),
(492,702,o),
(485,692,cs),
(-18,25,ls),
(-30,10,o),
(-24,-6,o),
(-5,-6,cs)
);
},
{
closed = 1;
nodes = (
(501,648,l),
(523,225,l),
(530,234,l),
(173,234,l),
(181,224,l),
(499,648,l)
);
}
);
width = 971;
},
{
anchors = (
{
name = bottom;
pos = (450,0);
},
{
name = top;
pos = (552,705);
}
);
background = {
anchors = (
{
name = bottom;
pos = (450,0);
},
{
name = top;
pos = (552,705);
}
);
shapes = (
{
closed = 1;
nodes = (
(119,0,l),
(259,186,l),
(174,131,l),
(552,131,l),
(497,194,l),
(510,0,l),
(922,0,l),
(948,164,l),
(623,164,l),
(687,109,l),
(672,335,l),
(617,276,l),
(942,276,l),
(968,440,l),
(606,440,l),
(670,381,l),
(656,584,l),
(592,541,l),
(1007,541,l),
(1033,705,l),
(454,705,l),
(-113,0,l)
);
},
{
closed = 1;
nodes = (
(479,476,l),
(495,235,l),
(546,295,l),
(300,295,l),
(301,243,l),
(477,476,l)
);
}
);
};
layerId = "C92D7C27-2246-4784-91DF-7F4E0C5E615D";
shapes = (
{
closed = 1;
nodes = (
(92,-10,o),
(123,6,o),
(149,40,cs),
(259,186,l),
(174,131,l),
(552,131,l),
(497,194,l),
(504,88,ls),
(508,31,o),
(541,0,o),
(598,0,cs),
(848,0,ls),
(909,0,o),
(946,37,o),
(946,97,cs),
(946,139,o),
(915,164,o),
(859,164,cs),
(623,164,l),
(687,109,l),
(672,335,l),
(617,276,l),
(868,276,ls),
(929,276,o),
(966,313,o),
(966,373,cs),
(966,415,o),
(935,440,o),
(879,440,cs),
(606,440,l),
(670,381,l),
(656,584,l),
(592,541,l),
(933,541,ls),
(994,541,o),
(1031,578,o),
(1031,638,cs),
(1031,680,o),
(1000,705,o),
(944,705,cs),
(522,705,ls),
(474,705,o),
(441,690,o),
(411,652,cs),
(-20,116,ls),
(-61,65,o),
(-41,-10,o),
(46,-10,cs)
);
},
{
closed = 1;
nodes = (
(479,476,l),
(495,235,l),
(546,295,l),
(300,295,l),
(301,243,l),
(477,476,l)
);
}
);
width = 1014;
},
{
anchors = (
{
name = bottom;
pos = (488,0);
},
{
name = top;
pos = (488,705);
}
);
background = {
anchors = (
{
name = bottom;
pos = (488,0);
},
{
name = top;
pos = (488,705);
}
);
shapes = (
{
closed = 1;
nodes = (
(100,0,l),
(217,197,l),
(169,163,l),
(555,163,l),
(513,201,l),
(556,0,l),
(941,0,l),
(941,102,l),
(611,102,l),
(657,65,l),
(597,342,l),
(569,307,l),
(920,307,l),
(920,409,l),
(547,409,l),
(590,374,l),
(533,637,l),
(503,603,l),
(941,603,l),
(941,705,l),
(402,705,l),
(-36,0,l)
);
},
{
closed = 1;
nodes = (
(435,562,l),
(507,230,l),
(531,265,l),
(229,265,l),
(238,234,l),
(433,562,l)
);
}
);
};
layerId = "18203F29-5161-4D9B-8394-C173CC5E27D4";
shapes = (
{
closed = 1;
nodes = (
(86,-8,o),
(103,6,o),
(119,32,cs),
(217,197,l),
(169,163,l),
(555,163,l),
(513,201,l),
(546,47,ls),
(553,16,o),
(572,0,o),
(604,0,cs),
(896,0,ls),
(931,0,o),
(949,18,o),
(949,51,cs),
(949,84,o),
(931,102,o),
(896,102,cs),
(611,102,l),
(657,65,l),
(597,342,l),
(569,307,l),
(875,307,ls),
(909,307,o),
(928,325,o),
(928,358,cs),
(928,391,o),
(909,409,o),
(875,409,cs),
(547,409,l),
(590,374,l),
(533,637,l),
(503,603,l),
(896,603,ls),
(931,603,o),
(949,622,o),
(949,655,cs),
(949,687,o),
(931,705,o),
(896,705,cs),
(444,705,ls),
(415,705,o),
(395,695,o),
(380,670,cs),
(9,72,ls),
(-16,32,o),
(-3,-8,o),
(54,-8,cs)
);
},
{
closed = 1;
nodes = (
(435,562,l),
(507,230,l),
(531,265,l),
(229,265,l),
(238,234,l),
(433,562,l)
);
}
);
width = 993;
},
{
anchors = (
{
name = bottom;
pos = (449,0);
},
{
name = top;
pos = (548,705);
}
);
background = {
anchors = (
{
name = bottom;
pos = (449,0);
},
{
name = top;
pos = (548,705);
}
);
shapes = (
{
closed = 1;
nodes = (
(66,0,l),
(214,197,l),
(161,163,l),
(547,163,l),
(511,201,l),
(522,0,l),
(903,0,l),
(919,102,l),
(589,102,l),
(630,65,l),
(614,342,l),
(579,307,l),
(930,307,l),
(946,409,l),
(572,409,l),
(613,374,l),
(597,637,l),
(559,603,l),
(998,603,l),
(1014,705,l),
(475,705,l),
(-75,0,l)
);
},
{
closed = 1;
nodes = (
(490,562,l),
(509,230,l),
(538,265,l),
(237,265,l),
(241,234,l),
(488,562,l)
);
}
);
};
layerId = "8FF16B21-C988-4EC9-A448-39B9B4A4BD78";
shapes = (
{
closed = 1;
nodes = (
(48,-8,o),
(67,2,o),
(85,26,cs),
(214,197,l),
(161,163,l),
(547,163,l),
(511,201,l),
(519,55,ls),
(521,19,o),
(542,0,o),
(578,0,cs),
(860,0,ls),
(898,0,o),
(921,23,o),
(921,61,cs),
(921,87,o),
(901,102,o),
(867,102,cs),
(589,102,l),
(630,65,l),
(614,342,l),
(579,307,l),
(887,307,ls),
(923,307,o),
(947,329,o),
(947,368,cs),
(947,394,o),
(928,409,o),
(893,409,cs),
(572,409,l),
(613,374,l),
(597,637,l),
(559,603,l),
(955,603,ls),
(992,603,o),
(1016,625,o),
(1016,664,cs),
(1016,690,o),
(996,705,o),
(962,705,cs),
(518,705,ls),
(489,705,o),
(468,696,o),
(449,672,cs),
(-19,71,ls),
(-45,37,o),
(-33,-8,o),
(21,-8,cs)
);
},
{
closed = 1;
nodes = (
(490,562,l),
(509,230,l),
(538,265,l),
(237,265,l),
(241,234,l),
(488,562,l)
);
}
);
width = 993;
}
);
unicode = 198;
userData = {
com.typemytype.robofont.layerData = {
b = {
anchors = (
);
components = (
);
contours = (
);
lib = {
};
name = AE;
unicodes = (
);
width = 1976;
};
};
};
}
{
color = 6;
glyphname = dcroat;
kernLeft = o;
kernRight = l;
layers = (
{
background = {
shapes = (
{
closed = 1;
nodes = (
(361,-8,o),
(430,44,o),
(452,126,c),
(441,126,l),
(441,0,l),
(483,0,l),
(483,562,l),
(578,562,l),
(578,598,l),
(483,598,l),
(483,705,l),
(441,705,l),
(441,598,l),
(244,598,l),
(244,562,l),
(441,562,l),
(441,358,l),
(452,358,l),
(430,440,o),
(361,492,o),
(268,492,cs),
(136,492,o),
(53,395,o),
(53,242,cs),
(53,89,o),
(137,-8,o),
(268,-8,cs)
);
},
{
closed = 1;
nodes = (
(163,31,o),
(96,109,o),
(96,242,cs),
(96,375,o),
(163,453,o),
(269,453,cs),
(375,453,o),
(442,375,o),
(442,242,cs),
(442,109,o),
(375,31,o),
(269,31,cs)
);
}
);
};
layerId = "F1F93986-3ED8-4AAE-84C4-CA3EEECDDFA0";
shapes = (
{
closed = 1;
nodes = (
(361,-8,o),
(430,44,o),
(452,126,c),
(441,126,l),
(441,16,ls),
(441,2,o),
(449,-6,o),
(462,-6,cs),
(475,-6,o),
(483,2,o),
(483,16,cs),
(483,562,l),
(560,562,ls),
(574,562,o),
(582,569,o),
(582,580,cs),
(582,591,o),
(574,598,o),
(560,598,cs),
(471,598,l),
(483,585,l),
(483,689,ls),
(483,703,o),
(475,711,o),
(462,711,cs),
(449,711,o),
(441,703,o),
(441,689,cs),
(441,585,l),
(453,598,l),
(262,598,ls),
(248,598,o),
(240,591,o),
(240,580,cs),
(240,569,o),
(248,562,o),
(262,562,cs),
(441,562,l),
(441,358,l),
(452,358,l),
(430,440,o),
(361,492,o),
(268,492,cs),
(136,492,o),
(53,395,o),
(53,242,cs),
(53,89,o),
(137,-8,o),
(268,-8,cs)
);
},
{
closed = 1;
nodes = (
(163,31,o),
(96,109,o),
(96,242,cs),
(96,375,o),
(163,453,o),
(269,453,cs),
(375,453,o),
(442,375,o),
(442,242,cs),
(442,109,o),
(375,31,o),
(269,31,cs)
);
}
);
width = 568;
},
{
background = {
shapes = (
{
closed = 1;
nodes = (
(311,-12,o),
(374,25,o),
(392,77,c),
(385,77,l),
(385,0,l),
(588,0,l),
(588,525,l),
(668,525,l),
(668,665,l),
(588,665,l),
(588,705,l),
(380,705,l),
(380,665,l),
(200,665,l),
(200,525,l),
(380,525,l),
(380,404,l),
(390,404,l),
(370,451,o),
(308,486,o),
(239,486,cs),
(113,486,o),
(24,392,o),
(24,237,cs),
(24,82,o),
(114,-12,o),
(239,-12,cs)
);
},
{
closed = 1;
nodes = (
(265,140,o),
(233,168,o),
(233,237,cs),
(233,306,o),
(265,334,o),
(308,334,cs),
(351,334,o),
(383,306,o),
(383,237,cs),
(383,168,o),
(351,140,o),
(308,140,cs)
);
}
);
};
layerId = "4121B50C-FD42-45C5-8FBE-41E76D98F91E";
shapes = (
{
closed = 1;
nodes = (
(311,-12,o),
(374,25,o),
(392,77,c),
(383,137,l),
(383,95,ls),
(383,27,o),
(419,-10,o),
(486,-10,cs),
(552,-10,o),
(588,27,o),
(588,95,cs),
(588,525,l),
(603,525,ls),
(649,525,o),
(674,550,o),
(674,595,cs),
(674,640,o),
(649,665,o),
(603,665,cs),
(491,665,l),
(588,568,l),
(588,630,ls),
(588,678,o),
(551,715,o),
(484,715,cs),
(417,715,o),
(380,678,o),
(380,630,cs),
(380,568,l),
(477,665,l),
(265,665,ls),
(219,665,o),
(194,640,o),
(194,595,cs),
(194,550,o),
(219,525,o),
(265,525,cs),
(380,525,l),
(380,404,l),
(390,404,l),
(370,451,o),
(308,486,o),
(239,486,cs),
(113,486,o),
(24,392,o),
(24,237,cs),
(24,82,o),
(114,-12,o),
(239,-12,cs)
);
},
{
closed = 1;
nodes = (
(265,140,o),
(233,168,o),
(233,237,cs),
(233,306,o),
(265,334,o),
(308,334,cs),
(351,334,o),
(383,306,o),
(383,237,cs),
(383,168,o),
(351,140,o),
(308,140,cs)
);
}
);
width = 632;
},
{
background = {
shapes = (
{
closed = 1;
nodes = (
(331,-8,o),
(398,39,o),
(432,113,c),
(420,113,l),
(402,0,l),
(444,0,l),
(533,562,l),
(628,562,l),
(634,598,l),
(539,598,l),
(556,705,l),
(514,705,l),
(497,598,l),
(300,598,l),
(294,562,l),
(491,562,l),
(459,362,l),
(467,362,l),
(444,451,o),
(374,492,o),
(293,492,cs),
(135,492,o),
(51,354,o),
(51,198,cs),
(51,71,o),
(127,-8,o),
(241,-8,cs)
);
},
{
closed = 1;
nodes = (
(151,31,o),
(94,88,o),
(94,198,cs),
(94,337,o),
(163,453,o),
(291,453,cs),
(387,453,o),
(444,396,o),
(444,286,cs),
(444,147,o),
(375,31,o),
(247,31,cs)
);
}
);
};
layerId = "D8D4984A-F5A5-43C0-BF2B-5708C10C5E92";
shapes = (
{
closed = 1;
nodes = (
(331,-8,o),
(398,39,o),
(432,113,c),
(420,113,l),
(405,19,ls),
(402,3,o),
(409,-6,o),
(422,-6,cs),
(436,-6,o),
(444,1,o),
(446,15,cs),
(533,562,l),
(613,562,ls),
(627,562,o),
(637,569,o),
(637,583,cs),
(637,593,o),
(629,598,o),
(615,598,cs),
(533,598,l),
(536,579,l),
(553,686,ls),
(556,702,o),
(549,711,o),
(536,711,cs),
(522,711,o),
(514,704,o),
(512,690,cs),
(494,579,l),
(505,598,l),
(315,598,ls),
(301,598,o),
(291,591,o),
(291,577,cs),
(291,567,o),
(299,562,o),
(313,562,cs),
(491,562,l),
(459,362,l),
(467,362,l),
(444,451,o),
(374,492,o),
(293,492,cs),
(135,492,o),
(51,354,o),
(51,198,cs),
(51,71,o),
(127,-8,o),
(241,-8,cs)
);
},
{
closed = 1;
nodes = (
(151,31,o),
(94,88,o),
(94,198,cs),
(94,337,o),
(163,453,o),
(291,453,cs),
(387,453,o),
(444,396,o),
(444,286,cs),
(444,147,o),
(375,31,o),
(247,31,cs)
);
}
);
width = 568;
},
{
background = {
shapes = (
{
closed = 1;
nodes = (
(264,-12,o),
(324,18,o),
(361,70,c),
(357,70,l),
(346,0,l),
(549,0,l),
(632,525,l),
(712,525,l),
(734,665,l),
(654,665,l),
(660,705,l),
(452,705,l),
(446,665,l),
(266,665,l),
(244,525,l),
(424,525,l),
(405,403,l),
(413,402,l),
(390,455,o),
(336,486,o),
(268,486,cs),
(120,486,o),
(20,361,o),
(20,194,cs),
(20,72,o),
(91,-12,o),
(201,-12,cs)
);
},
{
closed = 1;
nodes = (
(252,140,o),
(229,168,o),
(229,206,cs),
(229,279,o),
(264,334,o),
(318,334,cs),
(356,334,o),
(379,306,o),
(379,268,cs),
(379,196,o),
(344,140,o),
(290,140,cs)
);
}
);
};
layerId = "C92D7C27-2246-4784-91DF-7F4E0C5E615D";
shapes = (
{
closed = 1;
nodes = (
(264,-12,o),
(326,18,o),
(363,73,c),
(362,130,l),
(360,114,ls),
(350,35,o),
(382,-10,o),
(447,-10,cs),
(514,-10,o),
(553,25,o),
(564,93,cs),
(632,525,l),
(647,525,ls),
(699,525,o),
(730,557,o),
(730,608,cs),
(730,645,o),
(703,665,o),
(656,665,cs),
(609,665,l),
(640,585,l),
(644,612,ls),
(653,672,o),
(622,715,o),
(557,715,cs),
(488,715,o),
(447,680,o),
(437,612,cs),
(433,585,l),
(491,665,l),
(331,665,ls),
(279,665,o),
(248,633,o),
(248,582,cs),
(248,545,o),
(275,525,o),
(322,525,cs),
(424,525,l),
(405,403,l),
(413,402,l),
(390,455,o),
(336,486,o),
(268,486,cs),
(120,486,o),
(20,361,o),
(20,194,cs),
(20,72,o),
(91,-12,o),
(201,-12,cs)
);
},
{
closed = 1;
nodes = (
(252,140,o),
(229,168,o),
(229,206,cs),
(229,279,o),
(264,334,o),
(318,334,cs),
(356,334,o),
(379,306,o),
(379,268,cs),
(379,196,o),
(344,140,o),
(290,140,cs)
);
}
);
width = 632;
},
{
background = {
shapes = (
{
closed = 1;
nodes = (
(336,-10,o),
(403,35,o),
(423,104,c),
(412,104,l),
(412,0,l),
(536,0,l),
(536,544,l),
(623,544,l),
(623,632,l),
(536,632,l),
(536,705,l),
(411,705,l),
(411,632,l),
(222,632,l),
(222,544,l),
(411,544,l),
(411,390,l),
(422,390,l),
(401,455,o),
(335,499,o),
(254,499,cs),
(125,499,o),
(39,402,o),
(39,245,cs),
(39,88,o),
(126,-10,o),
(254,-10,cs)
);
},
{
closed = 1;
nodes = (
(214,85,o),
(165,139,o),
(165,245,cs),
(165,351,o),
(214,404,o),
(289,404,cs),
(363,404,o),
(413,351,o),
(413,245,cs),
(413,139,o),
(363,85,o),
(289,85,cs)
);
}
);
};
layerId = "18203F29-5161-4D9B-8394-C173CC5E27D4";
shapes = (
{
closed = 1;
nodes = (
(336,-10,o),
(402,35,o),
(422,102,c),
(412,132,l),
(412,56,ls),
(412,15,o),
(434,-8,o),
(474,-8,cs),
(514,-8,o),
(536,15,o),
(536,56,cs),
(536,544,l),
(582,544,ls),
(612,544,o),
(628,560,o),
(628,588,cs),
(628,616,o),
(612,632,o),
(582,632,cs),
(481,632,l),
(536,577,l),
(536,660,ls),
(536,691,o),
(513,713,o),
(473,713,cs),
(433,713,o),
(411,691,o),
(411,660,cs),
(411,577,l),
(465,632,l),
(264,632,ls),
(234,632,o),
(217,616,o),
(217,588,cs),
(217,560,o),
(234,544,o),
(264,544,cs),
(411,544,l),
(411,390,l),
(422,390,l),
(401,455,o),
(335,499,o),
(254,499,cs),
(125,499,o),
(39,402,o),
(39,245,cs),
(39,88,o),
(126,-10,o),
(254,-10,cs)
);
},
{
closed = 1;
nodes = (
(214,85,o),
(165,139,o),
(165,245,cs),
(165,351,o),
(214,404,o),
(289,404,cs),
(363,404,o),
(413,351,o),
(413,245,cs),
(413,139,o),
(363,85,o),
(289,85,cs)
);
}
);
width = 600;
},
{
background = {
shapes = (
{
closed = 1;
nodes = (
(297,-10,o),
(359,29,o),
(395,92,c),
(389,92,l),
(374,0,l),
(496,0,l),
(582,544,l),
(670,544,l),
(684,632,l),
(596,632,l),
(608,705,l),
(483,705,l),
(472,632,l),
(283,632,l),
(269,544,l),
(458,544,l),
(434,393,l),
(441,392,l),
(418,463,o),
(356,499,o),
(281,499,cs),
(129,499,o),
(36,368,o),
(36,201,cs),
(36,72,o),
(109,-10,o),
(220,-10,cs)
);
},
{
closed = 1;
nodes = (
(202,85,o),
(162,128,o),
(162,207,cs),
(162,318,o),
(214,404,o),
(305,404,cs),
(372,404,o),
(412,361,o),
(412,282,cs),
(412,171,o),
(360,85,o),
(269,85,cs)
);
}
);
};
layerId = "8FF16B21-C988-4EC9-A448-39B9B4A4BD78";
shapes = (
{
closed = 1;
nodes = (
(297,-10,o),
(359,29,o),
(395,92,c),
(394,122,l),
(385,67,ls),
(377,21,o),
(394,-8,o),
(433,-8,cs),
(474,-8,o),
(498,14,o),
(505,56,cs),
(582,544,l),
(629,544,ls),
(662,544,o),
(683,563,o),
(683,596,cs),
(683,619,o),
(665,632,o),
(635,632,cs),
(570,632,l),
(588,582,l),
(598,644,ls),
(606,691,o),
(586,713,o),
(547,713,cs),
(506,713,o),
(481,693,o),
(475,652,cs),
(464,582,l),
(496,632,l),
(323,632,ls),
(290,632,o),
(270,612,o),
(270,580,cs),
(270,556,o),
(287,544,o),
(318,544,cs),
(458,544,l),
(434,393,l),
(441,392,l),
(418,463,o),
(357,499,o),
(282,499,cs),
(129,499,o),
(36,368,o),
(36,201,cs),
(36,72,o),
(109,-10,o),
(220,-10,cs)
);
},
{
closed = 1;
nodes = (
(202,85,o),
(162,128,o),
(162,207,cs),
(162,318,o),
(214,404,o),
(305,404,cs),
(372,404,o),
(412,361,o),
(412,282,cs),
(412,172,o),
(360,85,o),
(269,85,cs)
);
}
);
width = 600;
}
);
unicode = 273;
userData = {
com.typemytype.robofont.layerData = {
b = {
anchors = (
);
components = (
);
contours = (
);
lib = {
};
name = dcroat;
unicodes = (
);
width = 1181;
};
};
};
}
{
color = 6;
glyphname = iogonek;
kernLeft = h;
kernRight = l;
layers = (
{
background = {
shapes = (
{
ref = idotless;
},
{
pos = (106,0);
ref = dotaccentcomb.i;
},
{
pos = (127,0);
ref = ogonekcomb;
}
);
};
layerId = "F1F93986-3ED8-4AAE-84C4-CA3EEECDDFA0";
shapes = (
{
closed = 1;
nodes = (
(129,-190,o),
(146,-188,o),
(165,-181,cs),
(183,-174,o),
(181,-138,o),
(154,-147,cs),
(142,-151,o),
(130,-154,o),
(115,-154,cs),
(82,-154,o),
(55,-136,o),
(55,-94,cs),
(55,-59,o),
(73,-34,o),
(116,-3,cs),
(122,1,o),
(127,9,o),
(127,19,cs),
(127,463,ls),
(127,477,o),
(119,487,o),
(106,487,cs),
(93,487,o),
(85,477,o),
(85,463,cs),
(85,19,l),
(85,14,o),
(87,8,o),
(88,5,c),
(97,26,l),
(46,-4,o),
(16,-51,o),
(16,-98,cs),
(16,-154,o),
(55,-190,o),
(110,-190,cs)
);
},
{
closed = 1;
nodes = (
(125,601,o),
(141,617,o),
(141,636,cs),
(141,655,o),
(125,670,o),
(106,670,cs),
(87,670,o),
(71,655,o),
(71,636,cs),
(71,617,o),
(87,601,o),
(106,601,cs)
);
}
);
width = 212;
},
{
background = {
shapes = (
{
ref = idotless;
},
{
pos = (148,0);
ref = dotaccentcomb.i;
},
{
pos = (200,0);
ref = ogonekcomb;
}
);
};
layerId = "4121B50C-FD42-45C5-8FBE-41E76D98F91E";
shapes = (
{
closed = 1;
nodes = (
(193,-200,o),
(218,-199,o),
(242,-192,cs),
(303,-174,o),
(299,-90,o),
(227,-99,cs),
(219,-100,o),
(211,-101,o),
(203,-101,cs),
(173,-101,o),
(151,-85,o),
(151,-60,cs),
(151,-39,o),
(163,-15,o),
(196,-2,cs),
(235,14,o),
(252,52,o),
(252,103,cs),
(252,391,ls),
(252,464,o),
(215,504,o),
(148,504,cs),
(81,504,o),
(44,464,o),
(44,391,cs),
(44,103,ls),
(44,56,o),
(60,23,o),
(88,5,c),
(85,19,l),
(53,-6,o),
(32,-43,o),
(32,-84,cs),
(32,-155,o),
(82,-200,o),
(174,-200,cs)
);
},
{
closed = 1;
nodes = (
(221,562,o),
(261,596,o),
(261,659,cs),
(261,722,o),
(221,756,o),
(148,756,cs),
(75,756,o),
(35,722,o),
(35,659,cs),
(35,596,o),
(75,562,o),
(148,562,cs)
);
}
);
width = 296;
},
{
background = {
shapes = (
{
ref = idotless;
},
{
pos = (146,0);
ref = dotaccentcomb.i;
},
{
pos = (89,0);
ref = ogonekcomb;
}
);
};
layerId = "D8D4984A-F5A5-43C0-BF2B-5708C10C5E92";
shapes = (
{
closed = 1;
nodes = (
(74,-190,o),
(97,-187,o),
(115,-180,cs),
(130,-174,o),
(127,-139,o),
(103,-147,cs),
(88,-152,o),
(76,-154,o),
(64,-154,cs),
(27,-154,o),
(9,-132,o),
(9,-99,cs),
(9,-62,o),
(31,-29,o),
(77,-5,cs),
(85,-1,o),
(89,5,o),
(91,15,cs),
(162,465,ls),
(165,481,o),
(158,490,o),
(145,490,cs),
(131,490,o),
(123,483,o),
(121,469,cs),
(50,19,ls),
(49,13,o),
(49,7,o),
(52,1,c),
(60,26,l),
(7,-2,o),
(-30,-47,o),
(-30,-103,cs),
(-30,-154,o),
(2,-190,o),
(59,-190,cs)
);
},
{
closed = 1;
nodes = (
(186,602,o),
(203,617,o),
(205,636,cs),
(207,655,o),
(194,670,o),
(175,670,cs),
(156,670,o),
(139,655,o),
(137,636,cs),
(135,617,o),
(148,602,o),
(167,602,cs)
);
}
);
width = 212;
},
{
background = {
shapes = (
{
ref = idotless;
},
{
pos = (185,0);
ref = dotaccentcomb.i;
},
{
pos = (161,0);
ref = ogonekcomb;
}
);
};
layerId = "C92D7C27-2246-4784-91DF-7F4E0C5E615D";
shapes = (
{
closed = 1;
nodes = (
(143,-200,o),
(175,-196,o),
(197,-189,cs),
(251,-172,o),
(245,-86,o),
(184,-98,cs),
(169,-101,o),
(161,-101,o),
(154,-101,cs),
(128,-101,o),
(107,-86,o),
(107,-63,cs),
(107,-44,o),
(119,-14,o),
(160,-1,cs),
(193,10,o),
(219,41,o),
(227,93,cs),
(273,383,ls),
(285,459,o),
(253,504,o),
(188,504,cs),
(119,504,o),
(79,469,o),
(68,401,cs),
(22,111,ls),
(13,59,o),
(26,22,o),
(55,3,c),
(56,23,l),
(15,-7,o),
(-12,-50,o),
(-12,-98,cs),
(-12,-161,o),
(31,-200,o),
(121,-200,cs)
);
},
{
closed = 1;
nodes = (
(273,562,o),
(316,595,o),
(327,659,cs),
(338,721,o),
(300,756,o),
(229,756,cs),
(154,756,o),
(111,723,o),
(101,659,cs),
(91,597,o),
(127,562,o),
(198,562,cs)
);
}
);
width = 296;
},
{
background = {
shapes = (
{
ref = idotless;
},
{
pos = (127,0);
ref = dotaccentcomb.i;
},
{
pos = (164,0);
ref = ogonekcomb;
}
);
};
layerId = "18203F29-5161-4D9B-8394-C173CC5E27D4";
shapes = (
{
closed = 1;
nodes = (
(162,-195,o),
(185,-194,o),
(206,-186,cs),
(245,-171,o),
(238,-111,o),
(190,-124,cs),
(179,-127,o),
(169,-128,o),
(160,-128,cs),
(128,-128,o),
(104,-111,o),
(104,-77,cs),
(104,-45,o),
(129,-20,o),
(156,-4,cs),
(177,8,o),
(190,30,o),
(190,61,cs),
(190,428,ls),
(190,472,o),
(167,496,o),
(127,496,cs),
(87,496,o),
(65,472,o),
(65,428,cs),
(65,61,ls),
(65,37,o),
(72,18,o),
(86,6,c),
(89,21,l),
(49,-7,o),
(25,-47,o),
(25,-91,cs),
(25,-155,o),
(69,-195,o),
(143,-195,cs)
);
},
{
closed = 1;
nodes = (
(166,565,o),
(197,596,o),
(197,635,cs),
(197,674,o),
(166,705,o),
(127,705,cs),
(88,705,o),
(57,674,o),
(57,635,cs),
(57,596,o),
(88,565,o),
(127,565,cs)
);
}
);
width = 255;
},
{
background = {
shapes = (
{
ref = idotless;
},
{
pos = (166,0);
ref = dotaccentcomb.i;
},
{
pos = (125,0);
ref = ogonekcomb;
}
);
};
layerId = "8FF16B21-C988-4EC9-A448-39B9B4A4BD78";
shapes = (
{
closed = 1;
nodes = (
(110,-195,o),
(136,-191,o),
(156,-184,cs),
(189,-172,o),
(185,-111,o),
(143,-123,cs),
(129,-127,o),
(119,-128,o),
(109,-128,cs),
(78,-128,o),
(58,-109,o),
(58,-81,cs),
(58,-48,o),
(80,-20,o),
(118,-3,cs),
(143,8,o),
(155,26,o),
(159,54,cs),
(218,424,ls),
(225,470,o),
(206,497,o),
(167,497,cs),
(125,497,o),
(102,476,o),
(95,435,cs),
(36,65,ls),
(32,41,o),
(36,21,o),
(46,8,c),
(52,21,l),
(10,-6,o),
(-21,-46,o),
(-21,-103,cs),
(-21,-155,o),
(14,-195,o),
(86,-195,cs)
);
},
{
closed = 1;
nodes = (
(222,565,o),
(257,596,o),
(261,635,cs),
(266,674,o),
(239,705,o),
(200,705,cs),
(161,705,o),
(126,674,o),
(121,635,cs),
(117,596,o),
(144,565,o),
(183,565,cs)
);
}
);
width = 255;
}
);
unicode = 303;
}
{
color = 10;
glyphname = oe;
kernLeft = o;
kernRight = e;
layers = (
{
.lastUpdate = 786030174.199;
anchors = (
{
name = bottom;
pos = (469,0);
},
{
name = top;
pos = (469,484);
}
);
background = {
anchors = (
{
name = bottom;
pos = (469,0);
},
{
name = top;
pos = (469,484);
}
);
shapes = (
{
closed = 1;
nodes = (
(377,-8,o),
(451,55,o),
(476,160,c),
(458,160,l),
(483,50,o),
(562,-8,o),
(678,-8,cs),
(746,-8,o),
(815,18,o),
(855,60,c),
(835,94,l),
(783,50,o),
(733,31,o),
(676,31,cs),
(556,31,o),
(491,109,o),
(491,240,cs),
(491,246,ls),
(491,364,o),
(554,454,o),
(666,454,cs),
(770,454,o),
(824,380,o),
(824,262,c),
(840,271,l),
(471,271,l),
(471,234,l),
(863,234,l),
(863,260,ls),
(863,405,o),
(790,492,o),
(670,492,cs),
(565,492,o),
(485,429,o),
(459,321,c),
(478,321,l),
(453,428,o),
(378,492,o),
(274,492,cs),
(142,492,o),
(58,394,o),
(58,242,cs),
(58,90,o),
(142,-8,o),
(274,-8,cs)
);
},
{
closed = 1;
nodes = (
(168,31,o),
(101,109,o),
(101,242,cs),
(101,375,o),
(168,453,o),
(274,453,cs),
(380,453,o),
(447,375,o),
(447,242,cs),
(447,109,o),
(380,31,o),
(274,31,cs)
);
}
);
};
layerId = "F1F93986-3ED8-4AAE-84C4-CA3EEECDDFA0";
shapes = (
{
alignment = -1;
pos = (5,0);
ref = o;
},
{
alignment = -1;
pos = (413,0);
ref = e;
}
);
width = 936;
},
{
.lastUpdate = 786030073.181;
anchors = (
{
name = bottom;
pos = (479,0);
},
{
name = top;
pos = (479,484);
}
);
background = {
anchors = (
{
name = bottom;
pos = (479,0);
},
{
name = top;
pos = (479,484);
}
);
shapes = (
{
closed = 1;
nodes = (
(385,-12,o),
(453,18,o),
(501,72,c),
(464,72,l),
(512,19,o),
(586,-12,o),
(684,-12,cs),
(755,-12,o),
(837,10,o),
(891,45,c),
(841,181,l),
(800,155,o),
(741,139,o),
(694,139,cs),
(613,139,o),
(581,168,o),
(581,255,cs),
(581,264,ls),
(581,340,o),
(608,373,o),
(659,373,cs),
(704,373,o),
(731,347,o),
(731,286,c),
(746,297,l),
(561,297,l),
(561,206,l),
(899,206,l),
(899,246,ls),
(899,407,o),
(802,506,o),
(647,506,cs),
(571,506,o),
(509,482,o),
(462,434,c),
(499,434,l),
(451,481,o),
(384,506,o),
(296,506,cs),
(127,506,o),
(19,407,o),
(19,250,cs),
(19,90,o),
(127,-12,o),
(296,-12,cs)
);
},
{
closed = 1;
nodes = (
(261,140,o),
(228,170,o),
(228,248,cs),
(228,325,o),
(260,354,o),
(303,354,cs),
(346,354,o),
(378,325,o),
(378,248,cs),
(378,170,o),
(347,140,o),
(304,140,cs)
);
}
);
};
layerId = "4121B50C-FD42-45C5-8FBE-41E76D98F91E";
shapes = (
{
alignment = -1;
ref = o;
},
{
alignment = -1;
pos = (381,0);
ref = e;
}
);
width = 927;
},
{
.lastUpdate = 786030073.34;
anchors = (
{
name = bottom;
pos = (420,0);
},
{
name = top;
pos = (497,484);
}
);
background = {
anchors = (
{
name = bottom;
pos = (420,0);
},
{
name = top;
pos = (497,484);
}
);
shapes = (
{
closed = 1;
nodes = (
(352,-8,o),
(425,62,o),
(459,157,c),
(438,157,l),
(454,53,o),
(527,-8,o),
(641,-8,cs),
(705,-8,o),
(778,15,o),
(821,61,c),
(799,92,l),
(753,48,o),
(701,31,o),
(639,31,cs),
(520,31,o),
(460,118,o),
(481,246,cs),
(484,264,ls),
(499,355,o),
(555,454,o),
(680,454,cs),
(795,454,o),
(832,366,o),
(817,259,c),
(836,271,l),
(470,271,l),
(464,234,l),
(852,234,l),
(855,252,ls),
(875,372,o),
(825,492,o),
(681,492,cs),
(567,492,o),
(490,420,o),
(455,322,c),
(477,322,l),
(464,429,o),
(395,492,o),
(288,492,cs),
(131,492,o),
(46,354,o),
(46,200,cs),
(46,70,o),
(121,-8,o),
(240,-8,cs)
);
},
{
closed = 1;
nodes = (
(146,31,o),
(89,88,o),
(89,198,cs),
(89,337,o),
(158,453,o),
(286,453,cs),
(382,453,o),
(439,396,o),
(439,286,cs),
(439,147,o),
(370,31,o),
(242,31,cs)
);
}
);
};
layerId = "D8D4984A-F5A5-43C0-BF2B-5708C10C5E92";
shapes = (
{
alignment = -1;
ref = o;
},
{
alignment = -1;
pos = (388,0);
ref = e;
}
);
width = 910;
},
{
.lastUpdate = 786030073.653;
anchors = (
{
name = bottom;
pos = (470,0);
},
{
name = top;
pos = (546,484);
}
);
background = {
anchors = (
{
name = bottom;
pos = (470,0);
},
{
name = top;
pos = (546,484);
}
);
shapes = (
{
closed = 1;
nodes = (
(389,-12,o),
(470,14,o),
(528,71,c),
(473,71,l),
(521,19,o),
(596,-12,o),
(688,-12,cs),
(773,-12,o),
(843,10,o),
(894,45,c),
(854,180,l),
(816,155,o),
(764,140,o),
(708,140,cs),
(635,140,o),
(598,172,o),
(610,241,cs),
(618,288,ls),
(627,339,o),
(652,373,o),
(699,373,cs),
(754,373,o),
(775,337,o),
(766,286,c),
(780,297,l),
(593,297,l),
(579,206,l),
(920,206,l),
(925,236,ls),
(951,391,o),
(872,506,o),
(701,506,cs),
(626,506,o),
(557,480,o),
(505,435,c),
(544,435,l),
(500,480,o),
(434,506,o),
(351,506,cs),
(206,506,o),
(49,421,o),
(49,223,cs),
(49,83,o),
(145,-12,o),
(315,-12,cs)
);
},
{
closed = 1;
nodes = (
(281,140,o),
(258,168,o),
(258,216,cs),
(258,299,o),
(293,354,o),
(347,354,cs),
(385,354,o),
(408,326,o),
(408,278,cs),
(408,195,o),
(373,140,o),
(319,140,cs)
);
}
);
};
layerId = "C92D7C27-2246-4784-91DF-7F4E0C5E615D";
shapes = (
{
alignment = -1;
pos = (30,0);
ref = o;
},
{
alignment = -1;
pos = (399,0);
ref = e;
}
);
width = 973;
},
{
.lastUpdate = 786030072.996;
anchors = (
{
name = bottom;
pos = (469,0);
},
{
name = top;
pos = (468,484);
}
);
background = {
anchors = (
{
name = bottom;
pos = (468,0);
},
{
name = top;
pos = (468,484);
}
);
shapes = (
{
closed = 1;
nodes = (
(375,-10,o),
(446,37,o),
(483,116,c),
(452,116,l),
(485,35,o),
(567,-10,o),
(675,-10,cs),
(745,-10,o),
(820,14,o),
(867,53,c),
(832,138,l),
(786,103,o),
(732,85,o),
(677,85,cs),
(575,85,o),
(530,141,o),
(530,250,cs),
(530,257,ls),
(530,359,o),
(577,414,o),
(656,414,cs),
(730,414,o),
(771,364,o),
(771,275,c),
(787,288,l),
(510,288,l),
(510,216,l),
(875,216,l),
(875,253,ls),
(875,405,o),
(789,499,o),
(653,499,cs),
(562,499,o),
(487,448,o),
(455,378,c),
(483,378,l),
(446,455,o),
(375,499,o),
(279,499,cs),
(129,499,o),
(33,401,o),
(33,246,cs),
(33,90,o),
(129,-10,o),
(279,-10,cs)
);
},
{
closed = 1;
nodes = (
(209,85,o),
(159,140,o),
(159,245,cs),
(159,350,o),
(208,404,o),
(283,404,cs),
(357,404,o),
(407,350,o),
(407,245,cs),
(407,140,o),
(358,85,o),
(283,85,cs)
);
}
);
};
layerId = "18203F29-5161-4D9B-8394-C173CC5E27D4";
shapes = (
{
alignment = -1;
ref = o;
},
{
alignment = -1;
pos = (383,0);
ref = e;
}
);
width = 932;
},
{
.lastUpdate = 786030073.5;
anchors = (
{
name = bottom;
pos = (429,0);
},
{
name = top;
pos = (507,484);
}
);
background = {
anchors = (
{
name = bottom;
pos = (430,0);
},
{
name = top;
pos = (507,484);
}
);
shapes = (
{
closed = 1;
nodes = (
(355,-10,o),
(432,38,o),
(478,114,c),
(440,114,l),
(472,36,o),
(547,-10,o),
(650,-10,cs),
(724,-10,o),
(796,13,o),
(843,53,c),
(812,136,l),
(770,102,o),
(718,86,o),
(659,86,cs),
(563,86,o),
(514,145,o),
(530,244,cs),
(535,276,ls),
(546,347,o),
(589,414,o),
(675,414,cs),
(760,414,o),
(789,352,o),
(777,273,c),
(793,288,l),
(516,288,l),
(506,216,l),
(871,216,l),
(875,244,ls),
(895,382,o),
(834,499,o),
(676,499,cs),
(582,499,o),
(508,450,o),
(464,379,c),
(495,379,l),
(466,455,o),
(399,499,o),
(304,499,cs),
(153,499,o),
(32,388,o),
(32,212,cs),
(32,77,o),
(117,-10,o),
(262,-10,cs)
);
},
{
closed = 1;
nodes = (
(198,86,o),
(158,128,o),
(158,207,cs),
(158,318,o),
(210,404,o),
(301,404,cs),
(368,404,o),
(408,361,o),
(408,282,cs),
(408,171,o),
(356,86,o),
(265,86,cs)
);
}
);
};
layerId = "8FF16B21-C988-4EC9-A448-39B9B4A4BD78";
shapes = (
{
alignment = -1;
ref = o;
},
{
alignment = -1;
pos = (379,0);
ref = e;
}
);
width = 920;
}
);
unicode = 339;
}
{
color = 10;
glyphname = Dhook;
kernLeft = Bhook;
kernRight = O;
layers = (
{
.lastUpdate = 786030174.255;
background = {
shapes = (
{
closed = 1;
nodes = (
(414,0,ls),
(635,0,o),
(759,123,o),
(759,353,cs),
(759,583,o),
(635,705,o),
(414,705,cs),
(160,705,ls),
(53,705,o),
(0,654,o),
(0,551,cs),
(0,506,l),
(39,506,l),
(39,548,ls),
(39,629,o),
(78,666,o),
(159,666,cs),
(197,666,l),
(197,0,l)
);
},
{
closed = 1;
nodes = (
(239,666,l),
(410,666,ls),
(613,666,o),
(714,561,o),
(714,353,cs),
(714,145,o),
(613,39,o),
(410,39,cs),
(239,39,l)
);
}
);
};
layerId = "F1F93986-3ED8-4AAE-84C4-CA3EEECDDFA0";
shapes = (
{
alignment = -1;
pos = (143,0);
ref = downlefthook;
},
{
alignment = -1;
pos = (143,0);
ref = D;
}
);
width = 819;
},
{
.lastUpdate = 786030073.136;
background = {
shapes = (
{
closed = 1;
nodes = (
(564,0,ls),
(814,0,o),
(958,130,o),
(958,353,cs),
(958,575,o),
(814,705,o),
(564,705,cs),
(245,705,ls),
(83,705,o),
(0,629,o),
(0,490,cs),
(0,432,l),
(171,432,l),
(171,484,ls),
(171,539,o),
(192,561,o),
(242,561,cs),
(256,561,l),
(256,0,l)
);
},
{
closed = 1;
nodes = (
(471,531,l),
(551,531,ls),
(675,531,o),
(735,475,o),
(735,353,cs),
(735,231,o),
(676,174,o),
(551,174,cs),
(471,174,l)
);
}
);
};
layerId = "4121B50C-FD42-45C5-8FBE-41E76D98F91E";
shapes = (
{
alignment = -1;
pos = (143,0);
ref = downlefthook;
},
{
alignment = -1;
pos = (198,0);
ref = D;
}
);
width = 958;
},
{
.lastUpdate = 786030073.292;
background = {
shapes = (
{
closed = 1;
nodes = (
(385,0,ls),
(664,0,o),
(780,190,o),
(780,416,cs),
(780,600,o),
(665,705,o),
(461,705,cs),
(233,705,ls),
(113,705,o),
(65,654,o),
(49,551,cs),
(42,506,l),
(81,506,l),
(88,548,ls),
(103,636,o),
(145,666,o),
(226,666,cs),
(265,666,l),
(159,0,l)
);
},
{
closed = 1;
nodes = (
(306,666,l),
(460,666,ls),
(643,666,o),
(735,578,o),
(735,416,cs),
(735,215,o),
(642,39,o),
(387,39,cs),
(207,39,l)
);
}
);
};
layerId = "D8D4984A-F5A5-43C0-BF2B-5708C10C5E92";
shapes = (
{
alignment = -1;
pos = (143,0);
ref = downlefthook;
},
{
alignment = -1;
pos = (99,0);
ref = D;
}
);
width = 827;
},
{
.lastUpdate = 786030073.609;
background = {
shapes = (
{
closed = 1;
nodes = (
(563,0,ls),
(826,0,o),
(976,164,o),
(975,392,cs),
(974,587,o),
(837,705,o),
(593,705,cs),
(306,705,ls),
(144,705,o),
(62,644,o),
(41,504,cs),
(30,432,l),
(201,432,l),
(208,478,ls),
(216,533,o),
(241,561,o),
(291,561,cs),
(306,561,l),
(217,0,l)
);
},
{
closed = 1;
nodes = (
(517,531,l),
(593,531,ls),
(698,531,o),
(752,481,o),
(752,388,cs),
(752,250,o),
(683,174,o),
(565,174,cs),
(459,174,l)
);
}
);
};
layerId = "C92D7C27-2246-4784-91DF-7F4E0C5E615D";
shapes = (
{
alignment = -1;
pos = (143,0);
ref = downlefthook;
},
{
alignment = -1;
pos = (194,0);
ref = D;
}
);
width = 997;
},
{
.lastUpdate = 786030072.947;
background = {
shapes = (
{
closed = 1;
nodes = (
(489,0,ls),
(725,0,o),
(859,127,o),
(859,353,cs),
(859,579,o),
(725,705,o),
(489,705,cs),
(203,705,ls),
(68,705,o),
(0,642,o),
(0,521,cs),
(0,469,l),
(105,469,l),
(105,516,ls),
(105,584,o),
(135,614,o),
(201,614,cs),
(227,614,l),
(227,0,l)
);
},
{
closed = 1;
nodes = (
(355,599,l),
(481,599,ls),
(644,599,o),
(725,518,o),
(725,353,cs),
(725,188,o),
(645,106,o),
(481,106,cs),
(355,106,l)
);
}
);
};
layerId = "18203F29-5161-4D9B-8394-C173CC5E27D4";
shapes = (
{
alignment = -1;
pos = (143,0);
ref = downlefthook;
},
{
alignment = -1;
pos = (160,0);
ref = D;
}
);
width = 879;
},
{
.lastUpdate = 786030073.452;
background = {
shapes = (
{
closed = 1;
nodes = (
(473,0,ls),
(744,0,o),
(877,177,o),
(877,404,cs),
(876,594,o),
(750,705,o),
(526,705,cs),
(270,705,ls),
(129,705,o),
(64,649,o),
(45,528,cs),
(36,469,l),
(141,469,l),
(148,513,ls),
(160,585,o),
(193,614,o),
(259,614,cs),
(286,614,l),
(188,0,l)
);
},
{
closed = 1;
nodes = (
(411,599,l),
(526,599,ls),
(670,599,o),
(743,530,o),
(743,402,cs),
(743,233,o),
(662,106,o),
(475,106,cs),
(333,106,l)
);
}
);
};
layerId = "8FF16B21-C988-4EC9-A448-39B9B4A4BD78";
shapes = (
{
alignment = -1;
pos = (143,0);
ref = downlefthook;
},
{
alignment = -1;
pos = (149,0);
ref = D;
}
);
width = 914;
}
);
unicode = 394;
}
{
color = 6;
glyphname = bhook;
kernLeft = h;
kernRight = o;
layers = (
{
background = {
shapes = (
{
closed = 1;
nodes = (
(431,-8,o),
(515,89,o),
(515,242,cs),
(515,395,o),
(432,492,o),
(300,492,cs),
(207,492,o),
(138,440,o),
(116,358,c),
(127,358,l),
(127,566,ls),
(127,636,o),
(161,675,o),
(229,675,cs),
(242,675,o),
(250,674,o),
(268,669,c),
(274,706,l),
(259,711,o),
(245,713,o),
(227,713,cs),
(135,713,o),
(85,661,o),
(85,564,cs),
(85,0,l),
(127,0,l),
(127,126,l),
(116,126,l),
(138,44,o),
(207,-8,o),
(300,-8,cs)
);
},
{
closed = 1;
nodes = (
(193,31,o),
(126,109,o),
(126,242,cs),
(126,375,o),
(193,453,o),
(299,453,cs),
(405,453,o),
(472,375,o),
(472,242,cs),
(472,109,o),
(405,31,o),
(299,31,cs)
);
}
);
};
layerId = "F1F93986-3ED8-4AAE-84C4-CA3EEECDDFA0";
shapes = (
{
closed = 1;
nodes = (
(431,-8,o),
(515,89,o),
(515,242,cs),
(515,395,o),
(432,492,o),
(300,492,cs),
(207,492,o),
(138,440,o),
(116,358,c),
(127,358,l),
(127,565,ls),
(127,635,o),
(161,674,o),
(229,674,cs),
(241,674,o),
(250,672,o),
(258,672,cs),
(269,672,o),
(277,680,o),
(277,691,cs),
(277,707,o),
(261,712,o),
(227,712,cs),
(135,712,o),
(85,660,o),
(85,563,cs),
(85,16,ls),
(85,2,o),
(93,-6,o),
(106,-6,cs),
(119,-6,o),
(127,2,o),
(127,16,cs),
(127,126,l),
(116,126,l),
(138,44,o),
(207,-8,o),
(300,-8,cs)
);
},
{
closed = 1;
nodes = (
(193,31,o),
(126,109,o),
(126,242,cs),
(126,375,o),
(193,453,o),
(299,453,cs),
(405,453,o),
(472,375,o),
(472,242,cs),
(472,109,o),
(405,31,o),
(299,31,cs)
);
}
);
width = 568;
},
{
background = {
shapes = (
{
closed = 1;
nodes = (
(518,-12,o),
(608,86,o),
(608,247,cs),
(608,408,o),
(519,506,o),
(393,506,cs),
(324,506,o),
(260,470,o),
(240,421,c),
(252,421,l),
(252,476,ls),
(252,529,o),
(275,558,o),
(317,558,cs),
(331,558,o),
(342,557,o),
(357,553,c),
(380,704,l),
(359,712,o),
(321,717,o),
(297,717,cs),
(127,717,o),
(44,622,o),
(44,480,cs),
(44,0,l),
(247,0,l),
(247,81,l),
(238,81,l),
(256,26,o),
(321,-12,o),
(393,-12,cs)
);
},
{
closed = 1;
nodes = (
(281,140,o),
(249,168,o),
(249,247,cs),
(249,326,o),
(281,354,o),
(324,354,cs),
(367,354,o),
(399,326,o),
(399,247,cs),
(399,168,o),
(367,140,o),
(324,140,cs)
);
}
);
};
layerId = "4121B50C-FD42-45C5-8FBE-41E76D98F91E";
shapes = (
{
closed = 1;
nodes = (
(518,-12,o),
(608,86,o),
(608,247,cs),
(608,408,o),
(519,506,o),
(393,506,cs),
(324,506,o),
(260,470,o),
(240,421,c),
(252,421,l),
(252,479,ls),
(252,533,o),
(274,556,o),
(312,556,cs),
(324,556,o),
(334,554,o),
(340,554,cs),
(373,554,o),
(388,584,o),
(388,637,cs),
(388,682,o),
(364,715,o),
(287,715,cs),
(127,715,o),
(44,620,o),
(44,478,cs),
(44,95,ls),
(44,27,o),
(80,-10,o),
(147,-10,cs),
(213,-10,o),
(249,27,o),
(249,95,cs),
(249,131,l),
(238,81,l),
(256,26,o),
(321,-12,o),
(393,-12,cs)
);
},
{
closed = 1;
nodes = (
(281,140,o),
(249,168,o),
(249,247,cs),
(249,326,o),
(281,354,o),
(324,354,cs),
(367,354,o),
(399,326,o),
(399,247,cs),
(399,168,o),
(367,140,o),
(324,140,cs)
);
}
);
width = 632;
},
{
background = {
shapes = (
{
closed = 1;
nodes = (
(433,-8,o),
(517,130,o),
(517,286,cs),
(517,413,o),
(441,492,o),
(327,492,cs),
(237,492,o),
(170,445,o),
(136,371,c),
(148,371,l),
(179,566,ls),
(190,639,o),
(231,675,o),
(298,675,cs),
(311,675,o),
(319,674,o),
(336,669,c),
(348,706,l),
(334,711,o),
(318,713,o),
(300,713,cs),
(204,713,o),
(153,668,o),
(137,567,cs),
(47,0,l),
(89,0,l),
(108,122,l),
(101,122,l),
(124,33,o),
(194,-8,o),
(275,-8,cs)
);
},
{
closed = 1;
nodes = (
(181,31,o),
(124,88,o),
(124,198,cs),
(124,337,o),
(193,453,o),
(321,453,cs),
(417,453,o),
(474,396,o),
(474,286,cs),
(474,147,o),
(405,31,o),
(277,31,cs)
);
}
);
};
layerId = "D8D4984A-F5A5-43C0-BF2B-5708C10C5E92";
shapes = (
{
closed = 1;
nodes = (
(433,-8,o),
(517,130,o),
(517,286,cs),
(517,413,o),
(441,492,o),
(327,492,cs),
(237,492,o),
(170,445,o),
(136,371,c),
(148,371,l),
(179,566,ls),
(190,639,o),
(231,675,o),
(295,675,cs),
(305,675,o),
(322,673,o),
(327,673,cs),
(339,673,o),
(349,679,o),
(349,691,cs),
(349,706,o),
(335,713,o),
(298,713,cs),
(204,713,o),
(153,668,o),
(137,567,cs),
(50,19,ls),
(47,3,o),
(55,-6,o),
(68,-6,cs),
(82,-6,o),
(89,1,o),
(91,15,cs),
(108,122,l),
(101,122,l),
(124,33,o),
(194,-8,o),
(275,-8,cs)
);
},
{
closed = 1;
nodes = (
(181,31,o),
(124,88,o),
(124,198,cs),
(124,337,o),
(193,453,o),
(321,453,cs),
(417,453,o),
(474,396,o),
(474,286,cs),
(474,147,o),
(405,31,o),
(277,31,cs)
);
}
);
width = 568;
},
{
background = {
shapes = (
{
closed = 1;
nodes = (
(507,-12,o),
(610,113,o),
(610,290,cs),
(610,422,o),
(539,506,o),
(429,506,cs),
(366,506,o),
(308,476,o),
(270,423,c),
(280,423,l),
(288,476,ls),
(296,529,o),
(325,558,o),
(367,558,cs),
(381,558,o),
(392,557,o),
(406,553,c),
(451,699,l),
(431,707,o),
(396,717,o),
(362,717,cs),
(188,717,o),
(106,641,o),
(81,482,cs),
(5,0,l),
(208,0,l),
(219,72,l),
(214,72,l),
(237,19,o),
(291,-12,o),
(359,-12,cs)
);
},
{
closed = 1;
nodes = (
(274,140,o),
(251,168,o),
(251,216,cs),
(251,298,o),
(286,354,o),
(340,354,cs),
(378,354,o),
(401,326,o),
(401,278,cs),
(401,195,o),
(366,140,o),
(312,140,cs)
);
}
);
};
layerId = "C92D7C27-2246-4784-91DF-7F4E0C5E615D";
shapes = (
{
closed = 1;
nodes = (
(507,-12,o),
(610,113,o),
(610,290,cs),
(610,422,o),
(539,506,o),
(429,506,cs),
(366,506,o),
(308,476,o),
(270,423,c),
(280,423,l),
(289,480,ls),
(297,531,o),
(321,558,o),
(364,558,cs),
(374,558,o),
(390,556,o),
(397,556,cs),
(425,556,o),
(443,601,o),
(443,644,cs),
(443,690,o),
(419,717,o),
(352,717,cs),
(188,717,o),
(106,641,o),
(81,482,cs),
(23,111,ls),
(11,35,o),
(42,-10,o),
(106,-10,cs),
(175,-10,o),
(215,26,o),
(225,94,cs),
(229,122,l),
(214,72,l),
(237,19,o),
(291,-12,o),
(359,-12,cs)
);
},
{
closed = 1;
nodes = (
(274,140,o),
(251,168,o),
(251,216,cs),
(251,298,o),
(286,354,o),
(340,354,cs),
(378,354,o),
(401,326,o),
(401,278,cs),
(401,195,o),
(366,140,o),
(312,140,cs)
);
}
);
width = 632;
},
{
background = {
shapes = (
{
closed = 1;
nodes = (
(475,-10,o),
(562,88,o),
(562,245,cs),
(562,402,o),
(476,499,o),
(347,499,cs),
(266,499,o),
(199,455,o),
(178,390,c),
(190,390,l),
(190,521,ls),
(190,582,o),
(218,616,o),
(273,616,cs),
(287,616,o),
(296,615,o),
(313,611,c),
(327,705,l),
(309,711,o),
(283,715,o),
(262,715,cs),
(131,715,o),
(65,641,o),
(65,522,cs),
(65,0,l),
(187,0,l),
(187,104,l),
(177,104,l),
(197,35,o),
(264,-10,o),
(347,-10,cs)
);
},
{
closed = 1;
nodes = (
(237,85,o),
(188,139,o),
(188,245,cs),
(188,351,o),
(237,404,o),
(312,404,cs),
(386,404,o),
(436,351,o),
(436,245,cs),
(436,139,o),
(386,85,o),
(312,85,cs)
);
}
);
};
layerId = "18203F29-5161-4D9B-8394-C173CC5E27D4";
shapes = (
{
closed = 1;
nodes = (
(475,-10,o),
(562,88,o),
(562,245,cs),
(562,402,o),
(476,499,o),
(347,499,cs),
(266,499,o),
(199,455,o),
(178,390,c),
(190,390,l),
(190,522,ls),
(190,584,o),
(221,616,o),
(271,616,cs),
(283,616,o),
(291,615,o),
(298,614,cs),
(320,611,o),
(333,632,o),
(333,664,cs),
(333,695,o),
(313,715,o),
(257,715,cs),
(131,715,o),
(65,640,o),
(65,521,cs),
(65,56,ls),
(65,15,o),
(87,-8,o),
(127,-8,cs),
(166,-8,o),
(188,15,o),
(188,56,cs),
(188,129,l),
(177,104,l),
(197,35,o),
(264,-10,o),
(347,-10,cs)
);
},
{
closed = 1;
nodes = (
(237,85,o),
(188,139,o),
(188,245,cs),
(188,351,o),
(237,404,o),
(312,404,cs),
(386,404,o),
(436,351,o),
(436,245,cs),
(436,139,o),
(386,85,o),
(312,85,cs)
);
}
);
width = 600;
},
{
background = {
shapes = (
{
closed = 1;
nodes = (
(471,-10,o),
(564,122,o),
(564,288,cs),
(564,418,o),
(491,499,o),
(379,499,cs),
(302,499,o),
(240,461,o),
(204,397,c),
(214,397,l),
(234,521,ls),
(243,584,o),
(278,617,o),
(333,617,cs),
(346,617,o),
(356,616,o),
(371,611,c),
(400,703,l),
(383,709,o),
(357,715,o),
(331,715,cs),
(196,715,o),
(130,655,o),
(109,525,cs),
(26,0,l),
(148,0,l),
(163,97,l),
(158,97,l),
(181,26,o),
(243,-10,o),
(318,-10,cs)
);
},
{
closed = 1;
nodes = (
(228,85,o),
(188,128,o),
(188,207,cs),
(188,318,o),
(240,404,o),
(331,404,cs),
(398,404,o),
(438,361,o),
(438,282,cs),
(438,171,o),
(386,85,o),
(295,85,cs)
);
}
);
};
layerId = "8FF16B21-C988-4EC9-A448-39B9B4A4BD78";
shapes = (
{
closed = 1;
nodes = (
(471,-10,o),
(564,122,o),
(564,288,cs),
(564,418,o),
(491,499,o),
(379,499,cs),
(302,499,o),
(240,461,o),
(204,397,c),
(214,397,l),
(234,523,ls),
(244,585,o),
(279,617,o),
(333,617,cs),
(345,617,o),
(356,615,o),
(362,615,cs),
(382,615,o),
(396,640,o),
(396,668,cs),
(396,698,o),
(379,715,o),
(327,715,cs),
(197,715,o),
(130,655,o),
(109,525,cs),
(36,65,ls),
(29,19,o),
(50,-8,o),
(89,-8,cs),
(130,-8,o),
(149,13,o),
(156,54,cs),
(167,122,l),
(158,97,l),
(181,26,o),
(243,-10,o),
(318,-10,cs)
);
},
{
closed = 1;
nodes = (
(228,85,o),
(188,128,o),
(188,207,cs),
(188,318,o),
(240,404,o),
(331,404,cs),
(398,404,o),
(438,361,o),
(438,282,cs),
(438,171,o),
(386,85,o),
(295,85,cs)
);
}
);
width = 600;
}
);
unicode = 595;
}
{
color = 6;
glyphname = schwa;
kernLeft = o;
kernRight = o;
layers = (
{
background = {
shapes = (
{
closed = 1;
nodes = (
(382,-8,o),
(470,90,o),
(470,245,cs),
(470,398,o),
(381,492,o),
(237,492,cs),
(168,492,o),
(97,466,o),
(56,424,c),
(76,391,l),
(128,434,o),
(179,453,o),
(239,453,cs),
(358,453,o),
(427,375,o),
(427,243,cs),
(427,237,ls),
(427,106,o),
(358,30,o),
(253,30,cs),
(145,30,o),
(89,100,o),
(89,226,c),
(70,213,l),
(444,213,l),
(444,250,l),
(48,250,l),
(48,227,ls),
(48,78,o),
(123,-8,o),
(252,-8,cs)
);
}
);
};
layerId = "F1F93986-3ED8-4AAE-84C4-CA3EEECDDFA0";
shapes = (
{
closed = 1;
nodes = (
(382,-8,o),
(470,90,o),
(470,245,cs),
(470,398,o),
(381,492,o),
(237,492,cs),
(176,492,o),
(111,471,o),
(68,435,cs),
(48,418,o),
(65,383,o),
(92,403,cs),
(138,438,o),
(186,453,o),
(239,453,cs),
(358,453,o),
(427,375,o),
(427,243,cs),
(427,237,ls),
(427,106,o),
(358,30,o),
(253,30,cs),
(145,30,o),
(89,100,o),
(89,226,c),
(70,213,l),
(444,213,l),
(444,250,l),
(70,250,ls),
(56,250,o),
(48,242,o),
(48,227,cs),
(48,78,o),
(123,-8,o),
(252,-8,cs)
);
}
);
width = 523;
},
{
background = {
shapes = (
{
closed = 1;
nodes = (
(426,-12,o),
(539,94,o),
(539,246,cs),
(539,404,o),
(424,506,o),
(245,506,cs),
(172,506,o),
(92,487,o),
(28,449,c),
(78,313,l),
(129,339,o),
(188,355,o),
(237,355,cs),
(310,355,o),
(346,326,o),
(346,239,cs),
(346,231,ls),
(346,155,o),
(314,121,o),
(262,121,cs),
(223,121,o),
(196,147,o),
(196,208,c),
(175,197,l),
(363,197,l),
(363,288,l),
(20,288,l),
(20,248,ls),
(20,80,o),
(117,-12,o),
(276,-12,cs)
);
}
);
};
layerId = "4121B50C-FD42-45C5-8FBE-41E76D98F91E";
shapes = (
{
closed = 1;
nodes = (
(426,-12,o),
(539,94,o),
(539,246,cs),
(539,404,o),
(424,506,o),
(245,506,cs),
(195,506,o),
(136,496,o),
(88,477,cs),
(-3,442,o),
(40,307,o),
(138,338,cs),
(170,348,o),
(210,355,o),
(237,355,cs),
(310,355,o),
(346,326,o),
(346,239,cs),
(346,231,ls),
(346,155,o),
(314,121,o),
(262,121,cs),
(223,121,o),
(196,147,o),
(196,208,c),
(175,197,l),
(363,197,l),
(363,288,l),
(66,288,ls),
(37,288,o),
(20,274,o),
(20,238,cs),
(20,84,o),
(117,-12,o),
(276,-12,cs)
);
}
);
width = 563;
},
{
background = {
shapes = (
{
closed = 1;
nodes = (
(382,-8,o),
(472,130,o),
(472,284,cs),
(472,414,o),
(393,492,o),
(262,492,cs),
(196,492,o),
(123,469,o),
(80,423,c),
(102,392,l),
(148,436,o),
(200,453,o),
(264,453,cs),
(385,453,o),
(447,366,o),
(426,238,cs),
(423,220,ls),
(408,129,o),
(350,30,o),
(223,30,cs),
(106,30,o),
(69,118,o),
(84,225,c),
(65,213,l),
(437,213,l),
(443,250,l),
(49,250,l),
(46,232,ls),
(26,112,o),
(76,-8,o),
(222,-8,cs)
);
}
);
};
layerId = "D8D4984A-F5A5-43C0-BF2B-5708C10C5E92";
shapes = (
{
closed = 1;
nodes = (
(382,-8,o),
(472,130,o),
(472,284,cs),
(472,414,o),
(393,492,o),
(262,492,cs),
(203,492,o),
(131,472,o),
(90,433,cs),
(69,413,o),
(90,382,o),
(116,404,cs),
(157,439,o),
(208,453,o),
(264,453,cs),
(385,453,o),
(447,366,o),
(426,238,cs),
(423,220,ls),
(408,129,o),
(350,30,o),
(223,30,cs),
(106,30,o),
(69,118,o),
(84,225,c),
(65,213,l),
(437,213,l),
(443,250,l),
(70,250,ls),
(56,250,o),
(48,244,o),
(46,232,cs),
(26,112,o),
(76,-8,o),
(222,-8,cs)
);
}
);
width = 523;
},
{
background = {
shapes = (
{
closed = 1;
nodes = (
(410,-12,o),
(540,96,o),
(540,271,cs),
(540,411,o),
(433,506,o),
(270,506,cs),
(185,506,o),
(106,485,o),
(55,450,c),
(95,310,l),
(133,335,o),
(190,354,o),
(246,354,cs),
(322,354,o),
(355,322,o),
(344,253,cs),
(337,209,ls),
(328,155,o),
(305,121,o),
(256,121,cs),
(215,121,o),
(190,157,o),
(198,208,c),
(180,197,l),
(356,197,l),
(370,288,l),
(29,288,l),
(24,258,ls),
(-2,101,o),
(79,-12,o),
(252,-12,cs)
);
}
);
};
layerId = "C92D7C27-2246-4784-91DF-7F4E0C5E615D";
shapes = (
{
closed = 1;
nodes = (
(410,-12,o),
(540,96,o),
(540,271,cs),
(540,411,o),
(433,506,o),
(270,506,cs),
(216,506,o),
(159,498,o),
(106,476,cs),
(27,443,o),
(60,304,o),
(158,339,cs),
(183,348,o),
(217,354,o),
(246,354,cs),
(322,354,o),
(355,322,o),
(344,253,cs),
(337,209,ls),
(328,155,o),
(305,121,o),
(256,121,cs),
(215,121,o),
(190,157,o),
(198,208,c),
(180,197,l),
(356,197,l),
(370,288,l),
(64,288,ls),
(35,288,o),
(26,278,o),
(22,248,cs),
(1,102,o),
(79,-12,o),
(252,-12,cs)
);
}
);
width = 563;
},
{
background = {
shapes = (
{
closed = 1;
nodes = (
(404,-10,o),
(505,92,o),
(505,246,cs),
(505,401,o),
(403,499,o),
(241,499,cs),
(170,499,o),
(95,477,o),
(42,437,c),
(77,352,l),
(129,387,o),
(184,404,o),
(238,404,cs),
(334,404,o),
(387,351,o),
(387,241,cs),
(387,234,ls),
(387,130,o),
(337,75,o),
(261,75,cs),
(185,75,o),
(143,121,o),
(143,217,c),
(123,201,l),
(404,201,l),
(404,273,l),
(34,273,l),
(34,238,ls),
(34,79,o),
(120,-10,o),
(264,-10,cs)
);
}
);
};
layerId = "18203F29-5161-4D9B-8394-C173CC5E27D4";
shapes = (
{
closed = 1;
nodes = (
(405,-10,o),
(505,94,o),
(505,245,cs),
(505,401,o),
(403,499,o),
(237,499,cs),
(185,499,o),
(119,485,o),
(72,456,cs),
(12,419,o),
(47,335,o),
(116,374,cs),
(155,396,o),
(201,404,o),
(235,404,cs),
(335,404,o),
(387,351,o),
(387,241,cs),
(387,234,ls),
(387,137,o),
(343,75,o),
(259,75,cs),
(180,75,o),
(145,125,o),
(143,216,c),
(123,201,l),
(404,201,l),
(404,273,l),
(83,273,ls),
(52,273,o),
(35,260,o),
(35,236,cs),
(35,81,o),
(118,-10,o),
(262,-10,cs)
);
}
);
width = 543;
},
{
background = {
shapes = (
{
closed = 1;
nodes = (
(395,-10,o),
(506,113,o),
(506,278,cs),
(506,413,o),
(413,499,o),
(266,499,cs),
(191,499,o),
(115,477,o),
(68,437,c),
(99,351,l),
(141,386,o),
(195,404,o),
(255,404,cs),
(354,404,o),
(401,344,o),
(385,246,cs),
(380,215,ls),
(368,142,o),
(327,75,o),
(239,75,cs),
(160,75,o),
(129,138,o),
(140,217,c),
(122,201,l),
(397,201,l),
(407,273,l),
(38,273,l),
(34,245,ls),
(14,107,o),
(77,-10,o),
(236,-10,cs)
);
}
);
};
layerId = "8FF16B21-C988-4EC9-A448-39B9B4A4BD78";
shapes = (
{
closed = 1;
nodes = (
(395,-10,o),
(506,114,o),
(506,277,cs),
(506,412,o),
(414,499,o),
(266,499,cs),
(208,499,o),
(138,484,o),
(91,454,cs),
(36,419,o),
(70,338,o),
(132,374,cs),
(167,394,o),
(214,404,o),
(254,404,cs),
(356,404,o),
(401,343,o),
(385,245,cs),
(380,214,ls),
(369,143,o),
(327,75,o),
(238,75,cs),
(159,75,o),
(128,142,o),
(140,216,c),
(116,201,l),
(395,201,l),
(406,273,l),
(70,273,ls),
(49,273,o),
(38,268,o),
(34,240,cs),
(15,114,o),
(72,-10,o),
(236,-10,cs)
);
}
);
width = 543;
}
);
unicode = 601;
}
{
color = 6;
glyphname = commaturnedmod;
kernLeft = commaturnedmod;
kernRight = commaturnedmod;
layers = (
{
anchors = (
{
name = _top;
pos = (250,484);
},
{
name = top;
pos = (250,685);
}
);
background = {
anchors = (
{
name = _top;
pos = (250,484);
},
{
name = top;
pos = (250,685);
}
);
shapes = (
{
closed = 1;
nodes = (
(284,570,l),
(284,640,l),
(233,640,l),
(252,634,l),
(252,660,o),
(256,686,o),
(285,718,c),
(259,738,l),
(225,705,o),
(215,667,o),
(215,625,cs),
(215,570,l)
);
}
);
};
layerId = "F1F93986-3ED8-4AAE-84C4-CA3EEECDDFA0";
shapes = (
{
closed = 1;
nodes = (
(272,567,o),
(287,583,o),
(287,605,cs),
(287,627,o),
(271,643,o),
(247,643,c),
(250,634,l),
(250,655,o),
(257,681,o),
(273,704,cs),
(291,730,o),
(266,749,o),
(247,725,cs),
(224,696,o),
(213,649,o),
(213,615,cs),
(213,583,o),
(228,567,o),
(251,567,cs)
);
}
);
width = 500;
},
{
anchors = (
{
name = _top;
pos = (250,484);
},
{
name = top;
pos = (250,685);
}
);
background = {
anchors = (
{
name = _top;
pos = (250,484);
},
{
name = top;
pos = (250,685);
}
);
shapes = (
{
closed = 1;
nodes = (
(345,558,l),
(345,697,l),
(212,697,l),
(252,674,l),
(252,702,o),
(262,728,o),
(290,750,c),
(222,795,l),
(170,752,o),
(154,703,o),
(154,638,cs),
(154,558,l)
);
}
);
};
layerId = "4121B50C-FD42-45C5-8FBE-41E76D98F91E";
shapes = (
{
closed = 1;
nodes = (
(315,548,o),
(349,575,o),
(349,627,cs),
(349,680,o),
(315,707,o),
(249,707,c),
(252,674,l),
(252,689,o),
(258,712,o),
(269,728,cs),
(306,782,o),
(236,817,o),
(200,776,cs),
(167,738,o),
(152,688,o),
(152,638,cs),
(152,578,o),
(185,548,o),
(250,548,cs)
);
}
);
width = 500;
},
{
anchors = (
{
name = _top;
pos = (288,484);
},
{
name = top;
pos = (319,685);
}
);
background = {
anchors = (
{
name = _top;
pos = (288,484);
},
{
name = top;
pos = (319,685);
}
);
shapes = (
{
closed = 1;
nodes = (
(336,570,l),
(346,635,l),
(296,635,l),
(310,628,l),
(315,661,o),
(326,688,o),
(363,723,c),
(340,743,l),
(304,711,o),
(281,669,o),
(274,624,cs),
(266,570,l)
);
}
);
};
layerId = "D8D4984A-F5A5-43C0-BF2B-5708C10C5E92";
shapes = (
{
closed = 1;
nodes = (
(330,567,o),
(345,583,o),
(345,605,cs),
(345,627,o),
(329,643,o),
(305,643,c),
(310,634,l),
(314,660,o),
(324,678,o),
(345,701,cs),
(365,723,o),
(342,747,o),
(321,726,cs),
(293,698,o),
(273,654,o),
(273,612,cs),
(273,583,o),
(286,567,o),
(309,567,cs)
);
}
);
width = 500;
},
{
anchors = (
{
name = _top;
pos = (288,484);
},
{
name = top;
pos = (320,685);
}
);
background = {
anchors = (
{
name = _top;
pos = (287,484);
},
{
name = top;
pos = (319,685);
}
);
shapes = (
{
closed = 1;
nodes = (
(394,558,l),
(416,697,l),
(283,697,l),
(319,674,l),
(324,702,o),
(336,724,o),
(367,744,c),
(311,795,l),
(243,755,o),
(227,714,o),
(217,648,cs),
(203,558,l)
);
}
);
};
layerId = "C92D7C27-2246-4784-91DF-7F4E0C5E615D";
shapes = (
{
closed = 1;
nodes = (
(365,548,o),
(410,579,o),
(410,643,cs),
(410,686,o),
(381,707,o),
(322,707,c),
(319,674,l),
(322,689,o),
(328,714,o),
(342,729,cs),
(388,779,o),
(327,821,o),
(282,780,cs),
(241,742,o),
(212,669,o),
(212,616,cs),
(212,571,o),
(241,548,o),
(298,548,cs)
);
}
);
width = 500;
},
{
anchors = (
{
name = _top;
pos = (250,484);
},
{
name = top;
pos = (250,685);
}
);
background = {
anchors = (
{
name = _top;
pos = (250,484);
},
{
name = top;
pos = (250,685);
}
);
shapes = (
{
closed = 1;
nodes = (
(315,564,l),
(315,669,l),
(223,669,l),
(252,654,l),
(252,681,o),
(259,707,o),
(288,734,c),
(241,767,l),
(198,729,o),
(185,685,o),
(185,632,cs),
(185,564,l)
);
}
);
};
layerId = "18203F29-5161-4D9B-8394-C173CC5E27D4";
shapes = (
{
closed = 1;
nodes = (
(294,558,o),
(318,579,o),
(318,616,cs),
(318,654,o),
(293,675,o),
(248,675,c),
(251,654,l),
(251,672,o),
(258,697,o),
(271,716,cs),
(299,756,o),
(251,783,o),
(224,751,cs),
(196,717,o),
(183,669,o),
(183,627,cs),
(183,581,o),
(207,558,o),
(251,558,cs)
);
}
);
width = 500;
},
{
anchors = (
{
name = _top;
pos = (288,484);
},
{
name = top;
pos = (319,685);
}
);
background = {
anchors = (
{
name = _top;
pos = (288,484);
},
{
name = top;
pos = (319,685);
}
);
shapes = (
{
closed = 1;
nodes = (
(365,564,l),
(381,666,l),
(290,666,l),
(315,651,l),
(320,682,o),
(331,706,o),
(365,734,c),
(326,769,l),
(274,733,o),
(254,692,o),
(246,636,cs),
(235,564,l)
);
}
);
};
layerId = "8FF16B21-C988-4EC9-A448-39B9B4A4BD78";
shapes = (
{
closed = 1;
nodes = (
(349,558,o),
(379,581,o),
(379,624,cs),
(379,657,o),
(356,675,o),
(315,675,c),
(316,654,l),
(319,675,o),
(327,696,o),
(345,715,cs),
(379,750,o),
(336,784,o),
(303,753,cs),
(268,720,o),
(244,662,o),
(244,614,cs),
(244,577,o),
(265,558,o),
(305,558,cs)
);
}
);
width = 500;
}
);
unicode = 699;
}
{
color = 6;
glyphname = ringhalfright;
kernLeft = ringhalfright;
kernRight = ringhalfright;
layers = (
{
anchors = (
{
name = _top;
pos = (250,484);
},
{
name = top;
pos = (250,685);
}
);
background = {
anchors = (
{
name = _top;
pos = (250,484);
},
{
name = top;
pos = (250,685);
}
);
shapes = (
{
closed = 1;
nodes = (
(306,556,o),
(347,597,o),
(347,650,cs),
(347,703,o),
(306,745,o),
(250,745,c),
(250,709,l),
(284,709,o),
(307,683,o),
(307,650,cs),
(307,618,o),
(284,591,o),
(250,591,c),
(250,556,l)
);
}
);
};
layerId = "F1F93986-3ED8-4AAE-84C4-CA3EEECDDFA0";
shapes = (
{
closed = 1;
nodes = (
(316,566,o),
(347,605,o),
(347,650,cs),
(347,695,o),
(316,734,o),
(269,743,cs),
(253,746,o),
(244,737,o),
(244,726,cs),
(244,715,o),
(252,711,o),
(267,707,cs),
(292,700,o),
(307,675,o),
(307,650,cs),
(307,624,o),
(292,600,o),
(267,593,cs),
(252,589,o),
(244,585,o),
(244,573,cs),
(244,562,o),
(253,554,o),
(269,557,cs)
);
}
);
width = 500;
},
{
anchors = (
{
name = _top;
pos = (250,484);
},
{
name = top;
pos = (250,685);
}
);
background = {
anchors = (
{
name = _top;
pos = (250,484);
},
{
name = top;
pos = (250,685);
}
);
shapes = (
{
closed = 1;
nodes = (
(315,547,o),
(366,597,o),
(366,662,cs),
(366,726,o),
(315,776,o),
(250,776,c),
(250,703,l),
(273,703,o),
(289,685,o),
(289,662,cs),
(289,639,o),
(273,620,o),
(250,620,c),
(250,547,l)
);
}
);
};
layerId = "4121B50C-FD42-45C5-8FBE-41E76D98F91E";
shapes = (
{
closed = 1;
nodes = (
(337,567,o),
(366,612,o),
(366,661,cs),
(366,711,o),
(336,754,o),
(288,770,cs),
(259,780,o),
(240,762,o),
(240,739,cs),
(240,714,o),
(256,711,o),
(276,693,cs),
(285,685,o),
(289,673,o),
(289,661,cs),
(289,648,o),
(285,637,o),
(275,629,cs),
(255,613,o),
(240,608,o),
(240,583,cs),
(240,560,o),
(259,544,o),
(289,553,cs)
);
}
);
width = 500;
},
{
anchors = (
{
name = _top;
pos = (288,484);
},
{
name = top;
pos = (320,685);
}
);
background = {
anchors = (
{
name = _top;
pos = (288,484);
},
{
name = top;
pos = (320,685);
}
);
shapes = (
{
closed = 1;
nodes = (
(359,552,o),
(412,599,o),
(412,659,cs),
(412,705,o),
(380,742,o),
(329,745,c),
(323,710,l),
(354,708,o),
(372,687,o),
(372,657,cs),
(372,619,o),
(342,590,o),
(305,592,c),
(299,556,l)
);
}
);
};
layerId = "D8D4984A-F5A5-43C0-BF2B-5708C10C5E92";
shapes = (
{
closed = 1;
nodes = (
(373,566,o),
(412,608,o),
(412,659,cs),
(412,698,o),
(389,731,o),
(347,742,cs),
(332,746,o),
(322,739,o),
(320,727,cs),
(318,716,o),
(326,713,o),
(341,706,cs),
(361,697,o),
(372,679,o),
(372,657,cs),
(372,626,o),
(352,601,o),
(321,593,cs),
(306,589,o),
(297,586,o),
(295,574,cs),
(293,562,o),
(302,554,o),
(320,557,cs)
);
}
);
width = 500;
},
{
anchors = (
{
name = _top;
pos = (187,484);
},
{
name = top;
pos = (219,685);
}
);
background = {
anchors = (
{
name = _top;
pos = (287,484);
},
{
name = top;
pos = (319,685);
}
);
shapes = (
{
closed = 1;
nodes = (
(369,544,o),
(433,599,o),
(433,672,cs),
(433,727,o),
(393,770,o),
(334,776,c),
(322,704,l),
(342,703,o),
(355,688,o),
(355,669,cs),
(355,642,o),
(335,620,o),
(309,619,c),
(297,547,l)
);
}
);
};
layerId = "C92D7C27-2246-4784-91DF-7F4E0C5E615D";
shapes = (
{
closed = 1;
nodes = (
(295,570,o),
(333,618,o),
(333,673,cs),
(333,714,o),
(310,751,o),
(271,768,cs),
(242,781,o),
(222,763,o),
(218,740,cs),
(214,717,o),
(230,713,o),
(247,693,cs),
(253,686,o),
(255,678,o),
(255,670,cs),
(255,655,o),
(248,640,o),
(236,630,cs),
(215,613,o),
(198,609,o),
(193,584,cs),
(189,562,o),
(209,544,o),
(242,554,cs)
);
}
);
width = 500;
},
{
anchors = (
{
name = _top;
pos = (250,484);
},
{
name = top;
pos = (250,685);
}
);
background = {
anchors = (
{
name = _top;
pos = (250,484);
},
{
name = top;
pos = (250,685);
}
);
shapes = (
{
closed = 1;
nodes = (
(311,552,o),
(357,597,o),
(357,656,cs),
(357,715,o),
(311,761,o),
(250,761,c),
(250,706,l),
(279,706,o),
(298,684,o),
(298,656,cs),
(298,629,o),
(279,607,o),
(250,607,c),
(250,552,l)
);
}
);
};
layerId = "18203F29-5161-4D9B-8394-C173CC5E27D4";
shapes = (
{
closed = 1;
nodes = (
(327,567,o),
(357,609,o),
(357,656,cs),
(357,703,o),
(327,745,o),
(280,757,cs),
(257,763,o),
(243,751,o),
(243,734,cs),
(243,715,o),
(253,710,o),
(272,701,cs),
(289,693,o),
(299,676,o),
(299,656,cs),
(299,636,o),
(289,619,o),
(272,611,cs),
(253,602,o),
(243,597,o),
(243,578,cs),
(243,561,o),
(257,549,o),
(280,555,cs)
);
}
);
width = 500;
},
{
anchors = (
{
name = _top;
pos = (288,484);
},
{
name = top;
pos = (320,685);
}
);
background = {
anchors = (
{
name = _top;
pos = (288,484);
},
{
name = top;
pos = (320,685);
}
);
shapes = (
{
closed = 1;
nodes = (
(364,548,o),
(423,599,o),
(423,666,cs),
(423,716,o),
(387,756,o),
(332,761,c),
(323,707,l),
(348,706,o),
(364,688,o),
(364,663,cs),
(364,631,o),
(339,605,o),
(307,606,c),
(298,552,l)
);
}
);
};
layerId = "8FF16B21-C988-4EC9-A448-39B9B4A4BD78";
shapes = (
{
closed = 1;
nodes = (
(384,569,o),
(423,613,o),
(423,666,cs),
(423,706,o),
(400,742,o),
(360,755,cs),
(338,762,o),
(323,751,o),
(320,734,cs),
(317,717,o),
(329,712,o),
(345,700,cs),
(357,691,o),
(364,679,o),
(364,664,cs),
(364,641,o),
(351,619,o),
(329,610,cs),
(310,602,o),
(298,598,o),
(295,579,cs),
(292,562,o),
(306,548,o),
(332,555,cs)
);
}
);
width = 500;
}
);
unicode = 702;
}
{
color = 6;
glyphname = ringhalfleft;
kernLeft = ringhalfleft;
kernRight = ringhalfleft;
layers = (
{
anchors = (
{
name = _top;
pos = (250,484);
},
{
name = top;
pos = (250,685);
}
);
background = {
anchors = (
{
name = _top;
pos = (250,484);
},
{
name = top;
pos = (250,685);
}
);
shapes = (
{
closed = 1;
nodes = (
(250,591,l),
(216,591,o),
(193,618,o),
(193,650,cs),
(193,683,o),
(216,709,o),
(250,709,c),
(250,745,l),
(194,745,o),
(153,703,o),
(153,650,cs),
(153,597,o),
(194,556,o),
(250,556,c)
);
}
);
};
layerId = "F1F93986-3ED8-4AAE-84C4-CA3EEECDDFA0";
shapes = (
{
closed = 1;
nodes = (
(247,555,o),
(256,563,o),
(256,574,cs),
(256,585,o),
(248,589,o),
(233,593,cs),
(208,601,o),
(193,625,o),
(193,650,cs),
(193,676,o),
(208,700,o),
(233,707,cs),
(248,711,o),
(256,715,o),
(256,727,cs),
(256,738,o),
(247,746,o),
(231,743,cs),
(184,735,o),
(153,695,o),
(153,650,cs),
(153,605,o),
(184,566,o),
(231,557,cs)
);
}
);
width = 500;
},
{
anchors = (
{
name = _top;
pos = (250,484);
},
{
name = top;
pos = (250,685);
}
);
background = {
anchors = (
{
name = _top;
pos = (250,484);
},
{
name = top;
pos = (250,685);
}
);
shapes = (
{
closed = 1;
nodes = (
(250,620,l),
(227,620,o),
(211,639,o),
(211,662,cs),
(211,685,o),
(227,703,o),
(250,703,c),
(250,776,l),
(185,776,o),
(134,726,o),
(134,662,cs),
(134,597,o),
(185,547,o),
(250,547,c)
);
}
);
};
layerId = "4121B50C-FD42-45C5-8FBE-41E76D98F91E";
shapes = (
{
closed = 1;
nodes = (
(241,543,o),
(260,561,o),
(260,584,cs),
(260,609,o),
(244,612,o),
(224,630,cs),
(215,638,o),
(211,650,o),
(211,662,cs),
(211,675,o),
(215,686,o),
(225,694,cs),
(245,710,o),
(260,715,o),
(260,740,cs),
(260,763,o),
(241,779,o),
(211,770,cs),
(163,754,o),
(134,711,o),
(134,662,cs),
(134,612,o),
(164,569,o),
(212,553,cs)
);
}
);
width = 500;
},
{
anchors = (
{
name = _top;
pos = (288,484);
},
{
name = top;
pos = (320,685);
}
);
background = {
anchors = (
{
name = _top;
pos = (288,484);
},
{
name = top;
pos = (320,685);
}
);
shapes = (
{
closed = 1;
nodes = (
(306,591,l),
(275,593,o),
(257,614,o),
(257,644,cs),
(257,682,o),
(287,711,o),
(325,709,c),
(331,745,l),
(270,749,o),
(217,702,o),
(217,642,cs),
(217,596,o),
(249,559,o),
(300,556,c)
);
}
);
};
layerId = "D8D4984A-F5A5-43C0-BF2B-5708C10C5E92";
shapes = (
{
closed = 1;
nodes = (
(297,555,o),
(307,562,o),
(309,574,cs),
(311,585,o),
(303,588,o),
(288,595,cs),
(268,604,o),
(257,622,o),
(257,644,cs),
(257,675,o),
(277,700,o),
(308,708,cs),
(323,712,o),
(332,715,o),
(334,727,cs),
(336,739,o),
(327,747,o),
(309,744,cs),
(256,735,o),
(217,693,o),
(217,642,cs),
(217,603,o),
(240,570,o),
(282,559,cs)
);
}
);
width = 500;
},
{
anchors = (
{
name = _top;
pos = (287,484);
},
{
name = top;
pos = (319,685);
}
);
background = {
anchors = (
{
name = _top;
pos = (287,484);
},
{
name = top;
pos = (319,685);
}
);
shapes = (
{
closed = 1;
nodes = (
(309,619,l),
(289,620,o),
(276,635,o),
(276,654,cs),
(276,681,o),
(296,703,o),
(322,704,c),
(334,776,l),
(262,779,o),
(198,724,o),
(198,651,cs),
(198,596,o),
(238,553,o),
(297,547,c)
);
}
);
};
layerId = "C92D7C27-2246-4784-91DF-7F4E0C5E615D";
shapes = (
{
closed = 1;
nodes = (
(289,543,o),
(309,561,o),
(313,584,cs),
(317,607,o),
(301,611,o),
(284,631,cs),
(278,638,o),
(276,646,o),
(276,654,cs),
(276,669,o),
(283,684,o),
(295,694,cs),
(316,711,o),
(333,715,o),
(338,740,cs),
(342,762,o),
(322,780,o),
(289,770,cs),
(236,754,o),
(198,706,o),
(198,651,cs),
(198,610,o),
(221,573,o),
(260,556,cs)
);
}
);
width = 500;
},
{
anchors = (
{
name = _top;
pos = (250,484);
},
{
name = top;
pos = (250,685);
}
);
background = {
anchors = (
{
name = _top;
pos = (250,484);
},
{
name = top;
pos = (250,685);
}
);
shapes = (
{
closed = 1;
nodes = (
(250,607,l),
(222,607,o),
(202,629,o),
(202,656,cs),
(202,684,o),
(222,706,o),
(250,706,c),
(250,761,l),
(190,761,o),
(144,715,o),
(144,656,cs),
(144,597,o),
(190,552,o),
(250,552,c)
);
}
);
};
layerId = "18203F29-5161-4D9B-8394-C173CC5E27D4";
shapes = (
{
closed = 1;
nodes = (
(244,549,o),
(258,561,o),
(258,578,cs),
(258,597,o),
(248,602,o),
(229,611,cs),
(212,619,o),
(202,636,o),
(202,656,cs),
(202,676,o),
(212,693,o),
(229,701,cs),
(248,710,o),
(258,715,o),
(258,734,cs),
(258,751,o),
(244,763,o),
(221,757,cs),
(174,745,o),
(144,703,o),
(144,656,cs),
(144,609,o),
(174,567,o),
(221,555,cs)
);
}
);
width = 500;
},
{
anchors = (
{
name = _top;
pos = (288,484);
},
{
name = top;
pos = (320,685);
}
);
background = {
anchors = (
{
name = _top;
pos = (288,484);
},
{
name = top;
pos = (320,685);
}
);
shapes = (
{
closed = 1;
nodes = (
(308,605,l),
(282,607,o),
(267,625,o),
(267,649,cs),
(267,682,o),
(292,707,o),
(324,707,c),
(333,761,l),
(266,764,o),
(208,713,o),
(208,647,cs),
(208,596,o),
(244,556,o),
(299,552,c)
);
}
);
};
layerId = "8FF16B21-C988-4EC9-A448-39B9B4A4BD78";
shapes = (
{
closed = 1;
nodes = (
(293,551,o),
(308,562,o),
(311,579,cs),
(314,596,o),
(302,601,o),
(286,613,cs),
(274,622,o),
(267,634,o),
(267,649,cs),
(267,672,o),
(280,694,o),
(302,703,cs),
(321,711,o),
(333,715,o),
(336,734,cs),
(339,751,o),
(325,765,o),
(299,758,cs),
(247,745,o),
(208,700,o),
(208,647,cs),
(208,607,o),
(231,571,o),
(271,558,cs)
);
}
);
width = 500;
}
);
unicode = 703;
}
{
color = 6;
glyphname = firsttonechinese;
kernLeft = firsttonechinese;
kernRight = firsttonechinese;
layers = (
{
anchors = (
{
name = _top;
pos = (250,484);
},
{
name = top;
pos = (250,685);
}
);
background = {
anchors = (
{
name = _top;
pos = (250,484);
},
{
name = top;
pos = (250,685);
}
);
shapes = (
{
closed = 1;
nodes = (
(390,633,l),
(390,671,l),
(110,671,l),
(110,633,l)
);
}
);
};
layerId = "F1F93986-3ED8-4AAE-84C4-CA3EEECDDFA0";
shapes = (
{
closed = 1;
nodes = (
(375,633,ls),
(388,633,o),
(396,640,o),
(396,652,cs),
(396,664,o),
(388,671,o),
(375,671,cs),
(125,671,ls),
(112,671,o),
(104,664,o),
(104,652,cs),
(104,640,o),
(112,633,o),
(125,633,cs)
);
}
);
width = 500;
},
{
anchors = (
{
name = _top;
pos = (250,484);
},
{
name = top;
pos = (250,685);
}
);
background = {
anchors = (
{
name = _top;
pos = (250,484);
},
{
name = top;
pos = (250,685);
}
);
shapes = (
{
closed = 1;
nodes = (
(425,599,l),
(425,709,l),
(75,709,l),
(75,599,l)
);
}
);
};
layerId = "4121B50C-FD42-45C5-8FBE-41E76D98F91E";
shapes = (
{
closed = 1;
nodes = (
(378,599,ls),
(415,599,o),
(435,619,o),
(435,654,cs),
(435,689,o),
(415,709,o),
(378,709,cs),
(122,709,ls),
(85,709,o),
(65,689,o),
(65,654,cs),
(65,619,o),
(85,599,o),
(122,599,cs)
);
}
);
width = 500;
},
{
anchors = (
{
name = _top;
pos = (288,484);
},
{
name = top;
pos = (320,685);
}
);
background = {
anchors = (
{
name = _top;
pos = (288,484);
},
{
name = top;
pos = (320,685);
}
);
shapes = (
{
closed = 1;
nodes = (
(452,633,l),
(458,671,l),
(178,671,l),
(172,633,l)
);
}
);
};
layerId = "D8D4984A-F5A5-43C0-BF2B-5708C10C5E92";
shapes = (
{
closed = 1;
nodes = (
(438,633,ls),
(452,633,o),
(461,641,o),
(461,655,cs),
(461,665,o),
(453,671,o),
(440,671,cs),
(192,671,ls),
(178,671,o),
(169,663,o),
(169,649,cs),
(169,639,o),
(177,633,o),
(190,633,cs)
);
}
);
width = 500;
},
{
anchors = (
{
name = _top;
pos = (287,484);
},
{
name = top;
pos = (319,685);
}
);
background = {
anchors = (
{
name = _top;
pos = (287,484);
},
{
name = top;
pos = (319,685);
}
);
shapes = (
{
closed = 1;
nodes = (
(481,599,l),
(498,709,l),
(148,709,l),
(131,599,l)
);
}
);
};
layerId = "C92D7C27-2246-4784-91DF-7F4E0C5E615D";
shapes = (
{
closed = 1;
nodes = (
(434,599,ls),
(475,599,o),
(500,625,o),
(500,663,cs),
(500,692,o),
(479,709,o),
(441,709,cs),
(195,709,ls),
(154,709,o),
(129,683,o),
(129,645,cs),
(129,616,o),
(150,599,o),
(188,599,cs)
);
}
);
width = 500;
},
{
anchors = (
{
name = _top;
pos = (250,484);
},
{
name = top;
pos = (250,685);
}
);
background = {
anchors = (
{
name = _top;
pos = (250,484);
},
{
name = top;
pos = (250,685);
}
);
shapes = (
{
closed = 1;
nodes = (
(408,616,l),
(408,690,l),
(93,690,l),
(93,616,l)
);
}
);
};
layerId = "18203F29-5161-4D9B-8394-C173CC5E27D4";
shapes = (
{
closed = 1;
nodes = (
(377,616,ls),
(402,616,o),
(416,630,o),
(416,653,cs),
(416,677,o),
(402,690,o),
(377,690,cs),
(124,690,ls),
(99,690,o),
(85,677,o),
(85,653,cs),
(85,630,o),
(99,616,o),
(124,616,cs)
);
}
);
width = 500;
},
{
anchors = (
{
name = _top;
pos = (288,484);
},
{
name = top;
pos = (320,685);
}
);
background = {
anchors = (
{
name = _top;
pos = (288,484);
},
{
name = top;
pos = (320,685);
}
);
shapes = (
{
closed = 1;
nodes = (
(467,616,l),
(478,690,l),
(163,690,l),
(152,616,l)
);
}
);
};
layerId = "8FF16B21-C988-4EC9-A448-39B9B4A4BD78";
shapes = (
{
closed = 1;
nodes = (
(436,616,ls),
(464,616,o),
(481,633,o),
(481,659,cs),
(481,679,o),
(466,690,o),
(441,690,cs),
(194,690,ls),
(166,690,o),
(149,673,o),
(149,647,cs),
(149,628,o),
(164,616,o),
(189,616,cs)
);
}
);
width = 500;
}
);
unicode = 713;
}
{
color = 6;
glyphname = verticallinelowmod;
kernLeft = verticallinelowmod;
kernRight = verticallinelowmod;
layers = (
{
background = {
shapes = (
{
closed = 1;
nodes = (
(271,-270,l),
(271,-72,l),
(229,-72,l),
(229,-270,l)
);
}
);
};
layerId = "F1F93986-3ED8-4AAE-84C4-CA3EEECDDFA0";
shapes = (
{
closed = 1;
nodes = (
(264,-276,o),
(271,-268,o),
(271,-254,cs),
(271,-85,ls),
(271,-71,o),
(263,-63,o),
(250,-63,cs),
(237,-63,o),
(229,-71,o),
(229,-85,cs),
(229,-254,ls),
(229,-268,o),
(237,-276,o),
(250,-276,cs)
);
}
);
width = 500;
},
{
background = {
shapes = (
{
closed = 1;
nodes = (
(310,-270,l),
(310,-62,l),
(190,-62,l),
(190,-270,l)
);
}
);
};
layerId = "4121B50C-FD42-45C5-8FBE-41E76D98F91E";
shapes = (
{
closed = 1;
nodes = (
(289,-280,o),
(310,-258,o),
(310,-218,cs),
(310,-114,ls),
(310,-74,o),
(289,-52,o),
(250,-52,cs),
(211,-52,o),
(190,-74,o),
(190,-114,cs),
(190,-218,ls),
(190,-258,o),
(211,-280,o),
(250,-280,cs)
);
}
);
width = 500;
},
{
background = {
shapes = (
{
closed = 1;
nodes = (
(190,-270,l),
(221,-72,l),
(179,-72,l),
(148,-270,l)
);
}
);
};
layerId = "D8D4984A-F5A5-43C0-BF2B-5708C10C5E92";
shapes = (
{
closed = 1;
nodes = (
(182,-276,o),
(190,-269,o),
(192,-255,cs),
(218,-91,ls),
(221,-75,o),
(214,-66,o),
(201,-66,cs),
(187,-66,o),
(179,-73,o),
(177,-87,cs),
(151,-251,ls),
(148,-267,o),
(155,-276,o),
(168,-276,cs)
);
}
);
width = 500;
},
{
background = {
shapes = (
{
closed = 1;
nodes = (
(228,-270,l),
(261,-62,l),
(141,-62,l),
(108,-270,l)
);
}
);
};
layerId = "C92D7C27-2246-4784-91DF-7F4E0C5E615D";
shapes = (
{
closed = 1;
nodes = (
(207,-280,o),
(230,-260,o),
(236,-220,cs),
(251,-123,ls),
(258,-79,o),
(241,-52,o),
(203,-52,cs),
(163,-52,o),
(139,-72,o),
(133,-112,cs),
(118,-209,ls),
(111,-253,o),
(129,-280,o),
(167,-280,cs)
);
}
);
width = 500;
},
{
background = {
shapes = (
{
closed = 1;
nodes = (
(290,-270,l),
(290,-67,l),
(210,-67,l),
(210,-270,l)
);
}
);
};
layerId = "18203F29-5161-4D9B-8394-C173CC5E27D4";
shapes = (
{
closed = 1;
nodes = (
(277,-278,o),
(290,-263,o),
(290,-236,cs),
(290,-101,ls),
(290,-74,o),
(276,-59,o),
(250,-59,cs),
(224,-59,o),
(210,-74,o),
(210,-101,cs),
(210,-236,ls),
(210,-263,o),
(224,-278,o),
(250,-278,cs)
);
}
);
width = 500;
},
{
background = {
shapes = (
{
closed = 1;
nodes = (
(209,-270,l),
(241,-67,l),
(160,-67,l),
(128,-270,l)
);
}
);
};
layerId = "8FF16B21-C988-4EC9-A448-39B9B4A4BD78";
shapes = (
{
closed = 1;
nodes = (
(195,-278,o),
(210,-265,o),
(214,-238,cs),
(235,-107,ls),
(240,-77,o),
(228,-59,o),
(202,-59,cs),
(175,-59,o),
(159,-73,o),
(155,-100,cs),
(135,-230,ls),
(130,-260,o),
(142,-278,o),
(168,-278,cs)
);
}
);
width = 500;
}
);
unicode = 716;
}
{
glyphname = acutelowmod;
layers = (
{
anchors = (
{
name = _bottom;
pos = (138,60);
},
{
name = bottom;
pos = (138,-141);
}
);
layerId = "F1F93986-3ED8-4AAE-84C4-CA3EEECDDFA0";
shapes = (
{
closed = 1;
nodes = (
(14,-179,ls),
(-3,-206,o),
(38,-231,o),
(55,-199,cs),
(146,-24,ls),
(157,-3,o),
(128,9,o),
(118,-8,cs)
);
}
);
width = 158;
},
{
anchors = (
{
name = _bottom;
pos = (163,64);
},
{
name = bottom;
pos = (163,-137);
}
);
layerId = "18203F29-5161-4D9B-8394-C173CC5E27D4";
shapes = (
{
closed = 1;
nodes = (
(19,-152,ls),
(-19,-206,o),
(77,-261,o),
(107,-199,cs),
(183,-50,ls),
(204,-7,o),
(142,26,o),
(116,-12,cs)
);
}
);
width = 197;
},
{
anchors = (
{
name = _bottom;
pos = (183,59);
},
{
name = bottom;
pos = (183,-142);
}
);
layerId = "4121B50C-FD42-45C5-8FBE-41E76D98F91E";
shapes = (
{
closed = 1;
nodes = (
(25,-133,ls),
(-37,-213,o),
(111,-299,o),
(155,-208,cs),
(215,-85,ls),
(247,-19,o),
(153,32,o),
(110,-24,cs)
);
}
);
width = 232;
},
{
anchors = (
{
name = _bottom;
pos = (108,60);
},
{
name = bottom;
pos = (76,-141);
}
);
layerId = "D8D4984A-F5A5-43C0-BF2B-5708C10C5E92";
shapes = (
{
closed = 1;
nodes = (
(-53,-178,ls),
(-73,-204,o),
(-37,-232,o),
(-15,-199,cs),
(103,-24,ls),
(116,-5,o),
(92,10,o),
(78,-8,cs)
);
}
);
width = 157;
},
{
anchors = (
{
name = _bottom;
pos = (130,59);
},
{
name = bottom;
pos = (98,-142);
}
);
layerId = "8FF16B21-C988-4EC9-A448-39B9B4A4BD78";
shapes = (
{
closed = 1;
nodes = (
(-45,-153,ls),
(-90,-206,o),
(-7,-267,o),
(34,-205,cs),
(130,-58,ls),
(158,-15,o),
(105,22,o),
(73,-16,cs)
);
}
);
width = 192;
},
{
anchors = (
{
name = _bottom;
pos = (148,59);
},
{
name = bottom;
pos = (116,-142);
}
);
layerId = "C92D7C27-2246-4784-91DF-7F4E0C5E615D";
shapes = (
{
closed = 1;
nodes = (
(-35,-127,ls),
(-107,-204,o),
(22,-302,o),
(80,-209,cs),
(155,-90,ls),
(197,-23,o),
(115,33,o),
(63,-22,cs)
);
}
);
width = 225;
}
);
unicode = 719;
}
{
color = 6;
glyphname = macroncomb;
kernLeft = macroncomb;
kernRight = macroncomb;
layers = (
{
anchors = (
{
name = _top;
pos = (0,484);
},
{
name = top;
pos = (0,685);
}
);
background = {
anchors = (
{
name = _top;
pos = (0,484);
},
{
name = top;
pos = (0,685);
}
);
shapes = (
{
closed = 1;
nodes = (
(140,633,l),
(140,671,l),
(-140,671,l),
(-140,633,l)
);
}
);
};
layerId = "F1F93986-3ED8-4AAE-84C4-CA3EEECDDFA0";
shapes = (
{
closed = 1;
nodes = (
(119,633,ls),
(132,633,o),
(140,640,o),
(140,652,cs),
(140,664,o),
(132,671,o),
(119,671,cs),
(-119,671,ls),
(-132,671,o),
(-140,664,o),
(-140,652,cs),
(-140,640,o),
(-132,633,o),
(-119,633,cs)
);
}
);
width = 0;
},
{
anchors = (
{
name = _top;
pos = (0,484);
},
{
name = top;
pos = (0,685);
}
);
background = {
anchors = (
{
name = _top;
pos = (0,484);
},
{
name = top;
pos = (0,685);
}
);
shapes = (
{
closed = 1;
nodes = (
(175,599,l),
(175,709,l),
(-175,709,l),
(-175,599,l)
);
}
);
};
layerId = "4121B50C-FD42-45C5-8FBE-41E76D98F91E";
shapes = (
{
closed = 1;
nodes = (
(128,599,ls),
(165,599,o),
(185,619,o),
(185,654,cs),
(185,689,o),
(165,709,o),
(128,709,cs),
(-128,709,ls),
(-165,709,o),
(-185,689,o),
(-185,654,cs),
(-185,619,o),
(-165,599,o),
(-128,599,cs)
);
}
);
width = 0;
},
{
anchors = (
{
name = _top;
pos = (0,484);
},
{
name = top;
pos = (32,685);
}
);
background = {
anchors = (
{
name = _top;
pos = (0,484);
},
{
name = top;
pos = (32,685);
}
);
shapes = (
{
closed = 1;
nodes = (
(164,633,l),
(170,671,l),
(-110,671,l),
(-116,633,l)
);
}
);
};
layerId = "D8D4984A-F5A5-43C0-BF2B-5708C10C5E92";
shapes = (
{
closed = 1;
nodes = (
(150,633,ls),
(164,633,o),
(173,641,o),
(173,655,cs),
(173,665,o),
(165,671,o),
(152,671,cs),
(-96,671,ls),
(-110,671,o),
(-119,663,o),
(-119,649,cs),
(-119,639,o),
(-111,633,o),
(-98,633,cs)
);
}
);
width = 0;
},
{
anchors = (
{
name = _top;
pos = (0,484);
},
{
name = top;
pos = (31,685);
}
);
background = {
anchors = (
{
name = _top;
pos = (0,484);
},
{
name = top;
pos = (32,685);
}
);
shapes = (
{
closed = 1;
nodes = (
(194,599,l),
(211,709,l),
(-139,709,l),
(-156,599,l)
);
}
);
};
layerId = "C92D7C27-2246-4784-91DF-7F4E0C5E615D";
shapes = (
{
closed = 1;
nodes = (
(146,599,ls),
(187,599,o),
(212,625,o),
(212,663,cs),
(212,692,o),
(191,709,o),
(153,709,cs),
(-93,709,ls),
(-134,709,o),
(-159,683,o),
(-159,645,cs),
(-159,616,o),
(-138,599,o),
(-100,599,cs)
);
}
);
width = 0;
},
{
anchors = (
{
name = _top;
pos = (0,484);
},
{
name = top;
pos = (0,685);
}
);
background = {
anchors = (
{
name = _top;
pos = (0,484);
},
{
name = top;
pos = (0,685);
}
);
shapes = (
{
closed = 1;
nodes = (
(158,616,l),
(158,690,l),
(-157,690,l),
(-157,616,l)
);
}
);
};
layerId = "18203F29-5161-4D9B-8394-C173CC5E27D4";
shapes = (
{
closed = 1;
nodes = (
(124,616,ls),
(149,616,o),
(163,630,o),
(163,653,cs),
(163,677,o),
(149,690,o),
(124,690,cs),
(-123,690,ls),
(-148,690,o),
(-162,677,o),
(-162,653,cs),
(-162,630,o),
(-148,616,o),
(-123,616,cs)
);
}
);
width = 0;
},
{
anchors = (
{
name = _top;
pos = (0,484);
},
{
name = top;
pos = (32,685);
}
);
background = {
anchors = (
{
name = _top;
pos = (0,484);
},
{
name = top;
pos = (32,685);
}
);
shapes = (
{
closed = 1;
nodes = (
(179,616,l),
(191,690,l),
(-124,690,l),
(-136,616,l)
);
}
);
};
layerId = "8FF16B21-C988-4EC9-A448-39B9B4A4BD78";
shapes = (
{
closed = 1;
nodes = (
(148,616,ls),
(176,616,o),
(193,633,o),
(193,659,cs),
(193,679,o),
(178,690,o),
(153,690,cs),
(-94,690,ls),
(-122,690,o),
(-139,673,o),
(-139,647,cs),
(-139,628,o),
(-124,616,o),
(-99,616,cs)
);
}
);
width = 0;
}
);
unicode = 772;
}
{
color = 6;
glyphname = hookabovecomb;
kernLeft = hookabovecomb;
kernRight = hookabovecomb;
layers = (
{
anchors = (
{
name = _top;
pos = (0,484);
},
{
name = top;
pos = (0,685);
}
);
background = {
anchors = (
{
name = _top;
pos = (0,484);
},
{
name = top;
pos = (0,685);
}
);
shapes = (
{
closed = 1;
nodes = (
(18,549,l),
(18,564,ls),
(18,623,o),
(91,623,o),
(91,689,cs),
(91,730,o),
(58,754,o),
(2,754,cs),
(-28,754,o),
(-55,748,o),
(-76,734,c),
(-67,702,l),
(-42,714,o),
(-22,718,o),
(-2,718,cs),
(34,718,o),
(50,707,o),
(50,687,cs),
(50,644,o),
(-18,635,o),
(-18,569,cs),
(-18,549,l)
);
}
);
};
layerId = "F1F93986-3ED8-4AAE-84C4-CA3EEECDDFA0";
shapes = (
{
closed = 1;
nodes = (
(12,543,o),
(18,549,o),
(18,561,cs),
(18,623,o),
(91,623,o),
(91,689,cs),
(91,730,o),
(58,754,o),
(2,754,cs),
(-22,754,o),
(-45,750,o),
(-64,741,cs),
(-79,734,o),
(-81,725,o),
(-78,715,cs),
(-75,706,o),
(-68,702,o),
(-53,708,cs),
(-37,715,o),
(-17,718,o),
(-2,718,cs),
(34,718,o),
(50,707,o),
(50,687,cs),
(50,646,o),
(-18,636,o),
(-18,561,cs),
(-18,549,o),
(-11,543,o),
(0,543,cs)
);
}
);
width = 0;
},
{
anchors = (
{
name = _top;
pos = (0,484);
},
{
name = top;
pos = (0,685);
}
);
background = {
anchors = (
{
name = _top;
pos = (0,484);
},
{
name = top;
pos = (0,685);
}
);
shapes = (
{
closed = 1;
nodes = (
(58,558,l),
(58,575,ls),
(58,623,o),
(134,626,o),
(134,697,cs),
(134,747,o),
(88,775,o),
(9,775,cs),
(-46,775,o),
(-92,766,o),
(-127,748,c),
(-98,672,l),
(-80,681,o),
(-64,686,o),
(-42,686,cs),
(-26,686,o),
(-14,681,o),
(-14,666,cs),
(-14,639,o),
(-58,626,o),
(-58,581,cs),
(-58,558,l)
);
}
);
};
layerId = "4121B50C-FD42-45C5-8FBE-41E76D98F91E";
shapes = (
{
closed = 1;
nodes = (
(38,548,o),
(58,560,o),
(58,577,cs),
(58,620,o),
(134,628,o),
(134,697,cs),
(134,747,o),
(88,775,o),
(9,775,cs),
(-29,775,o),
(-63,771,o),
(-92,762,cs),
(-123,752,o),
(-131,730,o),
(-121,705,cs),
(-111,680,o),
(-95,678,o),
(-64,684,cs),
(-54,686,o),
(-49,686,o),
(-42,686,cs),
(-26,686,o),
(-14,681,o),
(-14,666,cs),
(-14,639,o),
(-58,626,o),
(-58,581,cs),
(-58,560,o),
(-37,548,o),
(0,548,cs)
);
}
);
width = 0;
},
{
anchors = (
{
name = _top;
pos = (0,484);
},
{
name = top;
pos = (32,685);
}
);
background = {
anchors = (
{
name = _top;
pos = (0,484);
},
{
name = top;
pos = (32,685);
}
);
shapes = (
{
closed = 1;
nodes = (
(23,549,l),
(26,564,ls),
(39,627,o),
(109,622,o),
(109,695,cs),
(109,732,o),
(79,754,o),
(26,754,cs),
(-4,754,o),
(-32,748,o),
(-54,734,c),
(-48,702,l),
(-22,714,o),
(-1,718,o),
(19,718,cs),
(53,718,o),
(68,708,o),
(68,690,cs),
(68,648,o),
(0,633,o),
(-10,569,cs),
(-13,549,l)
);
}
);
};
layerId = "D8D4984A-F5A5-43C0-BF2B-5708C10C5E92";
shapes = (
{
closed = 1;
nodes = (
(16,543,o),
(23,549,o),
(25,560,cs),
(37,624,o),
(109,627,o),
(109,697,cs),
(109,732,o),
(79,754,o),
(26,754,cs),
(-2,754,o),
(-24,750,o),
(-45,739,cs),
(-55,734,o),
(-59,726,o),
(-57,715,cs),
(-55,706,o),
(-47,702,o),
(-33,708,cs),
(-16,715,o),
(1,718,o),
(19,718,cs),
(53,718,o),
(68,708,o),
(68,690,cs),
(68,648,o),
(-1,633,o),
(-11,564,cs),
(-13,550,o),
(-6,543,o),
(4,543,cs)
);
}
);
width = 0;
},
{
anchors = (
{
name = _top;
pos = (0,484);
},
{
name = top;
pos = (27,685);
}
);
background = {
anchors = (
{
name = _top;
pos = (0,484);
},
{
name = top;
pos = (27,685);
}
);
shapes = (
{
closed = 1;
nodes = (
(65,558,l),
(68,575,ls),
(76,623,o),
(155,629,o),
(155,702,cs),
(155,748,o),
(111,775,o),
(36,775,cs),
(-19,775,o),
(-65,766,o),
(-102,748,c),
(-80,672,l),
(-61,681,o),
(-44,686,o),
(-22,686,cs),
(-7,686,o),
(7,681,o),
(7,668,cs),
(7,640,o),
(-40,629,o),
(-47,583,cs),
(-51,558,l)
);
}
);
};
layerId = "C92D7C27-2246-4784-91DF-7F4E0C5E615D";
shapes = (
{
closed = 1;
nodes = (
(45,548,o),
(65,557,o),
(68,575,cs),
(76,623,o),
(155,629,o),
(155,702,cs),
(155,748,o),
(111,775,o),
(36,775,cs),
(-1,775,o),
(-30,773,o),
(-66,762,cs),
(-93,754,o),
(-105,732,o),
(-97,707,cs),
(-89,683,o),
(-64,681,o),
(-46,684,cs),
(-35,686,o),
(-29,686,o),
(-22,686,cs),
(-7,686,o),
(7,681,o),
(7,668,cs),
(7,640,o),
(-41,629,o),
(-47,583,cs),
(-50,561,o),
(-30,548,o),
(6,548,cs)
);
}
);
width = 0;
},
{
anchors = (
{
name = _top;
pos = (0,484);
},
{
name = top;
pos = (0,685);
}
);
background = {
anchors = (
{
name = _top;
pos = (0,484);
},
{
name = top;
pos = (0,685);
}
);
shapes = (
{
closed = 1;
nodes = (
(38,554,l),
(38,570,ls),
(38,623,o),
(113,625,o),
(113,693,cs),
(113,739,o),
(73,765,o),
(6,765,cs),
(-37,765,o),
(-73,757,o),
(-101,741,c),
(-82,687,l),
(-61,698,o),
(-43,702,o),
(-22,702,cs),
(4,702,o),
(18,694,o),
(18,677,cs),
(18,642,o),
(-38,631,o),
(-38,575,cs),
(-38,554,l)
);
}
);
};
layerId = "18203F29-5161-4D9B-8394-C173CC5E27D4";
shapes = (
{
closed = 1;
nodes = (
(25,546,o),
(38,555,o),
(38,571,cs),
(38,622,o),
(113,626,o),
(113,693,cs),
(113,739,o),
(73,765,o),
(6,765,cs),
(-25,765,o),
(-54,761,o),
(-78,752,cs),
(-101,743,o),
(-106,728,o),
(-99,710,cs),
(-92,693,o),
(-81,690,o),
(-58,697,cs),
(-45,701,o),
(-33,702,o),
(-22,702,cs),
(4,702,o),
(18,694,o),
(18,677,cs),
(18,643,o),
(-38,632,o),
(-38,573,cs),
(-38,555,o),
(-24,546,o),
(0,546,cs)
);
}
);
width = 0;
},
{
anchors = (
{
name = _top;
pos = (0,484);
},
{
name = top;
pos = (30,685);
}
);
background = {
anchors = (
{
name = _top;
pos = (0,484);
},
{
name = top;
pos = (30,685);
}
);
shapes = (
{
closed = 1;
nodes = (
(44,554,l),
(47,570,ls),
(58,625,o),
(132,626,o),
(132,699,cs),
(132,740,o),
(95,765,o),
(31,765,cs),
(-11,765,o),
(-48,757,o),
(-78,741,c),
(-64,687,l),
(-41,698,o),
(-22,702,o),
(-1,702,cs),
(23,702,o),
(38,695,o),
(38,679,cs),
(38,644,o),
(-20,631,o),
(-28,576,cs),
(-32,554,l)
);
}
);
};
layerId = "8FF16B21-C988-4EC9-A448-39B9B4A4BD78";
shapes = (
{
closed = 1;
nodes = (
(31,546,o),
(43,553,o),
(46,568,cs),
(57,624,o),
(132,626,o),
(132,700,cs),
(132,740,o),
(95,765,o),
(31,765,cs),
(-1,765,o),
(-27,761,o),
(-55,751,cs),
(-74,744,o),
(-82,729,o),
(-77,711,cs),
(-73,695,o),
(-55,693,o),
(-39,697,cs),
(-25,700,o),
(-14,702,o),
(-1,702,cs),
(23,702,o),
(38,695,o),
(38,679,cs),
(38,644,o),
(-20,633,o),
(-29,574,cs),
(-32,556,o),
(-18,546,o),
(5,546,cs)
);
}
);
width = 0;
}
);
unicode = 777;
}
{
color = 6;
glyphname = ringcomb;
kernLeft = ringcomb;
kernRight = ringcomb;
layers = (
{
anchors = (
{
name = _top;
pos = (0,484);
},
{
name = top;
pos = (0,685);
}
);
background = {
anchors = (
{
name = _top;
pos = (0,484);
},
{
name = top;
pos = (0,685);
}
);
shapes = (
{
closed = 1;
nodes = (
(63,547,o),
(112,596,o),
(112,657,cs),
(112,718,o),
(63,767,o),
(0,767,cs),
(-63,767,o),
(-112,718,o),
(-112,657,cs),
(-112,596,o),
(-63,547,o),
(0,547,cs)
);
},
{
closed = 1;
nodes = (
(-46,579,o),
(-78,613,o),
(-78,657,cs),
(-78,701,o),
(-46,735,o),
(0,735,cs),
(46,735,o),
(78,701,o),
(78,657,cs),
(78,613,o),
(46,579,o),
(0,579,cs)
);
}
);
};
layerId = "F1F93986-3ED8-4AAE-84C4-CA3EEECDDFA0";
shapes = (
{
closed = 1;
nodes = (
(63,547,o),
(112,596,o),
(112,657,cs),
(112,718,o),
(63,767,o),
(0,767,cs),
(-63,767,o),
(-112,718,o),
(-112,657,cs),
(-112,596,o),
(-63,547,o),
(0,547,cs)
);
},
{
closed = 1;
nodes = (
(-46,579,o),
(-78,613,o),
(-78,657,cs),
(-78,701,o),
(-46,735,o),
(0,735,cs),
(46,735,o),
(78,701,o),
(78,657,cs),
(78,613,o),
(46,579,o),
(0,579,cs)
);
}
);
width = 0;
},
{
anchors = (
{
name = _top;
pos = (0,484);
},
{
name = top;
pos = (0,685);
}
);
background = {
anchors = (
{
name = _top;
pos = (0,484);
},
{
name = top;
pos = (0,685);
}
);
shapes = (
{
closed = 1;
nodes = (
(79,544,o),
(140,602,o),
(140,679,cs),
(140,756,o),
(79,814,o),
(0,814,cs),
(-79,814,o),
(-140,756,o),
(-140,679,cs),
(-140,602,o),
(-79,544,o),
(0,544,cs)
);
},
{
closed = 1;
nodes = (
(-29,626,o),
(-52,648,o),
(-52,679,cs),
(-52,710,o),
(-29,731,o),
(0,731,cs),
(29,731,o),
(52,710,o),
(52,679,cs),
(52,648,o),
(29,626,o),
(0,626,cs)
);
}
);
};
layerId = "4121B50C-FD42-45C5-8FBE-41E76D98F91E";
shapes = (
{
closed = 1;
nodes = (
(79,544,o),
(140,602,o),
(140,679,cs),
(140,756,o),
(79,814,o),
(0,814,cs),
(-79,814,o),
(-140,756,o),
(-140,679,cs),
(-140,602,o),
(-79,544,o),
(0,544,cs)
);
},
{
closed = 1;
nodes = (
(-29,626,o),
(-52,648,o),
(-52,679,cs),
(-52,710,o),
(-29,731,o),
(0,731,cs),
(29,731,o),
(52,710,o),
(52,679,cs),
(52,648,o),
(29,626,o),
(0,626,cs)
);
}
);
width = 0;
},
{
anchors = (
{
name = _top;
pos = (0,484);
},
{
name = top;
pos = (32,685);
}
);
background = {
anchors = (
{
name = _top;
pos = (0,484);
},
{
name = top;
pos = (32,685);
}
);
shapes = (
{
closed = 1;
nodes = (
(91,547,o),
(140,596,o),
(140,657,cs),
(140,718,o),
(91,767,o),
(28,767,cs),
(-35,767,o),
(-84,718,o),
(-84,657,cs),
(-84,596,o),
(-35,547,o),
(28,547,cs)
);
},
{
closed = 1;
nodes = (
(-18,579,o),
(-50,613,o),
(-50,657,cs),
(-50,701,o),
(-18,735,o),
(28,735,cs),
(74,735,o),
(106,701,o),
(106,657,cs),
(106,613,o),
(74,579,o),
(28,579,cs)
);
}
);
};
layerId = "D8D4984A-F5A5-43C0-BF2B-5708C10C5E92";
shapes = (
{
closed = 1;
nodes = (
(91,547,o),
(140,596,o),
(140,657,cs),
(140,718,o),
(91,767,o),
(28,767,cs),
(-35,767,o),
(-84,718,o),
(-84,657,cs),
(-84,596,o),
(-35,547,o),
(28,547,cs)
);
},
{
closed = 1;
nodes = (
(-18,579,o),
(-50,613,o),
(-50,657,cs),
(-50,701,o),
(-18,735,o),
(28,735,cs),
(74,735,o),
(106,701,o),
(106,657,cs),
(106,613,o),
(74,579,o),
(28,579,cs)
);
}
);
width = 0;
},
{
anchors = (
{
name = _top;
pos = (0,484);
},
{
name = top;
pos = (32,685);
}
);
background = {
anchors = (
{
name = _top;
pos = (0,484);
},
{
name = top;
pos = (32,685);
}
);
shapes = (
{
closed = 1;
nodes = (
(110,544,o),
(171,602,o),
(171,679,cs),
(171,756,o),
(110,814,o),
(31,814,cs),
(-48,814,o),
(-109,756,o),
(-109,679,cs),
(-109,602,o),
(-48,544,o),
(31,544,cs)
);
},
{
closed = 1;
nodes = (
(2,626,o),
(-21,648,o),
(-21,679,cs),
(-21,710,o),
(2,731,o),
(31,731,cs),
(60,731,o),
(83,710,o),
(83,679,cs),
(83,648,o),
(60,626,o),
(31,626,cs)
);
}
);
};
layerId = "C92D7C27-2246-4784-91DF-7F4E0C5E615D";
shapes = (
{
closed = 1;
nodes = (
(110,544,o),
(171,602,o),
(171,679,cs),
(171,756,o),
(110,814,o),
(31,814,cs),
(-48,814,o),
(-109,756,o),
(-109,679,cs),
(-109,602,o),
(-48,544,o),
(31,544,cs)
);
},
{
closed = 1;
nodes = (
(2,626,o),
(-21,648,o),
(-21,679,cs),
(-21,710,o),
(2,731,o),
(31,731,cs),
(60,731,o),
(83,710,o),
(83,679,cs),
(83,648,o),
(60,626,o),
(31,626,cs)
);
}
);
width = 0;
},
{
anchors = (
{
name = _top;
pos = (0,484);
},
{
name = top;
pos = (0,685);
}
);
background = {
anchors = (
{
name = _top;
pos = (0,484);
},
{
name = top;
pos = (0,685);
}
);
shapes = (
{
closed = 1;
nodes = (
(71,546,o),
(126,600,o),
(126,669,cs),
(126,738,o),
(71,791,o),
(0,791,cs),
(-71,791,o),
(-126,738,o),
(-126,669,cs),
(-126,600,o),
(-71,546,o),
(0,546,cs)
);
},
{
closed = 1;
nodes = (
(-37,603,o),
(-65,631,o),
(-65,669,cs),
(-65,706,o),
(-37,734,o),
(0,734,cs),
(38,734,o),
(65,706,o),
(65,669,cs),
(65,631,o),
(38,603,o),
(0,603,cs)
);
}
);
};
layerId = "18203F29-5161-4D9B-8394-C173CC5E27D4";
shapes = (
{
closed = 1;
nodes = (
(71,546,o),
(126,600,o),
(126,669,cs),
(126,738,o),
(71,791,o),
(0,791,cs),
(-71,791,o),
(-126,738,o),
(-126,669,cs),
(-126,600,o),
(-71,546,o),
(0,546,cs)
);
},
{
closed = 1;
nodes = (
(-37,603,o),
(-65,631,o),
(-65,669,cs),
(-65,706,o),
(-37,734,o),
(0,734,cs),
(38,734,o),
(65,706,o),
(65,669,cs),
(65,631,o),
(38,603,o),
(0,603,cs)
);
}
);
width = 0;
},
{
anchors = (
{
name = _top;
pos = (0,484);
},
{
name = top;
pos = (32,685);
}
);
background = {
anchors = (
{
name = _top;
pos = (0,484);
},
{
name = top;
pos = (32,685);
}
);
shapes = (
{
closed = 1;
nodes = (
(101,546,o),
(156,599,o),
(156,668,cs),
(156,737,o),
(101,791,o),
(30,791,cs),
(-41,791,o),
(-96,737,o),
(-96,668,cs),
(-96,599,o),
(-41,546,o),
(30,546,cs)
);
},
{
closed = 1;
nodes = (
(-8,603,o),
(-35,631,o),
(-35,668,cs),
(-35,706,o),
(-8,733,o),
(30,733,cs),
(67,733,o),
(95,706,o),
(95,668,cs),
(95,631,o),
(67,603,o),
(30,603,cs)
);
}
);
};
layerId = "8FF16B21-C988-4EC9-A448-39B9B4A4BD78";
shapes = (
{
closed = 1;
nodes = (
(101,546,o),
(156,599,o),
(156,668,cs),
(156,737,o),
(101,791,o),
(30,791,cs),
(-41,791,o),
(-96,737,o),
(-96,668,cs),
(-96,599,o),
(-41,546,o),
(30,546,cs)
);
},
{
closed = 1;
nodes = (
(-8,603,o),
(-35,631,o),
(-35,668,cs),
(-35,706,o),
(-8,733,o),
(30,733,cs),
(67,733,o),
(95,706,o),
(95,668,cs),
(95,631,o),
(67,603,o),
(30,603,cs)
);
}
);
width = 0;
}
);
unicode = 778;
}
{
color = 6;
glyphname = hungarumlautcomb;
kernLeft = hungarumlautcomb;
kernRight = hungarumlautcomb;
layers = (
{
anchors = (
{
name = _top;
pos = (0,484);
},
{
name = top;
pos = (0,685);
}
);
background = {
anchors = (
{
name = _top;
pos = (0,484);
},
{
name = top;
pos = (0,685);
}
);
shapes = (
{
closed = 1;
nodes = (
(68,549,l),
(147,749,l),
(99,749,l),
(41,549,l)
);
},
{
closed = 1;
nodes = (
(-41,549,l),
(38,749,l),
(-10,749,l),
(-68,549,l)
);
}
);
};
layerId = "F1F93986-3ED8-4AAE-84C4-CA3EEECDDFA0";
shapes = (
{
closed = 1;
nodes = (
(139,729,ls),
(151,759,o),
(106,772,o),
(95,736,cs),
(44,561,ls),
(39,543,o),
(64,537,o),
(70,553,cs)
);
},
{
closed = 1;
nodes = (
(30,729,ls),
(42,759,o),
(-3,772,o),
(-14,736,cs),
(-65,561,ls),
(-70,543,o),
(-45,537,o),
(-39,553,cs)
);
}
);
width = 0;
},
{
anchors = (
{
name = _top;
pos = (0,484);
},
{
name = top;
pos = (0,685);
}
);
background = {
anchors = (
{
name = _top;
pos = (0,484);
},
{
name = top;
pos = (0,685);
}
);
shapes = (
{
closed = 1;
nodes = (
(143,558,l),
(241,765,l),
(79,765,l),
(38,558,l)
);
},
{
closed = 1;
nodes = (
(-45,558,l),
(53,765,l),
(-109,765,l),
(-150,558,l)
);
}
);
};
layerId = "4121B50C-FD42-45C5-8FBE-41E76D98F91E";
shapes = (
{
closed = 1;
nodes = (
(208,695,ls),
(252,788,o),
(92,832,o),
(73,736,cs),
(47,604,ls),
(34,540,o),
(125,519,o),
(151,575,cs)
);
},
{
closed = 1;
nodes = (
(20,695,ls),
(64,788,o),
(-96,832,o),
(-115,736,cs),
(-141,604,ls),
(-154,540,o),
(-63,519,o),
(-37,575,cs)
);
}
);
width = 0;
},
{
anchors = (
{
name = _top;
pos = (0,484);
},
{
name = top;
pos = (32,685);
}
);
background = {
anchors = (
{
name = _top;
pos = (0,484);
},
{
name = top;
pos = (32,685);
}
);
shapes = (
{
closed = 1;
nodes = (
(78,549,l),
(175,749,l),
(127,749,l),
(51,549,l)
);
},
{
closed = 1;
nodes = (
(-31,549,l),
(66,749,l),
(18,749,l),
(-58,549,l)
);
}
);
};
layerId = "D8D4984A-F5A5-43C0-BF2B-5708C10C5E92";
shapes = (
{
closed = 1;
nodes = (
(164,726,ls),
(179,756,o),
(137,774,o),
(123,738,cs),
(56,562,ls),
(50,545,o),
(72,536,o),
(80,553,cs)
);
},
{
closed = 1;
nodes = (
(55,726,ls),
(70,756,o),
(28,774,o),
(14,738,cs),
(-53,562,ls),
(-59,545,o),
(-37,536,o),
(-29,553,cs)
);
}
);
width = 0;
},
{
anchors = (
{
name = _top;
pos = (0,484);
},
{
name = top;
pos = (32,685);
}
);
background = {
anchors = (
{
name = _top;
pos = (0,484);
},
{
name = top;
pos = (32,685);
}
);
shapes = (
{
closed = 1;
nodes = (
(155,558,l),
(271,765,l),
(109,765,l),
(50,558,l)
);
},
{
closed = 1;
nodes = (
(-33,558,l),
(83,765,l),
(-79,765,l),
(-138,558,l)
);
}
);
};
layerId = "C92D7C27-2246-4784-91DF-7F4E0C5E615D";
shapes = (
{
closed = 1;
nodes = (
(230,692,ls),
(279,780,o),
(129,837,o),
(101,737,cs),
(66,614,ls),
(46,543,o),
(132,515,o),
(166,577,cs)
);
},
{
closed = 1;
nodes = (
(42,692,ls),
(91,780,o),
(-59,837,o),
(-87,737,cs),
(-122,614,ls),
(-142,543,o),
(-56,515,o),
(-22,577,cs)
);
}
);
width = 0;
},
{
anchors = (
{
name = _top;
pos = (0,484);
},
{
name = top;
pos = (0,685);
}
);
background = {
anchors = (
{
name = _top;
pos = (0,484);
},
{
name = top;
pos = (0,685);
}
);
shapes = (
{
closed = 1;
nodes = (
(106,554,l),
(194,757,l),
(89,757,l),
(40,554,l)
);
},
{
closed = 1;
nodes = (
(-43,554,l),
(46,757,l),
(-59,757,l),
(-109,554,l)
);
}
);
};
layerId = "18203F29-5161-4D9B-8394-C173CC5E27D4";
shapes = (
{
closed = 1;
nodes = (
(175,712,ls),
(202,774,o),
(100,802,o),
(84,736,cs),
(47,583,ls),
(37,542,o),
(94,528,o),
(110,564,cs)
);
},
{
closed = 1;
nodes = (
(26,712,ls),
(53,774,o),
(-48,801,o),
(-64,736,cs),
(-102,583,ls),
(-112,542,o),
(-55,528,o),
(-39,564,cs)
);
}
);
width = 0;
},
{
anchors = (
{
name = _top;
pos = (0,484);
},
{
name = top;
pos = (32,685);
}
);
background = {
anchors = (
{
name = _top;
pos = (0,484);
},
{
name = top;
pos = (32,685);
}
);
shapes = (
{
closed = 1;
nodes = (
(117,554,l),
(223,757,l),
(118,757,l),
(51,554,l)
);
},
{
closed = 1;
nodes = (
(-32,554,l),
(75,757,l),
(-30,757,l),
(-98,554,l)
);
}
);
};
layerId = "8FF16B21-C988-4EC9-A448-39B9B4A4BD78";
shapes = (
{
closed = 1;
nodes = (
(198,709,ls),
(229,769,o),
(134,805,o),
(112,738,cs),
(62,588,ls),
(48,545,o),
(103,526,o),
(123,565,cs)
);
},
{
closed = 1;
nodes = (
(50,709,ls),
(82,769,o),
(-13,805,o),
(-36,738,cs),
(-87,588,ls),
(-102,545,o),
(-46,526,o),
(-26,565,cs)
);
}
);
width = 0;
}
);
unicode = 779;
}
{
color = 6;
glyphname = horncomb;
kernLeft = horncomb;
kernRight = horncomb;
layers = (
{
anchors = (
{
name = _topright;
pos = (-1,484);
}
);
background = {
anchors = (
{
name = _topright;
pos = (-1,484);
}
);
shapes = (
{
closed = 1;
nodes = (
(108,450,o),
(159,502,o),
(159,596,cs),
(159,616,l),
(119,616,l),
(119,604,ls),
(119,527,o),
(96,485,o),
(-1,484,c),
(-1,459,l),
(14,446,l)
);
}
);
};
layerId = "F1F93986-3ED8-4AAE-84C4-CA3EEECDDFA0";
shapes = (
{
closed = 1;
nodes = (
(108,450,o),
(159,502,o),
(159,598,cs),
(159,615,o),
(152,622,o),
(139,622,cs),
(126,622,o),
(119,614,o),
(119,598,cs),
(119,525,o),
(96,485,o),
(-1,484,c),
(-1,459,l),
(14,446,l)
);
}
);
width = 0;
},
{
anchors = (
{
name = _topright;
pos = (0,484);
}
);
background = {
anchors = (
{
name = _topright;
pos = (0,484);
}
);
shapes = (
{
closed = 1;
nodes = (
(200,416,o),
(253,484,o),
(253,562,cs),
(253,616,l),
(76,616,l),
(76,586,ls),
(76,502,o),
(44,494,o),
(0,494,c),
(0,481,l),
(127,404,l)
);
}
);
};
layerId = "4121B50C-FD42-45C5-8FBE-41E76D98F91E";
shapes = (
{
closed = 1;
nodes = (
(200,416,o),
(253,481,o),
(253,559,cs),
(253,596,o),
(221,616,o),
(164,616,cs),
(106,616,o),
(74,596,o),
(74,558,cs),
(74,514,o),
(52,494,o),
(0,494,c),
(0,481,l),
(127,404,l)
);
}
);
width = 0;
},
{
anchors = (
{
name = _topright;
pos = (0,484);
}
);
background = {
anchors = (
{
name = _topright;
pos = (0,484);
}
);
shapes = (
{
closed = 1;
nodes = (
(106,450,o),
(163,497,o),
(177,589,cs),
(181,616,l),
(141,616,l),
(139,604,ls),
(126,528,o),
(97,485,o),
(0,484,c),
(-4,459,l),
(10,446,l)
);
}
);
};
layerId = "D8D4984A-F5A5-43C0-BF2B-5708C10C5E92";
shapes = (
{
closed = 1;
nodes = (
(117,450,o),
(167,508,o),
(179,600,cs),
(181,616,o),
(173,622,o),
(160,622,cs),
(149,622,o),
(142,616,o),
(139,603,cs),
(128,554,o),
(119,485,o),
(0,484,c),
(-4,459,l),
(10,446,l)
);
}
);
width = 0;
},
{
anchors = (
{
name = _topright;
pos = (0,484);
}
);
background = {
anchors = (
{
name = _topright;
pos = (0,484);
}
);
shapes = (
{
closed = 1;
nodes = (
(195,416,o),
(248,484,o),
(261,562,cs),
(270,616,l),
(91,616,l),
(86,586,ls),
(72,502,o),
(46,494,o),
(2,494,c),
(0,481,l),
(121,404,l)
);
}
);
};
layerId = "C92D7C27-2246-4784-91DF-7F4E0C5E615D";
shapes = (
{
closed = 1;
nodes = (
(195,416,o),
(249,484,o),
(261,562,cs),
(267,602,o),
(237,626,o),
(180,626,cs),
(122,626,o),
(88,605,o),
(81,565,cs),
(71,510,o),
(48,494,o),
(2,494,c),
(0,481,l),
(121,404,l)
);
}
);
width = 0;
},
{
anchors = (
{
name = _topright;
pos = (0,484);
}
);
background = {
anchors = (
{
name = _topright;
pos = (0,484);
}
);
shapes = (
{
closed = 1;
nodes = (
(154,433,o),
(206,493,o),
(206,579,cs),
(206,616,l),
(98,616,l),
(98,595,ls),
(98,515,o),
(70,490,o),
(0,489,c),
(0,470,l),
(71,425,l)
);
}
);
};
layerId = "18203F29-5161-4D9B-8394-C173CC5E27D4";
shapes = (
{
closed = 1;
nodes = (
(154,433,o),
(206,492,o),
(206,579,cs),
(206,606,o),
(187,619,o),
(152,619,cs),
(116,619,o),
(97,605,o),
(97,578,cs),
(97,520,o),
(74,490,o),
(0,489,c),
(0,470,l),
(71,425,l)
);
}
);
width = 0;
},
{
anchors = (
{
name = _topright;
pos = (0,484);
}
);
background = {
anchors = (
{
name = _topright;
pos = (0,484);
}
);
shapes = (
{
closed = 1;
nodes = (
(151,433,o),
(206,491,o),
(219,576,cs),
(226,616,l),
(116,616,l),
(113,595,ls),
(99,515,o),
(72,490,o),
(1,489,c),
(-2,470,l),
(66,425,l)
);
}
);
};
layerId = "8FF16B21-C988-4EC9-A448-39B9B4A4BD78";
shapes = (
{
closed = 1;
nodes = (
(156,433,o),
(208,496,o),
(220,581,cs),
(224,609,o),
(205,624,o),
(170,624,cs),
(136,624,o),
(116,612,o),
(111,584,cs),
(101,532,o),
(84,490,o),
(1,489,c),
(-2,470,l),
(66,425,l)
);
}
);
width = 0;
}
);
unicode = 795;
}
{
color = 6;
glyphname = ogonekcomb;
layers = (
{
anchors = (
{
name = _ogonek;
}
);
background = {
anchors = (
{
name = _ogonek;
}
);
shapes = (
{
closed = 1;
nodes = (
(14,-190,o),
(40,-183,o),
(54,-173,c),
(41,-141,l),
(22,-150,o),
(5,-154,o),
(-12,-154,cs),
(-45,-154,o),
(-72,-136,o),
(-72,-94,cs),
(-72,-46,o),
(-30,-13,o),
(0,0,c),
(-21,31,l),
(-78,1,o),
(-111,-48,o),
(-111,-98,cs),
(-111,-154,o),
(-72,-190,o),
(-17,-190,cs)
);
}
);
};
layerId = "F1F93986-3ED8-4AAE-84C4-CA3EEECDDFA0";
shapes = (
{
closed = 1;
nodes = (
(2,-190,o),
(19,-188,o),
(38,-181,cs),
(56,-174,o),
(54,-138,o),
(27,-147,cs),
(15,-151,o),
(3,-154,o),
(-12,-154,cs),
(-45,-154,o),
(-72,-136,o),
(-72,-94,cs),
(-72,-46,o),
(-30,-13,o),
(0,0,c),
(-21,31,l),
(-78,1,o),
(-111,-48,o),
(-111,-98,cs),
(-111,-154,o),
(-72,-190,o),
(-17,-190,cs)
);
}
);
width = 0;
},
{
anchors = (
{
name = _ogonek;
}
);
background = {
anchors = (
{
name = _ogonek;
}
);
shapes = (
{
closed = 1;
nodes = (
(12,-200,o),
(37,-196,o),
(76,-182,c),
(59,-92,l),
(39,-98,o),
(25,-101,o),
(3,-101,cs),
(-27,-101,o),
(-49,-85,o),
(-49,-60,cs),
(-49,-39,o),
(-37,-14,o),
(0,0,c),
(-54,52,l),
(-121,30,o),
(-168,-22,o),
(-168,-84,cs),
(-168,-155,o),
(-118,-200,o),
(-26,-200,cs)
);
}
);
};
layerId = "4121B50C-FD42-45C5-8FBE-41E76D98F91E";
shapes = (
{
closed = 1;
nodes = (
(-7,-200,o),
(18,-199,o),
(42,-192,cs),
(103,-174,o),
(99,-90,o),
(27,-99,cs),
(19,-100,o),
(11,-101,o),
(3,-101,cs),
(-27,-101,o),
(-49,-85,o),
(-49,-60,cs),
(-49,-39,o),
(-37,-14,o),
(0,0,c),
(-54,52,l),
(-121,30,o),
(-168,-22,o),
(-168,-84,cs),
(-168,-155,o),
(-118,-200,o),
(-26,-200,cs)
);
}
);
width = 0;
},
{
anchors = (
{
name = _ogonek;
}
);
background = {
anchors = (
{
name = _ogonek;
}
);
shapes = (
{
closed = 1;
nodes = (
(-3,-190,o),
(25,-182,o),
(38,-175,c),
(29,-141,l),
(9,-150,o),
(-9,-154,o),
(-25,-154,cs),
(-62,-154,o),
(-80,-132,o),
(-80,-99,cs),
(-80,-60,o),
(-54,-22,o),
(0,0,c),
(-18,31,l),
(-77,5,o),
(-119,-44,o),
(-119,-103,cs),
(-119,-154,o),
(-87,-190,o),
(-30,-190,cs)
);
}
);
};
layerId = "D8D4984A-F5A5-43C0-BF2B-5708C10C5E92";
shapes = (
{
closed = 1;
nodes = (
(-15,-190,o),
(8,-187,o),
(26,-180,cs),
(41,-174,o),
(38,-139,o),
(14,-147,cs),
(-1,-152,o),
(-13,-154,o),
(-25,-154,cs),
(-62,-154,o),
(-80,-132,o),
(-80,-99,cs),
(-80,-60,o),
(-54,-22,o),
(0,0,c),
(-18,31,l),
(-77,5,o),
(-119,-44,o),
(-119,-103,cs),
(-119,-154,o),
(-87,-190,o),
(-30,-190,cs)
);
}
);
width = 0;
},
{
anchors = (
{
name = _ogonek;
}
);
background = {
anchors = (
{
name = _ogonek;
}
);
shapes = (
{
closed = 1;
nodes = (
(-14,-200,o),
(11,-196,o),
(60,-183,c),
(47,-92,l),
(27,-98,o),
(13,-101,o),
(-7,-101,cs),
(-33,-101,o),
(-54,-86,o),
(-54,-63,cs),
(-54,-42,o),
(-40,-15,o),
(0,0,c),
(-49,52,l),
(-120,28,o),
(-173,-30,o),
(-173,-98,cs),
(-173,-161,o),
(-130,-200,o),
(-50,-200,cs)
);
}
);
};
layerId = "C92D7C27-2246-4784-91DF-7F4E0C5E615D";
shapes = (
{
closed = 1;
nodes = (
(-18,-200,o),
(14,-196,o),
(36,-189,cs),
(90,-172,o),
(84,-86,o),
(23,-98,cs),
(8,-101,o),
(0,-101,o),
(-7,-101,cs),
(-33,-101,o),
(-54,-86,o),
(-54,-63,cs),
(-54,-42,o),
(-40,-15,o),
(0,0,c),
(-49,52,l),
(-120,28,o),
(-173,-30,o),
(-173,-98,cs),
(-173,-161,o),
(-130,-200,o),
(-40,-200,cs)
);
}
);
width = 0;
},
{
anchors = (
{
name = _ogonek;
}
);
background = {
anchors = (
{
name = _ogonek;
}
);
shapes = (
{
closed = 1;
nodes = (
(13,-195,o),
(39,-190,o),
(65,-178,c),
(50,-117,l),
(31,-124,o),
(15,-128,o),
(-4,-128,cs),
(-36,-128,o),
(-60,-111,o),
(-60,-77,cs),
(-60,-43,o),
(-33,-14,o),
(0,0,c),
(-37,42,l),
(-99,16,o),
(-139,-35,o),
(-139,-91,cs),
(-139,-155,o),
(-95,-195,o),
(-21,-195,cs)
);
}
);
};
layerId = "18203F29-5161-4D9B-8394-C173CC5E27D4";
shapes = (
{
closed = 1;
nodes = (
(-2,-195,o),
(21,-194,o),
(42,-186,cs),
(81,-171,o),
(74,-111,o),
(26,-124,cs),
(15,-127,o),
(5,-128,o),
(-4,-128,cs),
(-36,-128,o),
(-60,-111,o),
(-60,-77,cs),
(-60,-43,o),
(-33,-14,o),
(0,0,c),
(-37,42,l),
(-99,16,o),
(-139,-35,o),
(-139,-91,cs),
(-139,-155,o),
(-95,-195,o),
(-21,-195,cs)
);
}
);
width = 0;
},
{
anchors = (
{
name = _ogonek;
}
);
background = {
anchors = (
{
name = _ogonek;
}
);
shapes = (
{
closed = 1;
nodes = (
(-8,-195,o),
(18,-189,o),
(49,-179,c),
(38,-117,l),
(18,-124,o),
(2,-128,o),
(-16,-128,cs),
(-47,-128,o),
(-67,-109,o),
(-67,-81,cs),
(-67,-51,o),
(-47,-19,o),
(0,0,c),
(-33,42,l),
(-98,17,o),
(-146,-37,o),
(-146,-101,cs),
(-146,-158,o),
(-108,-195,o),
(-40,-195,cs)
);
}
);
};
layerId = "8FF16B21-C988-4EC9-A448-39B9B4A4BD78";
shapes = (
{
closed = 1;
nodes = (
(-15,-195,o),
(11,-191,o),
(31,-184,cs),
(64,-172,o),
(60,-111,o),
(18,-123,cs),
(4,-127,o),
(-6,-128,o),
(-16,-128,cs),
(-47,-128,o),
(-67,-109,o),
(-67,-81,cs),
(-67,-46,o),
(-42,-17,o),
(0,0,c),
(-34,42,l),
(-107,10,o),
(-146,-39,o),
(-146,-103,cs),
(-146,-155,o),
(-111,-195,o),
(-39,-195,cs)
);
}
);
width = 0;
}
);
unicode = 808;
}
{
color = 6;
glyphname = "Ge-cy";
kernLeft = "Be-cy";
kernRight = "Ge-cy";
layers = (
{
anchors = (
{
name = bottomright;
pos = (96,0);
},
{
name = stroke;
pos = (148,353);
},
{
name = top;
pos = (275,705);
}
);
background = {
anchors = (
{
name = bottomright;
pos = (96,0);
},
{
name = stroke;
pos = (148,353);
},
{
name = top;
pos = (275,705);
}
);
shapes = (
{
closed = 1;
nodes = (
(138,0,l),
(138,666,l),
(514,666,l),
(514,705,l),
(96,705,l),
(96,0,l)
);
}
);
};
layerId = "F1F93986-3ED8-4AAE-84C4-CA3EEECDDFA0";
shapes = (
{
closed = 1;
nodes = (
(130,-6,o),
(138,2,o),
(138,16,cs),
(138,666,l),
(498,666,ls),
(512,666,o),
(520,673,o),
(520,685,cs),
(520,698,o),
(512,705,o),
(498,705,cs),
(118,705,ls),
(104,705,o),
(96,697,o),
(96,683,cs),
(96,16,ls),
(96,2,o),
(104,-6,o),
(117,-6,cs)
);
}
);
width = 527;
},
{
anchors = (
{
name = bottomright;
pos = (71,0);
},
{
name = stroke;
pos = (176,359);
},
{
name = top;
pos = (285,705);
}
);
background = {
anchors = (
{
name = bottomright;
pos = (71,0);
},
{
name = stroke;
pos = (176,359);
},
{
name = top;
pos = (285,705);
}
);
shapes = (
{
closed = 1;
nodes = (
(272,0,l),
(272,531,l),
(572,531,l),
(572,705,l),
(57,705,l),
(57,0,l)
);
}
);
};
layerId = "4121B50C-FD42-45C5-8FBE-41E76D98F91E";
shapes = (
{
closed = 1;
nodes = (
(235,-10,o),
(272,29,o),
(272,99,cs),
(272,531,l),
(494,531,ls),
(551,531,o),
(582,562,o),
(582,618,cs),
(582,674,o),
(551,705,o),
(494,705,cs),
(168,705,ls),
(96,705,o),
(57,666,o),
(57,594,cs),
(57,99,ls),
(57,29,o),
(96,-10,o),
(165,-10,cs)
);
}
);
width = 591;
},
{
anchors = (
{
name = bottomright;
pos = (57,0);
},
{
name = stroke;
pos = (165,353);
},
{
name = top;
pos = (348,705);
}
);
background = {
anchors = (
{
name = bottomright;
pos = (58,0);
},
{
name = stroke;
pos = (165,353);
},
{
name = top;
pos = (348,705);
}
);
shapes = (
{
closed = 1;
nodes = (
(100,0,l),
(206,666,l),
(581,666,l),
(587,705,l),
(170,705,l),
(58,0,l)
);
}
);
};
layerId = "D8D4984A-F5A5-43C0-BF2B-5708C10C5E92";
shapes = (
{
closed = 1;
nodes = (
(93,-6,o),
(101,2,o),
(103,16,cs),
(206,666,l),
(571,666,ls),
(586,666,o),
(595,674,o),
(595,689,cs),
(595,700,o),
(587,705,o),
(573,705,cs),
(193,705,ls),
(178,705,o),
(169,698,o),
(166,682,cs),
(61,20,ls),
(58,3,o),
(66,-6,o),
(79,-6,cs)
);
}
);
width = 527;
},
{
anchors = (
{
name = bottomright;
pos = (33,0);
},
{
name = stroke;
pos = (195,359);
},
{
name = top;
pos = (358,705);
}
);
background = {
anchors = (
{
name = bottomright;
pos = (33,0);
},
{
name = stroke;
pos = (195,359);
},
{
name = top;
pos = (358,705);
}
);
shapes = (
{
closed = 1;
nodes = (
(233,0,l),
(317,531,l),
(617,531,l),
(645,705,l),
(130,705,l),
(18,0,l)
);
}
);
};
layerId = "C92D7C27-2246-4784-91DF-7F4E0C5E615D";
shapes = (
{
closed = 1;
nodes = (
(199,-10,o),
(238,25,o),
(249,97,cs),
(318,531,l),
(538,531,ls),
(603,531,o),
(642,570,o),
(642,635,cs),
(642,679,o),
(609,705,o),
(550,705,cs),
(233,705,ls),
(165,705,o),
(124,670,o),
(113,603,cs),
(36,116,ls),
(23,36,o),
(54,-10,o),
(128,-10,cs)
);
}
);
width = 591;
},
{
anchors = (
{
name = bottomright;
pos = (84,0);
},
{
name = stroke;
pos = (162,356);
},
{
name = top;
pos = (280,705);
}
);
background = {
anchors = (
{
name = bottomright;
pos = (83,0);
},
{
name = stroke;
pos = (162,356);
},
{
name = top;
pos = (280,705);
}
);
shapes = (
{
closed = 1;
nodes = (
(205,0,l),
(205,598,l),
(543,598,l),
(543,705,l),
(77,705,l),
(77,0,l)
);
}
);
};
layerId = "18203F29-5161-4D9B-8394-C173CC5E27D4";
shapes = (
{
closed = 1;
nodes = (
(183,-8,o),
(205,16,o),
(205,58,cs),
(205,598,l),
(496,598,ls),
(532,598,o),
(551,618,o),
(551,652,cs),
(551,686,o),
(532,705,o),
(496,705,cs),
(143,705,ls),
(100,705,o),
(77,682,o),
(77,639,cs),
(77,58,ls),
(77,16,o),
(100,-8,o),
(141,-8,cs)
);
}
);
width = 559;
},
{
anchors = (
{
name = bottomright;
pos = (45,0);
},
{
name = stroke;
pos = (180,356);
},
{
name = top;
pos = (353,705);
}
);
background = {
anchors = (
{
name = bottomright;
pos = (46,0);
},
{
name = stroke;
pos = (180,356);
},
{
name = top;
pos = (353,705);
}
);
shapes = (
{
closed = 1;
nodes = (
(166,0,l),
(261,598,l),
(599,598,l),
(616,705,l),
(150,705,l),
(38,0,l)
);
}
);
};
layerId = "8FF16B21-C988-4EC9-A448-39B9B4A4BD78";
shapes = (
{
closed = 1;
nodes = (
(145,-8,o),
(168,14,o),
(175,57,cs),
(261,598,l),
(554,598,ls),
(594,598,o),
(618,622,o),
(618,662,cs),
(618,690,o),
(597,705,o),
(561,705,cs),
(212,705,ls),
(171,705,o),
(147,684,o),
(140,643,cs),
(49,68,ls),
(41,20,o),
(59,-8,o),
(103,-8,cs)
);
}
);
width = 559;
}
);
unicode = 1043;
}
